<svg width="37" height="41" viewBox="0 0 37 41" fill="none" xmlns="http://www.w3.org/2000/svg">
<path d="M4.97047 4.05763L5.06193 4.87956L5.19922 6.11346L4.24508 5.31912L3.11937 4.38192L2.9491 4.73406L2.50125 4.52288L2.20713 4.38419C2.27971 4.51569 2.34434 4.6464 2.39411 4.77209C2.49581 5.0289 2.63205 5.50509 2.29998 5.87602C2.24687 5.93535 2.18769 5.98429 2.12486 6.0246L2.13095 6.03075L2.65743 6.56224L1.96499 6.84542C1.69198 6.95707 1.65141 7.07243 1.63892 7.14994C1.6177 7.28168 1.65766 7.50259 1.82047 7.8341C2.06324 8.32839 2.46631 8.86086 2.87173 9.39642C3.01287 9.58286 3.15429 9.76968 3.28933 9.95539L4.97047 4.05763ZM4.97047 4.05763L5.51896 4.26609L6.02868 3.42491L5.20064 2.6893L5.16441 2.08536L5.14585 1.77613L5.28271 1.64664L5.65182 1.82081L6.51681 2.22897L6.3953 1.50605C6.50632 1.55355 6.615 1.59795 6.72046 1.64104L6.72394 1.64246C7.12382 1.80583 7.47941 1.9514 7.83389 2.17899L4.97047 4.05763ZM35.9652 34.5663C36.0122 34.4461 36.0665 34.3335 36.1164 34.2358C36.1578 34.1547 36.1895 34.0956 36.2174 34.0436C36.2477 33.9871 36.2736 33.9389 36.3028 33.8796C36.3163 33.8519 36.3259 33.8309 36.3325 33.8153C36.3159 33.6928 36.2576 33.5759 36.1624 33.4351C36.1363 33.3967 36.1099 33.3597 36.0806 33.3187L36.0776 33.3143C36.0487 33.274 36.0152 33.227 35.9844 33.1802C35.9315 33.0998 35.8394 32.9531 35.8123 32.7736L35.8122 32.773C35.7836 32.581 35.8378 32.4218 35.8814 32.3233C35.9124 32.2533 35.9583 32.1733 35.985 32.1268C35.9911 32.116 35.9963 32.107 36 32.1004C36.0304 32.0457 36.0406 32.0203 36.0446 32.0055C36.0463 31.9993 36.0461 31.999 36.0458 31.9985C36.0457 31.9984 36.0457 31.9983 36.0456 31.9981L36.0456 31.998C36.0458 31.9987 36.0457 31.9984 36.0452 31.9971C36.0423 31.9892 36.0266 31.9462 35.9749 31.8587C35.9191 31.7646 35.8378 31.6454 35.7293 31.5015C35.5126 31.2141 35.2085 30.8552 34.8368 30.4427C34.0946 29.619 33.109 28.6099 32.0777 27.581C31.1768 26.6822 30.2367 25.7643 29.401 24.9485L35.9652 34.5663ZM35.9652 34.5663C35.8822 34.5579 35.7975 34.5614 35.7115 34.5805C35.3964 34.6506 35.2228 34.9057 35.1606 34.9973C35.1562 35.0037 35.1523 35.0094 35.1491 35.0141C35.0619 35.1386 35.0417 35.1554 35.0232 35.1652C35.019 35.1674 35.0035 35.1754 34.9639 35.1779C34.9209 35.1805 34.8465 35.1768 34.7292 35.1471L33.2381 34.7703L33.6763 35.2963L33.5804 35.5594L33.5122 35.7463L33.0681 35.5546L32.0335 35.1079L32.3966 36.1747L32.7238 37.1362L31.8762 38.4519L31.6109 38.3395L31.2057 38.168C31.1373 38.0228 31.0336 37.8651 30.8636 37.7379C30.623 37.5577 30.3226 37.4918 29.9837 37.4943L29.2289 37.4998L29.5284 38.1926L29.8911 39.0318C26.0733 35.5137 22.4283 31.8555 18.9278 28.0128L35.9652 34.5663ZM17.0527 25.9596C17.7075 26.6756 18.3362 27.363 18.9277 28.0127L17.0527 25.9596ZM17.0527 25.9596C12.5018 20.9835 6.68668 14.625 3.28941 9.9555L17.0527 25.9596ZM21.6948 16.4965C23.7027 18.8496 25.5541 21.0194 27.0172 22.5817L7.83397 2.17904C10.4033 3.8294 13.9574 7.58981 17.5183 11.6477C18.9341 13.2612 20.3496 14.92 21.6948 16.4965ZM36.3428 33.7886C36.3434 33.786 36.3439 33.7845 36.344 33.7844C36.3441 33.7842 36.3437 33.7856 36.3428 33.7886Z" fill="white" stroke="black"/>
</svg>
