<svg width="48" height="11" viewBox="0 0 48 11" fill="none" xmlns="http://www.w3.org/2000/svg">
<path d="M4.56293 2.76502L4.668 1.63293C4.80663 1.60633 4.94933 1.57986 5.09514 1.55365C5.92719 1.40409 6.81299 1.27118 7.52608 1.175C7.8823 1.12695 8.19227 1.08849 8.42801 1.06192C8.54612 1.04861 8.64282 1.0386 8.71591 1.0319C8.78032 1.02599 8.8118 1.02405 8.8202 1.02353C8.8225 1.02339 8.82307 1.02336 8.82213 1.02338L8.82293 1.02336C14.1438 0.914865 19.5824 1.1988 25.0252 1.48297C28.0727 1.64207 31.1215 1.80124 34.1517 1.89164L34.1522 1.89166C34.9037 1.91372 36.0118 1.89012 37.2214 1.86437C38.1407 1.84479 39.1187 1.82397 40.0432 1.82099C41.1458 1.81744 42.2017 1.83778 43.0869 1.90816C43.991 1.98005 44.5925 2.09662 44.8906 2.22478C44.8976 2.22879 44.9094 2.2357 44.9269 2.24635C44.9708 2.27309 45.0303 2.31083 45.1028 2.35814C45.247 2.45227 45.4256 2.573 45.6015 2.69502C45.6784 2.74837 45.7536 2.80106 45.8239 2.85101C45.8182 2.88127 45.8129 2.91258 45.8085 2.94458C45.7831 3.12536 45.7768 3.35931 45.8485 3.61693C45.9398 3.9465 46.1333 4.19882 46.2224 4.31504L46.2262 4.3199C46.2299 4.32482 46.2336 4.32962 46.2372 4.33431C46.2099 4.33665 46.1801 4.33931 46.1473 4.34239C45.9668 4.35936 45.6628 4.3927 45.3743 4.51276C45.0489 4.6482 44.6539 4.93596 44.513 5.47576L44.2564 6.45811L43.2673 7.14062L46.0318 7.38371C46.1595 7.39494 46.2416 7.41254 46.2911 7.42697C46.3002 7.52493 46.2966 7.61628 46.2908 7.76357C46.2884 7.826 46.2855 7.89848 46.2831 7.98578L45.9205 8.05938L44.4835 8.35103L45.0984 9.30208C44.5702 9.31836 44.0533 9.36451 43.5652 9.41359C43.4126 9.42894 43.2635 9.44447 43.1175 9.45966C42.4144 9.53285 41.7851 9.59837 41.1874 9.60008C36.074 9.60945 30.8094 9.24803 25.5738 8.8886C23.4785 8.74476 21.3879 8.60124 19.3135 8.48192L19.3133 8.48191C18.0667 8.41042 16.8076 8.37372 15.5602 8.33842L15.4364 8.33492C14.2263 8.30072 13.0275 8.26684 11.837 8.20339C10.1554 8.11376 8.5131 7.96596 6.92672 7.68208L8.27047 6.75483L5.12387 6.71906C5.0793 6.71855 5.04092 6.71695 5.00811 6.71475C4.99623 6.64368 4.97823 6.54803 4.95067 6.44998C4.92492 6.35833 4.88932 6.25951 4.84006 6.15945L5.86833 5.92172L5.7623 5.77757L5.88578 5.0323L6.58468 4.60831L9.77048 2.67563L6.04509 2.75356C5.51612 2.76462 5.02939 2.77319 4.56293 2.76502ZM46.6311 4.29154C46.632 4.29202 46.623 4.29499 46.6015 4.299C46.6194 4.29306 46.6302 4.29105 46.6311 4.29154Z" fill="white" stroke="black" stroke-width="2"/>
</svg>
