<svg width="43" height="41" viewBox="0 0 43 41" fill="none" xmlns="http://www.w3.org/2000/svg">
<path d="M3.03538 31.9182C6.13773 28.9333 9.16612 25.879 12.1901 22.829C18.0537 16.9152 23.9009 11.0179 30.2387 5.67601L30.2389 5.6759C31.1117 4.93974 32.1071 4.10412 33.1232 3.41046C33.8256 2.93093 34.5132 2.53686 35.1551 2.28856L35.7064 2.79237C35.9927 2.57904 36.4506 2.34816 36.9453 2.15156C37.4366 1.95633 37.9188 1.81271 38.2365 1.75668C38.3537 1.73654 38.4388 1.76036 38.5504 1.8112C38.558 1.81464 38.574 1.82235 38.5946 1.83229C38.6481 1.85807 38.7326 1.8988 38.7806 1.91843C38.8703 1.95519 39.0333 2.01261 39.2274 1.98209L39.2278 1.98203C39.3611 1.96096 39.4869 1.90729 39.5973 1.84523C39.5306 2.06202 39.4862 2.27477 39.4537 2.46785C39.4141 2.70287 39.3885 2.9363 39.3674 3.12792C39.3608 3.18766 39.3547 3.24333 39.3488 3.29373C39.3355 3.40634 39.3234 3.4903 39.3104 3.55267C39.304 3.58309 39.2989 3.60033 39.2966 3.60785C39.0948 3.92644 38.646 4.40475 38.1182 4.95894C38.0984 4.97967 38.0786 5.00049 38.0587 5.02141C37.5682 5.53622 37.0294 6.10172 36.714 6.55672L36.4237 6.97553L36.8479 7.25784C37.0309 7.37957 37.2188 7.41596 37.3923 7.40634C37.3612 7.60009 37.4045 7.81986 37.5776 7.99678L37.9178 8.34453L38.2747 8.01401L39.5435 6.83924C39.4303 6.98388 39.3234 7.13656 39.2266 7.29846L39.9128 7.98393L41.6776 6.92637C41.4636 7.32103 41.1363 7.70159 40.6913 8.08528L39.3366 9.25348L40.3165 9.0888L10.3992 38.6939C10.2698 38.7699 10.124 38.8808 9.99572 38.9828C9.8243 39.1191 9.633 39.2816 9.45531 39.4348C9.38865 39.4923 9.32501 39.5475 9.26475 39.5999C9.16673 39.4827 9.02802 39.3772 8.83177 39.3278C8.75297 39.3078 8.6719 39.2978 8.59102 39.2948L8.68618 39.2222L9.05111 38.9437L8.80478 38.5563C8.697 38.3869 8.54673 38.2606 8.3631 38.1902C8.18765 38.1229 8.01253 38.1183 7.86373 38.1357C7.58028 38.1689 7.29271 38.2958 7.06803 38.405C6.95191 38.4615 6.8546 38.5118 6.76526 38.558C6.74268 38.5697 6.72062 38.5811 6.69888 38.5923L6.74432 38.0931L6.82772 37.1768L6.01349 37.6053L5.16929 38.0497L4.92099 38.0417C5.09804 37.9057 5.28325 37.7499 5.47013 37.5586M3.03538 31.9182L2.68871 31.5579M3.03538 31.9182L2.68871 31.5579M3.03538 31.9182C2.76954 32.1741 2.41583 32.4296 2.09354 32.6625C1.96428 32.7558 1.84009 32.8456 1.72866 32.9302C1.40836 33.1734 1.16848 33.3895 1.01869 33.5969C1.03671 33.6113 1.05601 33.6279 1.07552 33.6471C1.51113 33.3391 1.97558 33.0287 2.35789 32.8191L2.35816 32.819C2.37647 32.8089 2.39634 32.7934 2.43261 32.7555C2.43346 32.7546 2.43691 32.751 2.44193 32.7456C2.45844 32.728 2.49189 32.6922 2.50548 32.6784C2.53294 32.6504 2.5872 32.5967 2.66071 32.5515C2.7425 32.5012 2.86439 32.4515 3.01594 32.4613C3.16209 32.4708 3.27523 32.5319 3.35096 32.5878C3.48332 32.6854 3.58977 32.8346 3.678 32.9704L3.88395 33.2876L3.63485 33.5721L2.09299 35.3332L2.61701 35.3031L3.92268 35.228L3.32113 35.8324L4.03474 35.5529L5.36498 35.0319L4.91799 35.8051L5.60614 35.41L5.88591 35.2494L6.14756 35.4381C6.33956 35.5766 6.39859 35.7788 6.4044 35.93C6.40969 36.0676 6.37487 36.1923 6.34316 36.2808C6.27808 36.4622 6.16585 36.6513 6.061 36.8091C5.8479 37.1296 5.57806 37.4485 5.47013 37.5586M2.68871 31.5579C2.44948 31.7881 2.14528 32.0078 1.83575 32.2313C1.25186 32.6529 0.649023 33.0883 0.427656 33.634L35.2262 1.73125C33.4398 2.33269 31.4538 3.9971 29.9165 5.29369C23.5626 10.6491 17.6866 16.5752 11.8125 22.4994C8.7923 25.5453 5.77261 28.5908 2.68871 31.5579ZM5.47013 37.5586C5.47 37.5587 5.46986 37.5588 5.46973 37.559L5.11281 37.2088L5.47054 37.5581C5.47041 37.5583 5.47027 37.5584 5.47013 37.5586ZM37.341 6.40799C37.3411 6.40789 37.3423 6.40761 37.3445 6.40744C37.342 6.408 37.3409 6.40809 37.341 6.40799ZM5.40793 35.9237C5.40794 35.9237 5.40783 35.9243 5.40751 35.9255L5.40793 35.9237ZM6.21044 38.7997C6.21048 38.7997 6.211 38.7997 6.21199 38.7996L6.21044 38.7997Z" fill="white" stroke="black"/>
</svg>
