<svg width="49" height="12" viewBox="0 0 49 12" fill="none" xmlns="http://www.w3.org/2000/svg">
<path d="M4.74744 3.97411L5.06175 4.21765L7.07725 5.77935L4.53745 6.00422L3.75023 6.07393L3.82815 6.29075L3.67663 6.34346C3.80331 6.48296 3.91937 6.66512 3.98068 6.88917L5.02813 6.89397L4.4453 8.24007C4.50177 8.26924 4.58693 8.30689 4.71152 8.34808C5.18141 8.50344 5.76939 8.58232 6.41243 8.66859C6.65153 8.70067 6.89824 8.73377 7.14933 8.7722L4.74744 3.97411ZM4.74744 3.97411L4.3889 2.46891L3.56202 2.51626L5.05119 1.99856L4.41941 1.5626C4.58193 1.50609 4.74078 1.45929 4.90997 1.42355L4.74744 3.97411ZM46.5785 3.43022C46.558 3.42536 46.5341 3.42029 46.5058 3.415C46.4666 3.40766 46.4274 3.40132 46.3757 3.39296L46.3735 3.3926L46.3713 3.39225C46.3243 3.38465 46.26 3.37426 46.1964 3.36154C46.0984 3.34198 45.838 3.28989 45.599 3.11894L45.598 3.11824C45.3316 2.92717 45.2097 2.67947 45.1527 2.53659C45.1388 2.50184 45.127 2.46854 45.117 2.4386C45.0495 2.42582 44.9676 2.41254 44.8701 2.3993C44.5365 2.35394 44.0872 2.31761 43.5429 2.29016C42.4578 2.23543 41.0691 2.21938 39.6262 2.22103C38.3831 2.22245 37.088 2.23742 35.9306 2.25081C34.4444 2.26799 33.1854 2.28255 32.5553 2.26241L46.5785 3.43022ZM46.5785 3.43022C46.5785 3.4303 46.5785 3.43039 46.5786 3.43047C46.5933 3.47848 46.6115 3.53787 46.6483 3.64804C46.6537 3.66401 46.6593 3.68056 46.6651 3.69761C46.4334 4.05067 46.446 4.43287 46.4728 4.62926L45.6596 5.09927L45.2696 5.18063L45.3238 5.29335L43.8045 6.17143L44.9273 6.27046L43.5649 6.79432L45.6645 7.79548L46.3439 8.11941L46.5183 8.90028L46.4143 8.94109C46.2463 8.90188 46.0489 8.8822 45.8298 8.91271C45.3948 8.97327 45.0445 9.20578 44.7614 9.48406L43.6994 10.528C39.3751 10.6432 35.0617 10.6063 30.7285 10.4106L46.5785 3.43022ZM27.9694 10.2894C28.9314 10.331 29.8557 10.371 30.7283 10.4106L27.9694 10.2894ZM27.9694 10.2894C21.2834 10.0002 12.7779 9.63225 7.14958 8.77224L27.9694 10.2894ZM4.91015 1.42351C7.79201 0.815474 12.8518 0.947876 18.2103 1.28659C20.317 1.41976 22.4658 1.58449 24.5132 1.74145C27.5833 1.97681 30.4253 2.19468 32.5551 2.2624L4.91015 1.42351Z" fill="white" stroke="black" stroke-width="2"/>
</svg>
