<svg width="54" height="12" viewBox="0 0 54 12" fill="none" xmlns="http://www.w3.org/2000/svg">
<path d="M49.3046 3.00031C49.274 2.97462 49.2432 2.94744 49.2127 2.91876C49.1092 2.82142 49.0085 2.70666 48.9264 2.57309L49.3035 2.34118C49.2899 2.34025 49.2761 2.33932 49.2622 2.33837C49.1683 2.33199 49.0664 2.32506 48.9551 2.31709C48.9045 2.31347 48.8528 2.30968 48.8006 2.30572L49.3046 3.00031ZM49.3046 3.00031C49.3037 3.00995 49.3031 3.01945 49.3029 3.02884M49.8917 1.50431C49.8978 1.49554 49.9038 1.48721 49.9094 1.47936C49.9415 1.43422 49.9624 1.40492 49.953 1.399M49.8917 1.50431L49.0908 1.90453C49.0355 1.80985 49.001 1.71469 48.9808 1.62738C48.9526 1.50562 48.9518 1.3977 48.9593 1.31478C49.0843 1.32394 49.2078 1.33235 49.3232 1.3402C49.6571 1.36293 49.9221 1.38097 49.953 1.399M49.8917 1.50431L49.953 1.399M49.8917 1.50431L49.593 1.96993L49.953 1.399M2.57446 7.15312C2.54807 7.09208 2.50188 6.99221 2.42415 6.88319C2.58741 6.76587 2.74087 6.6466 2.86219 6.55231C2.90602 6.51825 2.94566 6.48744 2.98004 6.46117C3.04148 6.41423 3.08584 6.38169 3.11826 6.35927C3.4403 6.30426 3.99971 6.28501 4.72234 6.26792C4.7568 6.26711 4.79162 6.2663 4.82674 6.26548C5.51498 6.24944 6.32251 6.23061 6.90056 6.12915L7.91621 5.95087L7.70684 4.94117C7.68025 4.81291 7.63911 4.69852 7.58766 4.5966C7.66986 4.44406 7.72209 4.26395 7.72443 4.05779L7.73549 3.08341L6.76172 3.04714L5.68959 3.0072L5.68931 2.43903L8.72097 2.65615L7.73648 1.97678L47.7509 2.18013C47.9212 2.218 48.1034 2.24016 48.2403 2.25531C48.3052 2.26249 48.3726 2.26926 48.4412 2.27567L48.3395 2.71821C48.2712 3.01571 48.2967 3.32467 48.4275 3.60895C48.55 3.87515 48.7364 4.05876 48.8946 4.17991C49.021 4.27671 49.1597 4.35597 49.2955 4.42113L48.1651 5.33365L48.853 5.54046C48.8203 5.55334 48.788 5.56701 48.7563 5.58151C48.6479 5.63112 48.4699 5.72409 48.3126 5.88867C48.137 6.07231 47.9364 6.40971 48.01 6.84994L48.0711 7.21513L47.1631 7.4503L48.8374 8.15945L49.9852 9.15057L48.929 9.2185L48.1777 9.26682L48.0164 10.0021C47.983 10.1543 47.9301 10.416 47.9714 10.6809C47.9745 10.701 47.9783 10.7221 47.9829 10.7441C43.7726 10.6691 39.5773 10.6865 35.3943 10.7039C27.1489 10.7382 18.9511 10.7723 10.7797 10.0972L10.7794 10.0971C9.64792 10.004 8.38733 9.89702 7.21569 9.68296C6.3333 9.52175 5.57046 9.31093 4.98155 9.03982L4.95112 8.34454C4.66114 8.30355 4.22268 8.16734 3.75367 7.97139C3.30226 7.7828 2.90484 7.57354 2.67666 7.42176C2.67446 7.41657 2.67178 7.40998 2.66861 7.40177C2.66134 7.38295 2.65532 7.36604 2.64514 7.33746C2.64259 7.33029 2.63977 7.32237 2.6366 7.31351C2.62382 7.27772 2.60198 7.21676 2.57446 7.15312ZM3.17026 6.32603C3.17019 6.3262 3.16716 6.32802 3.16141 6.33096C3.16746 6.32732 3.17034 6.32585 3.17026 6.32603ZM6.29085 3.27053C6.29104 3.27066 6.28759 3.27141 6.27994 3.27241C6.28684 3.27091 6.29065 3.27041 6.29085 3.27053ZM49.7498 1.99033L49.6185 1.97324L49.7728 1.70827C49.7353 1.79723 49.7162 1.89577 49.7498 1.99033Z" fill="white" stroke="black" stroke-width="2"/>
</svg>
