<svg width="390" height="9" viewBox="0 0 390 9" fill="none" xmlns="http://www.w3.org/2000/svg">
<path d="M-21 2.09353L-1.82417 1.56626C-3.10895 0.134384 -15.3239 2.20726 -13.3105 0.0258404L74.0162 -1.45233e-08C78.5417 0.0206769 82.7413 0.532406 87.286 0.558252C190.682 1.17856 294.462 1.26645 398.088 1.53525C401.309 1.93845 406.065 2.79653 402.786 3.62878C406.525 4.63678 404.778 4.98772 404.778 4.98772L406.005 5.25023C406.005 5.25023 410.051 5.97057 406.619 6.03777C286.923 8.33808 253.886 9.45971 133.308 8.82389C95.5699 8.62229 57.084 8.35346 20.2664 6.73032C8.24317 6.20306 -4.24029 6.15656 -15.2089 4.65749L-11.3737 3.12221L-20.9616 2.08836L-21 2.09353Z" fill="#BC002D"/>
</svg>
