<svg width="921" height="66" viewBox="0 0 921 66" fill="none" xmlns="http://www.w3.org/2000/svg">
<path d="M0.0926485 15.913C-1.01805 14.0048 8.33037 13.8112 12.8657 13.5208C27.3511 12.5806 45.2147 12.622 60.2555 11.7509L18.6506 10.3681L50.9996 8.98536L41.7901 6.24753C99.5002 5.40405 157.488 1.50469 215.105 0.647383C360.098 -1.53737 506.154 2.41733 650.129 3.52354C698.583 3.89688 864.586 0.813274 895.917 4.75413C898.925 5.1413 913.688 8.21101 911.79 8.98536C897.675 11.2254 873.564 8.51522 865.511 13.1336L921 11.7786L860.837 15.913C861.115 18.2498 857.737 18.8583 866.668 18.3743C886.291 17.2958 907.348 15.5258 920.954 21.4163C900.498 24.085 870.371 20.8079 856.209 26.9473L916.372 28.3439C919.01 32.2157 911.605 31.0403 902.442 31.1095L907.116 33.8335L879.395 37.9956L902.535 39.406L893.279 43.5267L916.372 44.9094L897.907 47.6749L921 49.7628C916.696 51.4498 914.937 53.0538 908.829 54.4228C824.739 73.3389 563.541 63.5489 456.081 62.8437C325.388 61.9864 195.066 63.9914 64.837 65.6507L87.9302 60.1473C64.837 60.4792 46.2791 62.5395 23.1859 60.1197L58.5431 57.5754L74.0465 54.6163L4.67423 51.8232C3.00819 46.0848 34.6633 48.3386 47.39 47.3154C55.674 46.6517 78.2579 43.2777 83.3023 40.7749L69.3726 40.0698L81.081 38.0094C92.4194 34.11 25.1295 35.2716 18.5116 35.2163L28.6468 32.1051L74.0005 26.9473L4.62791 29.0077C15.596 25.3158 33.2749 27.6249 47.6677 26.657C60.9035 25.7582 72.427 20.642 92.5121 22.7715L64.7907 21.3887L92.5582 15.8715H0L0.0926485 15.913Z" fill="#162F0E"/>
</svg>
