<svg width="1327" height="12" viewBox="0 0 1327 12" fill="none" xmlns="http://www.w3.org/2000/svg">
<path d="M0 2.74198L57.7052 2.05139C53.839 0.176008 17.0808 2.89093 23.1398 0.0338435L285.929 -4.76836e-07C299.548 0.0270809 312.185 0.697315 325.861 0.731167C637.008 1.54361 949.308 1.65871 1261.15 2.01077C1270.84 2.53886 1285.15 3.66273 1275.28 4.75275C1295.54 4.58349 1323.15 5.91061 1323.61 9.25516C1333.94 9.16714 1316.69 10.4806 1323.61 9.25516C963.418 12.268 827.204 12.3897 464.354 11.557C350.79 11.2929 234.976 10.9408 124.182 8.81496C88.0005 8.12438 50.4345 8.06349 17.4271 6.10009L28.9681 4.08927L0.115523 2.7352L0 2.74198Z" fill="#162F0E"/>
</svg>
