<svg width="55" height="55" viewBox="0 0 55 55" fill="none" xmlns="http://www.w3.org/2000/svg">
<path d="M27.4993 2.29206C20.8844 2.22484 14.5133 4.78679 9.78644 9.41485C5.05955 14.0429 2.36357 20.3584 2.29102 26.9733C2.3165 32.201 3.99818 37.2861 7.09449 41.4982C10.1908 45.7104 14.5424 48.8328 19.5243 50.4171C20.7848 50.6462 21.2431 49.89 21.2431 49.2254C21.2431 48.5608 21.2431 47.0942 21.2431 45.0317C14.2306 46.5212 12.741 41.7316 12.741 41.7316C12.2742 40.2281 11.2818 38.9428 9.94518 38.1108C7.65352 36.5983 10.1285 36.6212 10.1285 36.6212C10.9206 36.7271 11.6785 37.011 12.3453 37.4515C13.012 37.8921 13.5704 38.4779 13.9785 39.165C14.6897 40.3982 15.8566 41.3029 17.2281 41.6843C18.5996 42.0658 20.0661 41.8935 21.3118 41.2046C21.44 39.9496 22.0083 38.7805 22.916 37.9046C17.3243 37.2858 11.4577 35.1775 11.4577 25.7129C11.4077 23.244 12.3199 20.8525 14.0014 19.0441C13.2356 16.9245 13.326 14.5899 14.2535 12.5358C14.2535 12.5358 16.3848 11.8712 21.1285 15.0566C25.2579 13.9563 29.6033 13.9563 33.7327 15.0566C38.5452 11.8712 40.6077 12.5358 40.6077 12.5358C41.5351 14.5899 41.6256 16.9245 40.8598 19.0441C42.5803 20.8194 43.542 23.1948 43.541 25.6671C43.541 35.1546 37.6285 37.24 32.0827 37.8587C32.6899 38.4483 33.159 39.1651 33.4562 39.9576C33.7534 40.7501 33.8713 41.5986 33.8014 42.4421V49.2025C33.8014 49.2025 34.2598 50.6462 35.5202 50.3941C40.488 48.8001 44.8249 45.6769 47.9117 41.4707C50.9984 37.2645 52.677 32.1905 52.7077 26.9733C52.6351 20.3584 49.9391 14.0429 45.2122 9.41485C40.4854 4.78679 34.1143 2.22484 27.4993 2.29206Z" fill="black"/>
</svg>
