<svg width="572" height="171" viewBox="0 0 572 171" fill="none" xmlns="http://www.w3.org/2000/svg">
<g clip-path="url(#clip0_420_602)">
<path d="M286 1.16724H1.07227V169.78H286V1.16724Z" fill="#2F2A85"/>
<path d="M570.816 1.02417H286V169.888H570.816V1.02417Z" fill="white"/>
<path d="M569.728 2.2733V168.727H2.27231V2.2733H569.728ZM572 0H0V171H572V0Z" fill="#2F2A85"/>
<path d="M92.4916 109.931C88.6319 107.219 84.0289 105.765 79.3122 105.77C76.2674 105.745 73.2475 106.321 70.4256 107.465C67.6037 108.609 65.0353 110.299 62.8674 112.439C60.539 114.755 58.7377 117.546 57.5866 120.622L57.1162 121.867H67.228L67.4939 121.448C68.0192 120.624 68.6342 119.862 69.3276 119.174C70.8171 117.73 72.6056 116.631 74.5665 115.955C76.5274 115.279 78.6129 115.042 80.6755 115.261C82.7381 115.48 84.7273 116.15 86.5025 117.223C88.2778 118.296 89.7956 119.747 90.9487 121.472L91.2168 121.873H101.424L100.923 120.613C99.2157 116.304 96.2811 112.592 92.4836 109.937" fill="white"/>
<path d="M52.6872 68.8299C50.429 66.4727 47.6816 64.6394 44.6387 63.4592L43.415 62.9807V73.2685L43.8275 73.5379C44.6417 74.0752 45.3942 74.7008 46.0714 75.4032C48.6457 78.1494 50.0528 81.7889 49.9957 85.5535C50 87.8802 49.4394 90.1731 48.3622 92.2352C47.285 94.2973 45.7234 96.0668 43.8116 97.3917L43.415 97.6633V108.047L44.6546 107.535C48.9235 105.773 52.576 102.786 55.1527 98.9523C58.1974 94.3892 59.6108 88.9302 59.1632 83.4621C58.7156 77.994 56.4334 72.8367 52.6872 68.8299Z" fill="white"/>
<path d="M66.1777 61.07C70.0378 63.7815 74.6406 65.2344 79.3571 65.2301C82.4019 65.2557 85.4217 64.6799 88.2436 63.5357C91.0655 62.3916 93.634 60.7016 95.8019 58.5625C98.1294 56.2458 99.9306 53.4545 101.083 50.3787L101.553 49.1352H91.4413L91.1754 49.5535C90.6479 50.3791 90.0302 51.1435 89.3337 51.8324C87.8442 53.2765 86.0558 54.3756 84.0948 55.0518C82.1339 55.7281 80.0484 55.965 77.9858 55.7459C75.9233 55.5267 73.934 54.8569 72.1588 53.7837C70.3836 52.7105 68.8657 51.2601 67.7127 49.5353L67.4445 49.134H57.2373L57.7384 50.3934C59.4462 54.702 62.3807 58.4143 66.1777 61.07Z" fill="white"/>
<path d="M114.858 73.6096L115.254 73.3357V62.9592L114.014 63.4684C109.746 65.2313 106.093 68.2169 103.515 72.0502C100.471 76.6137 99.058 82.0728 99.5062 87.5409C99.9544 93.0091 102.237 98.165 105.984 102.171C108.241 104.529 110.987 106.362 114.029 107.541L115.254 108.019V97.7328L114.844 97.4623C114.028 96.9259 113.275 96.3003 112.599 95.597C111.176 94.0634 110.097 92.2438 109.434 90.2597C108.77 88.2755 108.538 86.1726 108.752 84.0914C108.966 82.0102 109.621 79.9986 110.674 78.191C111.727 76.3835 113.154 74.8216 114.858 73.6096Z" fill="white"/>
<path d="M88.4872 85.5784C88.4575 87.4021 87.8897 89.1763 86.8552 90.6782C85.8208 92.1802 84.3658 93.3428 82.673 94.0201C80.9802 94.6974 79.1251 94.8592 77.3407 94.4851C75.5563 94.111 73.9222 93.2178 72.6436 91.9176C71.365 90.6174 70.4989 88.9682 70.1542 87.1771C69.8095 85.3861 70.0014 83.533 70.706 81.8508C71.4105 80.1686 72.5962 78.7321 74.1142 77.7219C75.6321 76.7116 77.4146 76.1726 79.2378 76.1726C81.711 76.193 84.0749 77.1954 85.8094 78.9593C87.544 80.7232 88.5072 83.1041 88.4872 85.5784Z" fill="white"/>
<path d="M138.292 62.9318C139.058 62.1168 139.471 61.0313 139.439 59.9129V49.2659H143.22V59.9129C143.237 60.9345 143.051 61.9495 142.673 62.8985C142.294 63.8475 141.73 64.7115 141.014 65.4402C140.298 66.169 139.444 66.7477 138.502 67.1428C137.56 67.5379 136.549 67.7414 135.528 67.7414C134.506 67.7414 133.495 67.5379 132.553 67.1428C131.611 66.7477 130.758 66.169 130.042 65.4402C129.326 64.7115 128.762 63.8475 128.383 62.8985C128.005 61.9495 127.819 60.9345 127.836 59.9129V49.2659H131.617V59.9129C131.588 61.0302 132.002 62.1136 132.769 62.9261C133.119 63.3103 133.546 63.6173 134.021 63.8275C134.496 64.0378 135.01 64.1466 135.53 64.1471C136.05 64.1477 136.564 64.0399 137.04 63.8306C137.515 63.6214 137.941 63.3153 138.292 62.9318Z" fill="white"/>
<path d="M150.005 56.1926C150.136 56.0205 150.277 55.8554 150.426 55.6982C150.782 55.3783 151.182 55.1104 151.613 54.9025C152.203 54.5729 152.868 54.4 153.544 54.4001C154.194 54.3798 154.841 54.5029 155.438 54.7606C156.035 55.0183 156.568 55.4044 156.999 55.8914C157.936 57.0154 158.413 58.4518 158.335 59.9129V67.2295H154.935V60.3016C154.951 59.9627 154.9 59.6239 154.785 59.3048C154.669 58.9857 154.492 58.6925 154.263 58.442C154.042 58.2081 153.773 58.024 153.475 57.9019C153.177 57.7798 152.856 57.7226 152.534 57.7339C152.189 57.7186 151.845 57.7796 151.527 57.9126C151.208 58.0456 150.923 58.2474 150.691 58.5034C150.201 59.1225 149.958 59.902 150.01 60.6903V67.2295H146.61V54.6513H150.005V56.1926Z" fill="white"/>
<path d="M164.569 52.4587C164.37 52.6399 164.137 52.7796 163.883 52.87C163.63 52.9603 163.361 52.9994 163.092 52.985C162.839 52.9977 162.587 52.9574 162.35 52.8668C162.114 52.7762 161.899 52.6372 161.72 52.4587C161.39 52.0678 161.209 51.5724 161.21 51.0607C161.211 50.5491 161.394 50.0544 161.725 49.6648C161.904 49.4882 162.118 49.3503 162.352 49.2598C162.587 49.1692 162.837 49.128 163.089 49.1386C163.357 49.1244 163.626 49.1636 163.88 49.2539C164.133 49.3443 164.366 49.4839 164.566 49.6648C164.913 50.0469 165.106 50.545 165.106 51.0618C165.106 51.5785 164.913 52.0767 164.566 52.4587M164.86 67.2352H161.451V54.6513H164.86V67.2352Z" fill="white"/>
<path d="M171.139 67.2295L166.471 54.6501H170.005L172.901 62.9954L175.807 54.6501H179.332L174.675 67.2295H171.139Z" fill="white"/>
<path d="M183.588 62.0941C183.723 62.7826 184.104 63.3984 184.659 63.8275C185.289 64.3141 186.07 64.5646 186.866 64.5356C187.479 64.5413 188.087 64.4109 188.645 64.1537C189.077 63.978 189.47 63.7162 189.798 63.3842L190.155 62.9966L191.915 65.3017L191.687 65.5291C191.479 65.7204 191.259 65.8988 191.028 66.0633C190.69 66.315 190.331 66.5389 189.956 66.7328C189.487 66.9612 188.993 67.1358 188.485 67.2534C187.874 67.4052 187.247 67.4815 186.618 67.4807C185.324 67.4857 184.057 67.1066 182.979 66.3914C181.9 65.6762 181.058 64.657 180.558 63.4628C180.058 62.2686 179.924 60.953 180.172 59.6823C180.42 58.4117 181.039 57.2431 181.95 56.3245C182.534 55.7076 183.24 55.2183 184.022 54.8874C184.804 54.5564 185.646 54.3909 186.495 54.4013C187.314 54.3795 188.129 54.528 188.888 54.8373C189.647 55.1466 190.334 55.61 190.905 56.1983C191.486 56.7899 191.941 57.4928 192.244 58.2649C192.547 59.037 192.691 59.8624 192.667 60.6915L192.543 62.0941H183.588ZM184.653 58.0022C184.141 58.4401 183.771 59.0199 183.588 59.6685H189.268C189.15 59.0268 188.818 58.4441 188.325 58.0158C187.819 57.5766 187.166 57.3438 186.496 57.3634C185.825 57.3451 185.17 57.5722 184.655 58.0022" fill="white"/>
<path d="M202.354 57.9965C201.984 57.8977 201.601 57.8514 201.218 57.859C200.822 57.8401 200.427 57.9077 200.06 58.0571C199.693 58.2065 199.363 58.434 199.093 58.7239C198.53 59.4228 198.251 60.3083 198.31 61.2041V67.2284H194.911V54.6513H198.31V56.1926C198.41 56.079 198.549 55.9221 198.731 55.738C199.089 55.4335 199.489 55.182 199.918 54.9912C200.516 54.686 201.178 54.5275 201.85 54.5286H202.355L202.354 57.9965Z" fill="white"/>
<path d="M210.775 58.3716C210.7 58.275 210.62 58.1831 210.534 58.0966C210.324 57.9132 210.09 57.7601 209.837 57.6419C209.505 57.4601 209.132 57.3637 208.753 57.3611C208.361 57.3395 207.971 57.4473 207.646 57.668C207.526 57.7441 207.426 57.8482 207.355 57.9714C207.284 58.0945 207.244 58.233 207.239 58.375C207.25 58.5512 207.31 58.7208 207.412 58.8647C207.514 59.0085 207.654 59.1208 207.817 59.1889C208.265 59.433 208.738 59.6285 209.228 59.772C209.784 59.9436 210.343 60.1482 210.91 60.3858C211.484 60.6296 211.978 61.0287 212.338 61.5383C212.739 62.1166 212.942 62.8093 212.916 63.5127C212.924 64.0526 212.811 64.5874 212.584 65.0776C212.358 65.5677 212.024 66.0005 211.607 66.3441C210.585 67.1514 209.303 67.5558 208.002 67.4807C207.371 67.4839 206.743 67.4041 206.132 67.2432C205.627 67.119 205.141 66.9251 204.689 66.6669C204.353 66.4638 204.029 66.2394 203.721 65.9951C203.505 65.8292 203.306 65.6427 203.126 65.4382L202.952 65.1756L204.85 63.2581C204.944 63.3938 205.049 63.5216 205.164 63.64C205.439 63.8873 205.744 64.0975 206.073 64.2652C206.506 64.5215 206.999 64.6584 207.501 64.6619C207.934 64.6922 208.365 64.5792 208.727 64.3402C208.868 64.2405 208.98 64.1054 209.051 63.9485C209.123 63.7916 209.152 63.6185 209.135 63.4469C209.118 63.2752 209.056 63.1111 208.955 62.9711C208.855 62.8312 208.719 62.7204 208.561 62.65C208.111 62.3929 207.632 62.191 207.133 62.0487C206.561 61.8751 206 61.6683 205.452 61.4292C204.891 61.1821 204.405 60.7931 204.041 60.3005C203.638 59.739 203.434 59.0588 203.462 58.3682C203.478 57.8375 203.61 57.3166 203.849 56.8426C204.088 56.3686 204.428 55.9531 204.846 55.6255C205.787 54.8003 207.004 54.3614 208.255 54.3968C209.067 54.3879 209.872 54.5546 210.614 54.8855C211.17 55.1036 211.678 55.4271 212.111 55.838L212.542 56.3257L210.775 58.3716Z" fill="white"/>
<path d="M218.393 52.4587C218.194 52.6399 217.961 52.7796 217.707 52.87C217.454 52.9603 217.185 52.9994 216.916 52.985C216.663 52.9977 216.411 52.9574 216.174 52.8668C215.938 52.7762 215.723 52.6372 215.544 52.4587C215.213 52.0685 215.031 51.5735 215.031 51.0618C215.031 50.5501 215.213 50.055 215.544 49.6648C215.723 49.4883 215.936 49.3505 216.171 49.26C216.405 49.1694 216.656 49.1281 216.907 49.1386C217.176 49.1244 217.445 49.1636 217.698 49.2539C217.952 49.3443 218.185 49.4839 218.384 49.6648C218.733 50.0465 218.926 50.5448 218.926 51.0618C218.926 51.5788 218.733 52.0771 218.384 52.4587M218.678 67.2352H215.27V54.6513H218.678V67.2352Z" fill="white"/>
<path d="M223.327 50.9436H226.355V54.9151H228.867V57.9954H226.355V62.9966C226.352 63.1839 226.388 63.3698 226.461 63.5423C226.534 63.7148 226.642 63.87 226.779 63.998C226.921 64.1357 227.09 64.2433 227.275 64.3145C227.46 64.3858 227.658 64.4192 227.856 64.4129C228.074 64.4132 228.291 64.3896 228.504 64.3424C228.667 64.3115 228.826 64.2631 228.978 64.1981L229.127 64.1481V67.1034C228.397 67.3706 227.623 67.4982 226.846 67.4796C224.243 67.4796 222.942 66.0258 222.942 63.1183V57.9954H220.798V54.9151H221.934C222.122 54.9158 222.308 54.8746 222.479 54.7946C222.649 54.7146 222.799 54.5977 222.919 54.4524C223.2 54.116 223.345 53.6867 223.326 53.2487L223.327 50.9436Z" fill="white"/>
<path d="M233.513 62.0942C233.648 62.783 234.028 63.3993 234.583 63.8287C235.213 64.3149 235.994 64.565 236.789 64.5357C237.403 64.5414 238.011 64.411 238.568 64.1538C239.001 63.9777 239.393 63.7159 239.722 63.3843L240.078 62.9944L241.838 65.2996L241.611 65.5269C241.402 65.7174 241.182 65.8951 240.952 66.0588C240.613 66.3109 240.255 66.5356 239.881 66.7306C239.41 66.9589 238.914 67.1328 238.404 67.2489C237.793 67.4012 237.166 67.4776 236.537 67.4762C235.243 67.4804 233.978 67.1009 232.9 66.3857C231.822 65.6705 230.98 64.6516 230.48 63.4579C229.981 62.2641 229.846 60.949 230.093 59.6788C230.341 58.4085 230.959 57.2401 231.87 56.3212C232.454 55.7045 233.159 55.2154 233.941 54.8844C234.723 54.5535 235.565 54.3878 236.414 54.398C237.234 54.3752 238.049 54.5234 238.808 54.8329C239.567 55.1425 240.254 55.6068 240.824 56.1961C241.405 56.7871 241.86 57.4894 242.163 58.261C242.466 59.0325 242.61 59.8574 242.586 60.6859L242.464 62.0908L233.513 62.0942ZM234.577 58.0023C234.065 58.438 233.695 59.016 233.513 59.6629H239.193C239.076 59.0203 238.744 58.4369 238.25 58.0091C237.744 57.5704 237.091 57.338 236.421 57.3578C235.75 57.3391 235.095 57.5658 234.579 57.9954M237.173 49.1387H240.709L237.937 52.9851H235.154L237.173 49.1387Z" fill="white"/>
<path d="M144.229 84.6691V91.3344C144.164 91.4185 144.06 91.5401 143.916 91.7038C143.619 92.0044 143.303 92.285 142.969 92.5438C142.481 92.9373 141.961 93.2894 141.415 93.5963C140.734 93.9541 140.015 94.2336 139.271 94.4295C138.384 94.6811 137.466 94.8077 136.544 94.8057C135.281 94.8337 134.025 94.6043 132.853 94.1314C131.681 93.6585 130.618 92.9521 129.727 92.055C128.847 91.1922 128.148 90.1625 127.671 89.0261C127.194 87.8897 126.948 86.6695 126.948 85.4369C126.948 84.2043 127.194 82.9841 127.671 81.8477C128.148 80.7113 128.847 79.6815 129.727 78.8187C130.96 77.6303 132.483 76.7859 134.144 76.3697C135.805 75.9535 137.546 75.98 139.194 76.4465C139.921 76.6438 140.616 76.9451 141.257 77.3411C141.755 77.6612 142.232 78.0124 142.685 78.3925C143.014 78.6559 143.314 78.9543 143.578 79.2825L143.863 79.6587L141.459 82.1025C141.411 82.0343 141.346 81.9422 141.257 81.8206C141.08 81.5991 140.887 81.3912 140.679 81.1989C140.38 80.9092 140.051 80.6513 139.699 80.4294C139.261 80.1698 138.794 79.9641 138.306 79.8167C137.289 79.4864 136.2 79.4431 135.159 79.6915C134.118 79.94 133.166 80.4706 132.407 81.225C131.338 82.3657 130.743 83.8708 130.743 85.4346C130.743 86.9984 131.338 88.5035 132.407 89.6442C132.943 90.1965 133.587 90.6318 134.299 90.9227C135.011 91.2136 135.775 91.3538 136.544 91.3344C137.279 91.3431 138.01 91.2223 138.703 90.9775C139.199 90.823 139.663 90.5792 140.072 90.258L140.454 89.9318V87.4891H137.299V84.6691H144.229Z" fill="white"/>
<path d="M155.685 93.1383C155.554 93.2903 155.413 93.4345 155.265 93.5702C154.903 93.8522 154.504 94.0818 154.078 94.2522C153.472 94.5306 152.813 94.6734 152.146 94.6705C151.5 94.6923 150.857 94.5744 150.261 94.3249C149.665 94.0754 149.129 93.7001 148.691 93.2247C147.765 92.1617 147.286 90.7811 147.355 89.3726V81.8389H150.757V89.0305C150.747 89.3517 150.802 89.6717 150.919 89.971C151.037 90.2702 151.213 90.5427 151.439 90.7718C151.662 90.9983 151.93 91.1763 152.226 91.2948C152.521 91.4133 152.838 91.4697 153.156 91.4606C153.502 91.4763 153.846 91.4157 154.166 91.2831C154.485 91.1505 154.771 90.9491 155.004 90.6934C155.494 90.0759 155.737 89.2979 155.685 88.511V81.8389H159.085V94.417H155.685V93.1383Z" fill="white"/>
<path d="M169.015 85.5591C168.941 85.4621 168.86 85.3702 168.774 85.284C168.564 85.1004 168.33 84.9473 168.077 84.8293C167.745 84.6476 167.373 84.5512 166.995 84.5486C166.602 84.527 166.212 84.6344 165.886 84.8544C165.766 84.9308 165.666 85.0351 165.595 85.1584C165.525 85.2817 165.485 85.4204 165.479 85.5625C165.49 85.7386 165.55 85.9082 165.652 86.052C165.754 86.1958 165.895 86.3082 166.057 86.3763C166.506 86.62 166.979 86.8154 167.469 86.9594C168.024 87.1311 168.583 87.3357 169.15 87.5732C169.724 87.817 170.219 88.2161 170.579 88.7258C170.98 89.3036 171.183 89.996 171.158 90.699C171.165 91.2392 171.052 91.7742 170.825 92.2645C170.598 92.7548 170.264 93.1879 169.848 93.5315C168.826 94.3391 167.543 94.7435 166.243 94.6682C165.612 94.6712 164.983 94.5914 164.372 94.4306C163.867 94.3066 163.381 94.1122 162.93 93.8532C162.593 93.6498 162.27 93.4258 161.962 93.1826C161.745 93.0157 161.545 92.8288 161.364 92.6245L161.192 92.3631L163.09 90.4455C163.185 90.5806 163.29 90.7082 163.404 90.8274C163.679 91.0748 163.984 91.285 164.313 91.4526C164.746 91.709 165.239 91.8458 165.742 91.8493C166.175 91.8795 166.606 91.7665 166.969 91.5276C167.109 91.428 167.221 91.2928 167.293 91.1359C167.364 90.979 167.393 90.806 167.376 90.6343C167.36 90.4627 167.298 90.2985 167.197 90.1586C167.096 90.0186 166.96 89.9078 166.803 89.8374C166.352 89.58 165.872 89.3781 165.373 89.2361C164.801 89.0626 164.24 88.8557 163.692 88.6167C163.132 88.3689 162.646 87.98 162.281 87.488C161.879 86.9262 161.675 86.2462 161.703 85.5557C161.718 85.0246 161.85 84.5035 162.089 84.0292C162.328 83.5549 162.669 83.1389 163.086 82.8106C164.028 81.9873 165.245 81.5494 166.495 81.5842C167.307 81.5755 168.112 81.7418 168.855 82.0718C169.41 82.2907 169.918 82.6145 170.351 83.0255L170.783 83.5131L169.015 85.5591Z" fill="white"/>
<path d="M174.909 78.1299H177.939V82.1082H180.453V85.1896H177.94V90.1909C177.937 90.3786 177.974 90.5648 178.047 90.7376C178.12 90.9104 178.228 91.0661 178.365 91.1945C178.508 91.3316 178.677 91.4387 178.862 91.5095C179.047 91.5804 179.244 91.6136 179.442 91.6071C179.66 91.6079 179.878 91.5846 180.091 91.5378C180.254 91.5063 180.412 91.4579 180.565 91.3935L180.714 91.3423V94.2976C179.984 94.5654 179.21 94.693 178.432 94.6738C175.83 94.6738 174.528 93.2208 174.528 90.3148V85.1839H172.387V82.1025H173.523C173.711 82.1034 173.898 82.0622 174.068 81.982C174.239 81.9018 174.389 81.7845 174.509 81.6387C174.79 81.3023 174.935 80.873 174.916 80.435L174.909 78.1299Z" fill="white"/>
<path d="M189.634 93.1382C189.504 93.2895 189.366 93.434 189.222 93.5713C188.871 93.8495 188.483 94.0789 188.071 94.2533C187.284 94.6121 186.412 94.7435 185.554 94.6329C184.696 94.5222 183.886 94.1738 183.216 93.627C182.85 93.3138 182.556 92.9243 182.356 92.4856C182.156 92.047 182.054 91.5698 182.058 91.0877C182.03 90.1365 182.38 89.2129 183.032 88.52C183.759 87.7946 184.701 87.3245 185.718 87.1799L189.634 86.4661C189.642 86.2223 189.594 85.9799 189.496 85.7567C189.398 85.5334 189.251 85.335 189.066 85.176C188.624 84.8182 188.065 84.6375 187.497 84.669C186.97 84.6622 186.448 84.7708 185.968 84.9873C185.601 85.1367 185.269 85.3613 184.994 85.6465L184.712 85.9478L182.826 84.0302C182.877 83.962 182.94 83.8722 183.031 83.7597C183.209 83.5517 183.402 83.3576 183.609 83.1789C183.911 82.9019 184.239 82.6559 184.59 82.4446C185.029 82.1946 185.496 81.997 185.981 81.8558C186.552 81.6775 187.146 81.5866 187.744 81.5864C188.442 81.5587 189.139 81.67 189.795 81.9139C190.45 82.1578 191.05 82.5294 191.561 83.0072C192.044 83.4669 192.425 84.0229 192.68 84.6393C192.934 85.2557 193.056 85.9188 193.038 86.5854V94.4158H189.636L189.634 93.1382ZM188.952 91.1025C189.436 90.5237 189.68 89.782 189.634 89.0292V88.6473L186.863 89.1599C185.934 89.3115 185.47 89.7836 185.471 90.5762C185.471 91.4264 186.017 91.8519 187.108 91.8527C187.451 91.869 187.793 91.8109 188.111 91.6823C188.43 91.5538 188.716 91.358 188.951 91.1082" fill="white"/>
<path d="M199.189 94.4158L194.521 81.8376H198.055L200.951 90.1818L203.857 81.8376H207.379L202.726 94.4158H199.189Z" fill="white"/>
<path d="M211.635 89.2805C211.77 89.9698 212.151 90.5864 212.707 91.0151C213.337 91.5026 214.117 91.7536 214.912 91.7243C215.527 91.7294 216.134 91.5982 216.692 91.3401C217.124 91.1648 217.517 90.903 217.845 90.5706L218.2 90.183L219.963 92.4881L219.735 92.7155C219.528 92.9082 219.308 93.0867 219.076 93.2497C218.738 93.5023 218.379 93.7263 218.004 93.9192C217.536 94.1493 217.042 94.324 216.534 94.4398C215.923 94.592 215.296 94.6684 214.667 94.6671C213.373 94.6715 212.107 94.2922 211.029 93.5771C209.951 92.8619 209.109 91.8431 208.609 90.6493C208.11 89.4554 207.975 88.1403 208.222 86.8699C208.47 85.5995 209.088 84.431 209.999 83.512C210.583 82.8958 211.288 82.4069 212.07 82.076C212.852 81.745 213.694 81.5792 214.543 81.5888C215.363 81.5668 216.178 81.7152 216.937 82.0248C217.696 82.3343 218.382 82.7982 218.953 83.387C219.534 83.9782 219.99 84.6809 220.293 85.4529C220.595 86.2248 220.739 87.0501 220.715 87.879L220.592 89.2817L211.635 89.2805ZM212.701 85.1886C212.189 85.6263 211.818 86.2062 211.635 86.8549H217.315C217.197 86.2128 216.865 85.6299 216.372 85.2011C215.865 84.7625 215.212 84.5301 214.542 84.5498C213.871 84.5309 213.217 84.7581 212.701 85.1886Z" fill="white"/>
<path d="M127.957 103.639V121.602H141.213V118.146H131.751V114.163H138.933V110.704H131.751V107.109H140.954V103.639H127.957Z" fill="white"/>
<path d="M146.937 106.834C146.738 107.015 146.505 107.155 146.251 107.246C145.998 107.336 145.729 107.375 145.46 107.361C145.207 107.374 144.954 107.333 144.718 107.243C144.482 107.152 144.267 107.013 144.087 106.834C143.755 106.444 143.573 105.949 143.573 105.437C143.573 104.926 143.755 104.431 144.087 104.041C144.266 103.864 144.48 103.726 144.714 103.636C144.949 103.545 145.199 103.504 145.451 103.515C145.719 103.501 145.988 103.54 146.242 103.63C146.495 103.72 146.728 103.86 146.928 104.041C147.277 104.422 147.471 104.919 147.473 105.436C147.475 105.952 147.284 106.451 146.937 106.834ZM147.231 121.603H143.823V109.024H147.231V121.603Z" fill="white"/>
<path d="M157.287 112.495H154.514V121.61H151.106V112.501H149.344V109.414H151.106V107.743C151.106 104.839 152.411 103.386 155.021 103.384C155.397 103.384 155.773 103.418 156.144 103.484C156.439 103.532 156.732 103.599 157.018 103.685L157.289 103.772V106.72C156.893 106.539 156.46 106.454 156.025 106.47C155.625 106.457 155.235 106.604 154.942 106.877C154.803 107.003 154.693 107.157 154.618 107.328C154.544 107.5 154.507 107.686 154.51 107.873V109.414H157.282L157.287 112.495Z" fill="white"/>
<path d="M166.212 112.495H163.439V121.61H160.031V112.501H158.268V109.414H160.031V107.743C160.031 104.839 161.336 103.386 163.946 103.384C164.322 103.384 164.698 103.418 165.069 103.484C165.364 103.532 165.656 103.599 165.942 103.685L166.214 103.772V106.72C165.82 106.54 165.389 106.454 164.956 106.469C164.556 106.456 164.167 106.602 163.875 106.876C163.736 107.002 163.626 107.156 163.551 107.327C163.477 107.499 163.439 107.684 163.442 107.872V109.413H166.214L166.212 112.495Z" fill="white"/>
<path d="M170.972 116.468C171.108 117.156 171.49 117.772 172.046 118.2C172.676 118.687 173.457 118.937 174.252 118.908C174.866 118.914 175.474 118.784 176.031 118.526C176.464 118.351 176.856 118.089 177.185 117.757L177.541 117.369L179.301 119.674L179.074 119.902C178.866 120.094 178.647 120.272 178.416 120.436C178.076 120.687 177.717 120.911 177.342 121.106C176.874 121.335 176.38 121.51 175.871 121.626C175.26 121.777 174.634 121.854 174.004 121.853C172.711 121.858 171.445 121.478 170.366 120.762C169.288 120.047 168.446 119.028 167.947 117.834C167.447 116.64 167.313 115.325 167.56 114.054C167.808 112.784 168.426 111.615 169.337 110.696C169.921 110.08 170.627 109.591 171.409 109.26C172.191 108.929 173.033 108.763 173.882 108.773C174.701 108.751 175.516 108.9 176.275 109.209C177.034 109.519 177.721 109.982 178.291 110.571C178.872 111.162 179.328 111.865 179.631 112.637C179.934 113.409 180.077 114.234 180.053 115.063L179.929 116.466L170.972 116.468ZM172.038 112.37C171.526 112.809 171.155 113.389 170.972 114.038H176.653C176.535 113.396 176.202 112.813 175.71 112.384C175.203 111.946 174.55 111.713 173.881 111.733C173.21 111.714 172.554 111.941 172.038 112.37Z" fill="white"/>
<path d="M185.835 103.639H182.422V121.602H185.835V103.639Z" fill="white"/>
<path d="M363.104 124.624H365.613L367.772 131.202C367.911 131.699 368.011 132.206 368.07 132.718C368.116 132.199 368.211 131.686 368.353 131.185L370.549 124.624H373.031L374.736 135.795H372.463L371.649 129.06C371.557 128.45 371.504 127.834 371.492 127.217C371.489 127.076 371.494 126.935 371.507 126.795C371.414 127.423 371.278 128.045 371.1 128.655L368.73 135.795H367.382L365.045 128.655C364.999 128.513 364.857 127.889 364.622 126.795V127.124C364.616 127.771 364.569 128.416 364.479 129.056L363.665 135.791H361.393L363.104 124.624Z" fill="#0D6F65"/>
<path d="M381.619 135.795L381.651 134.717C381.392 135.166 381.012 135.532 380.554 135.775C380.096 136.019 379.58 136.128 379.063 136.092C377.117 136.092 375.736 134.544 375.736 132.059C375.736 129.545 377.008 128.061 379.145 128.061C379.663 128.046 380.174 128.177 380.621 128.439C381.067 128.702 381.431 129.085 381.669 129.545V128.317H383.739V135.799L381.619 135.795ZM379.862 129.858C378.67 129.858 377.948 130.685 377.948 132.045C377.948 133.404 378.654 134.185 379.847 134.185C381.04 134.185 381.744 133.404 381.744 132.045C381.744 130.655 380.975 129.858 379.862 129.858Z" fill="#0D6F65"/>
<path d="M390.476 128.061C390.749 128.073 391.022 128.105 391.291 128.155L390.963 130.499C390.64 130.36 390.292 130.291 389.94 130.295C388.544 130.295 388.074 130.998 388.074 132.498V135.794H385.895V128.316H388.043L387.995 130.237C388.437 128.779 389.253 128.061 390.476 128.061Z" fill="#0D6F65"/>
<path d="M392.388 128.316H394.52V129.487C394.835 129.045 395.252 128.685 395.735 128.438C396.218 128.19 396.753 128.062 397.296 128.065C397.767 128.016 398.243 128.101 398.667 128.312C399.092 128.522 399.448 128.848 399.695 129.252C399.963 129.861 400.071 130.528 400.009 131.19V135.799H397.83V132.097C397.83 130.675 397.703 129.832 396.402 129.832C396.119 129.825 395.839 129.887 395.585 130.012C395.331 130.137 395.111 130.321 394.943 130.549C394.633 131.043 394.5 131.628 394.567 132.207V135.799H392.388V128.316Z" fill="#0D6F65"/>
<path d="M403.879 132.591C403.889 132.819 403.945 133.043 404.043 133.249C404.142 133.455 404.281 133.638 404.453 133.789C404.624 133.939 404.824 134.053 405.041 134.124C405.258 134.195 405.487 134.222 405.714 134.202C406.063 134.222 406.411 134.147 406.72 133.984C407.03 133.821 407.289 133.577 407.47 133.278L409.227 134.154C408.87 134.775 408.349 135.285 407.72 135.627C407.092 135.969 406.381 136.13 405.666 136.092C405.134 136.13 404.599 136.051 404.1 135.863C403.6 135.674 403.147 135.38 402.772 135C402.396 134.62 402.107 134.164 401.925 133.662C401.742 133.16 401.67 132.625 401.713 132.092C401.689 131.562 401.774 131.031 401.964 130.535C402.153 130.039 402.444 129.587 402.816 129.208C403.189 128.83 403.636 128.532 404.129 128.335C404.622 128.137 405.151 128.044 405.682 128.061C406.208 128.024 406.736 128.102 407.229 128.289C407.722 128.477 408.169 128.77 408.537 129.147C408.906 129.525 409.188 129.978 409.364 130.476C409.54 130.973 409.606 131.503 409.556 132.029C409.556 132.216 409.54 132.404 409.524 132.597L403.879 132.591ZM405.682 129.842C405.261 129.802 404.841 129.931 404.515 130.2C404.188 130.47 403.982 130.857 403.94 131.279H407.361C407.351 131.072 407.299 130.869 407.208 130.683C407.117 130.497 406.989 130.332 406.832 130.198C406.674 130.063 406.491 129.962 406.294 129.901C406.096 129.84 405.888 129.82 405.682 129.842Z" fill="#0D6F65"/>
<path d="M411.625 131.108H415.907V133.029H411.625V131.108Z" fill="#0D6F65"/>
<path d="M418.289 123.968H420.468V135.794H418.289V123.968Z" fill="#0D6F65"/>
<path d="M428.198 135.795L428.23 134.717C427.971 135.166 427.591 135.532 427.133 135.776C426.676 136.019 426.159 136.128 425.642 136.092C423.696 136.092 422.315 134.544 422.315 132.06C422.315 129.545 423.587 128.061 425.724 128.061C426.242 128.045 426.753 128.177 427.2 128.439C427.647 128.702 428.01 129.085 428.248 129.545V128.317H430.32V135.799L428.198 135.795ZM426.441 129.858C425.249 129.858 424.529 130.685 424.529 132.045C424.529 133.404 425.233 134.185 426.426 134.185C427.619 134.185 428.323 133.404 428.323 132.045C428.323 130.655 427.554 129.858 426.441 129.858Z" fill="#0D6F65"/>
<path d="M432.537 131.108H436.818V133.029H432.537V131.108Z" fill="#0D6F65"/>
<path d="M437.062 124.624H439.713L441.895 131.592C441.958 131.794 442.13 132.502 442.365 133.701C442.455 132.96 442.607 132.228 442.819 131.513L445.028 124.624H447.648L443.473 135.795H441.2L437.062 124.624Z" fill="#0D6F65"/>
<path d="M453.314 135.794L453.344 134.717C453.085 135.165 452.705 135.532 452.248 135.776C451.791 136.019 451.274 136.128 450.757 136.092C448.81 136.092 447.431 134.544 447.431 132.059C447.431 129.545 448.702 128.061 450.839 128.061C451.357 128.045 451.868 128.176 452.315 128.439C452.761 128.702 453.124 129.085 453.363 129.545V128.316H455.434V135.799L453.314 135.794ZM451.557 129.858C450.363 129.858 449.643 130.685 449.643 132.044C449.643 133.404 450.348 134.185 451.541 134.185C452.734 134.185 453.438 133.404 453.438 132.044C453.438 130.654 452.669 129.858 451.557 129.858Z" fill="#0D6F65"/>
<path d="M457.675 123.968H459.854V135.794H457.675V123.968Z" fill="#0D6F65"/>
<path d="M462.245 123.968H464.427V135.794H462.245V123.968Z" fill="#0D6F65"/>
<path d="M468.437 132.591C468.448 132.819 468.504 133.043 468.602 133.248C468.701 133.454 468.84 133.638 469.011 133.788C469.183 133.939 469.383 134.053 469.6 134.124C469.816 134.195 470.045 134.222 470.272 134.202C470.622 134.222 470.97 134.147 471.279 133.984C471.589 133.821 471.848 133.577 472.029 133.278L473.787 134.154C473.43 134.774 472.908 135.284 472.28 135.626C471.651 135.968 470.94 136.129 470.226 136.092C469.693 136.129 469.159 136.051 468.659 135.863C468.159 135.674 467.706 135.38 467.331 135C466.955 134.62 466.666 134.164 466.483 133.662C466.3 133.16 466.228 132.625 466.271 132.092C466.246 131.561 466.332 131.03 466.522 130.533C466.712 130.036 467.003 129.584 467.377 129.206C467.751 128.827 468.198 128.53 468.692 128.333C469.186 128.135 469.716 128.043 470.247 128.061C470.774 128.024 471.301 128.102 471.794 128.29C472.287 128.477 472.733 128.77 473.102 129.148C473.47 129.525 473.752 129.979 473.928 130.476C474.104 130.973 474.17 131.503 474.121 132.029C474.121 132.216 474.106 132.404 474.09 132.597L468.437 132.591ZM470.242 129.842C469.82 129.802 469.401 129.931 469.074 130.2C468.748 130.469 468.541 130.857 468.5 131.278H471.92C471.91 131.072 471.858 130.869 471.767 130.683C471.676 130.497 471.548 130.332 471.391 130.197C471.234 130.063 471.051 129.962 470.853 129.901C470.655 129.84 470.447 129.819 470.242 129.842ZM470.02 127.201H468.939L470.445 124.389H472.421L470.02 127.201Z" fill="#0D6F65"/>
<path d="M477.529 132.591C477.539 132.82 477.595 133.043 477.694 133.249C477.792 133.455 477.932 133.639 478.103 133.789C478.275 133.94 478.475 134.054 478.692 134.125C478.909 134.196 479.138 134.222 479.365 134.202C479.714 134.222 480.063 134.147 480.372 133.984C480.682 133.821 480.941 133.577 481.123 133.278L482.877 134.154C482.521 134.775 482 135.286 481.372 135.628C480.743 135.97 480.032 136.131 479.317 136.092C478.785 136.13 478.251 136.051 477.751 135.863C477.252 135.674 476.799 135.38 476.423 135C476.048 134.62 475.759 134.164 475.577 133.662C475.394 133.16 475.322 132.625 475.366 132.092C475.341 131.562 475.426 131.032 475.615 130.535C475.805 130.039 476.095 129.587 476.467 129.209C476.84 128.83 477.287 128.532 477.78 128.335C478.273 128.137 478.801 128.044 479.332 128.061C479.859 128.024 480.387 128.102 480.88 128.289C481.373 128.477 481.819 128.77 482.188 129.147C482.557 129.525 482.839 129.978 483.015 130.476C483.191 130.973 483.257 131.503 483.208 132.029C483.208 132.216 483.192 132.404 483.176 132.597L477.529 132.591ZM479.332 129.842C478.911 129.802 478.492 129.931 478.166 130.201C477.84 130.47 477.634 130.858 477.593 131.279H481.01C481.001 131.072 480.949 130.869 480.858 130.683C480.767 130.497 480.639 130.332 480.482 130.197C480.325 130.063 480.141 129.962 479.944 129.901C479.746 129.839 479.538 129.819 479.332 129.842Z" fill="#0D6F65"/>
<path d="M362.406 56.4529V111.949H381.859V71.5294C377.28 64.4344 370.418 59.1156 362.406 56.4529Z" fill="url(#paint0_linear_420_602)"/>
<path d="M426.999 75.3848C426.999 82.1536 426.798 88.5518 423.543 91.7298C423.868 91.7378 424.191 91.7537 424.516 91.7537C432.294 91.7838 439.904 89.486 446.367 85.1555C446.49 82.8231 446.51 80.4395 446.51 78.0218V34.9087H426.999V75.3848Z" fill="url(#paint1_linear_420_602)"/>
<path d="M410.252 89.1121C408.618 85.6328 408.33 80.6214 408.33 75.3848V34.9087H388.911L388.982 67.7147C390.778 72.6031 393.608 77.0457 397.279 80.7386C400.95 84.4316 405.375 87.2879 410.252 89.1121Z" fill="url(#paint2_linear_420_602)"/>
<path d="M362.406 48.428V51.4026C370.758 54.2935 377.708 60.2382 381.859 68.0431V62.3235C376.976 55.7821 370.176 50.9252 362.406 48.428Z" fill="#00A19A"/>
<path d="M381.859 61.3756V55.7753C376.969 49.2472 370.171 44.4012 362.406 41.9082V44.8749C370.727 47.7447 377.669 53.6328 381.859 61.3756Z" fill="#00A19A"/>
<path d="M381.859 54.841V49.3191C376.994 42.7471 370.19 37.8682 362.406 35.3701V38.3391C370.727 41.21 377.668 47.0984 381.859 54.841Z" fill="#00A19A"/>
<path d="M381.859 48.1575V42.788C379.671 39.7901 377.05 37.1346 374.081 34.9087H368.931C374.349 38.0856 378.815 42.6616 381.859 48.1575Z" fill="#00A19A"/>
<path d="M380.781 34.9087H377.008C378.899 36.9833 380.53 39.2812 381.864 41.7513V36.3147C381.515 35.8373 381.154 35.3687 380.781 34.9087Z" fill="#00A19A"/>
<path d="M463.667 95.2717C469.558 91.6898 476.315 89.786 483.209 89.7658V86.5718C476.164 87.0232 469.39 89.4566 463.667 93.5917V95.2717Z" fill="#096F66"/>
<path d="M463.667 90.084C469.436 86.102 476.207 83.8205 483.209 83.4994V80.3645C476 81.1159 469.187 84.0336 463.667 88.7337V90.084Z" fill="#096F66"/>
<path d="M463.667 111.949H483.209V92.762C476.274 92.8945 469.511 94.9432 463.667 98.6816V111.949Z" fill="#096F66"/>
<path d="M463.667 79.7087V80.1838C469.194 75.409 475.978 72.3279 483.209 71.3089V68.3445C475.619 69.8701 468.748 73.866 463.667 79.7087Z" fill="#096F66"/>
<path d="M450.278 34.9087V54.6284H463.667V75.5099C469.022 70.2459 475.827 66.7016 483.209 65.3312V54.6284H496.599V34.9087H450.278Z" fill="#096F66"/>
<path d="M463.667 85.0178C469.354 80.7257 476.118 78.0926 483.209 77.4102V74.3174C475.832 75.437 468.994 78.8528 463.667 84.0801V85.0178Z" fill="#096F66"/>
<path d="M390.279 93.4986C396.738 104.93 409.894 112.772 424.509 112.772C425.406 112.772 426.294 112.731 427.175 112.675C430.615 111.811 433.826 110.205 436.581 107.97C432.68 109.226 428.607 109.865 424.509 109.864C408.674 109.864 395.73 100.657 390.569 87.6516C397.179 98.7044 410.066 106.232 424.383 106.232C430.218 106.252 435.989 105.012 441.301 102.595C442.239 101.191 443.035 99.6975 443.678 98.1361C437.825 101.564 431.165 103.367 424.383 103.359C408.352 103.359 395.325 93.9248 390.284 80.6658C396.787 91.9709 409.992 99.7115 424.509 99.7115C431.76 99.7119 438.877 97.7704 445.124 94.0885C445.438 92.8371 445.688 91.5703 445.872 90.2932C439.59 94.6109 432.133 96.8932 424.512 96.8312C406.545 96.8312 392.373 84.9794 388.976 69.1799L388.991 75.9021V77.9242V78.006C388.991 79.4837 388.961 80.9443 388.984 82.3992L389.075 84.7543C389.144 87.2509 389.389 89.7395 389.808 92.2016L389.95 92.9257C390.674 96.9999 392.422 100.823 395.03 104.035C398.216 108.049 402.558 110.985 407.468 112.447C399.605 108.459 393.486 101.714 390.279 93.4986Z" fill="#00A19A"/>
</g>
<defs>
<linearGradient id="paint0_linear_420_602" x1="372.133" y1="60.6437" x2="372.133" y2="111.971" gradientUnits="userSpaceOnUse">
<stop offset="0.278" stop-color="#00A19A"/>
<stop offset="0.67" stop-color="#05847B"/>
<stop offset="1" stop-color="#096F66"/>
</linearGradient>
<linearGradient id="paint1_linear_420_602" x1="435.032" y1="91.8742" x2="435.032" y2="31.6249" gradientUnits="userSpaceOnUse">
<stop offset="0.278" stop-color="#00A19A"/>
<stop offset="0.67" stop-color="#05847B"/>
<stop offset="1" stop-color="#096F66"/>
</linearGradient>
<linearGradient id="paint2_linear_420_602" x1="399.582" y1="91.8742" x2="399.582" y2="31.6249" gradientUnits="userSpaceOnUse">
<stop offset="0.278" stop-color="#00A19A"/>
<stop offset="0.67" stop-color="#05847B"/>
<stop offset="1" stop-color="#096F66"/>
</linearGradient>
<clipPath id="clip0_420_602">
<rect width="572" height="171" fill="white"/>
</clipPath>
</defs>
</svg>
