<svg width="55" height="44" viewBox="0 0 55 44" fill="none" xmlns="http://www.w3.org/2000/svg">
<path d="M46.75 0H8.25C6.06196 0 3.96354 0.869194 2.41637 2.41637C0.869194 3.96354 0 6.06196 0 8.25V35.75C0 37.938 0.869194 40.0365 2.41637 41.5836C3.96354 43.1308 6.06196 44 8.25 44H46.75C48.938 44 51.0365 43.1308 52.5836 41.5836C54.1308 40.0365 55 37.938 55 35.75V8.25C55 6.06196 54.1308 3.96354 52.5836 2.41637C51.0365 0.869194 48.938 0 46.75 0ZM46.75 5.5L28.875 17.7925C28.4569 18.0339 27.9827 18.1609 27.5 18.1609C27.0173 18.1609 26.5431 18.0339 26.125 17.7925L8.25 5.5H46.75Z" fill="black"/>
</svg>
