<svg width="55" height="55" viewBox="0 0 55 55" fill="none" xmlns="http://www.w3.org/2000/svg">
<path d="M37.1243 16.5002C34.7824 16.4922 32.4618 16.946 30.2954 17.8357C28.129 18.7254 26.1593 20.0336 24.4991 21.6853C22.8388 23.337 21.5205 25.2999 20.6196 27.4617C19.7188 29.6234 19.253 31.9415 19.249 34.2834V52.25C19.249 52.9793 19.5388 53.6788 20.0545 54.1945C20.5702 54.7102 21.2697 55 21.9991 55H28.4158C29.1452 55 29.8447 54.7102 30.3604 54.1945C30.8761 53.6788 31.1659 52.9793 31.1659 52.25V34.2834C31.1653 33.4505 31.3402 32.6268 31.6793 31.866C32.0184 31.1052 32.514 30.4244 33.1339 29.868C33.7537 29.3116 34.4839 28.8921 35.2767 28.6368C36.0696 28.3815 36.9074 28.2961 37.7354 28.3863C39.2205 28.5733 40.5852 29.2988 41.5709 30.4253C42.5565 31.5517 43.0945 33.0006 43.0827 34.4973V52.25C43.0827 52.9793 43.3725 53.6788 43.8882 54.1945C44.4039 54.7102 45.1034 55 45.8328 55H52.2496C52.9789 55 53.6784 54.7102 54.1941 54.1945C54.7099 53.6788 54.9996 52.9793 54.9996 52.25V34.2834C54.9956 31.9415 54.5298 29.6234 53.629 27.4617C52.7281 25.2999 51.4098 23.337 49.7496 21.6853C48.0893 20.0336 46.1196 18.7254 43.9532 17.8357C41.7868 16.946 39.4663 16.4922 37.1243 16.5002Z" fill="black"/>
<path d="M11.0002 19.2501H2.75004C1.23124 19.2501 0 20.4813 0 22.0001V52.2499C0 53.7687 1.23124 54.9999 2.75004 54.9999H11.0002C12.519 54.9999 13.7502 53.7687 13.7502 52.2499V22.0001C13.7502 20.4813 12.519 19.2501 11.0002 19.2501Z" fill="black"/>
<path d="M6.87511 13.7499C10.6721 13.7499 13.7502 10.6719 13.7502 6.87495C13.7502 3.07802 10.6721 0 6.87511 0C3.07809 0 0 3.07802 0 6.87495C0 10.6719 3.07809 13.7499 6.87511 13.7499Z" fill="black"/>
</svg>
