<svg width="78" height="90" viewBox="0 0 78 90" fill="none" xmlns="http://www.w3.org/2000/svg">
<rect x="2" y="6.78186" width="74" height="72.3033" fill="white" stroke="black" stroke-width="4"/>
<path d="M13.496 26.2C13.5813 26.4133 13.6773 26.7333 13.784 27.16C13.8907 27.5867 13.9973 27.896 14.104 28.088C14.8293 28.088 15.544 28.12 16.248 28.184C16.9733 28.248 17.6667 28.3867 18.328 28.6C18.7333 28.7493 19.128 28.92 19.512 29.112C19.2347 28.984 18.9573 28.8667 18.68 28.76C18.104 28.568 17.496 28.44 16.856 28.376C16.216 28.2907 15.544 28.248 14.84 28.248C14.7333 28.248 14.616 28.2587 14.488 28.28C14.3813 28.28 14.2747 28.28 14.168 28.28L14.008 28.312C13.88 28.0773 13.7733 27.7787 13.688 27.416C13.624 27.0533 13.5387 26.7333 13.432 26.456C13.368 26.904 13.2933 27.5013 13.208 28.248C13.1227 28.9733 13.0267 29.7307 12.92 30.52C12.8347 31.288 12.76 32.0347 12.696 32.76C12.632 33.464 12.6 34.0187 12.6 34.424C12.6 34.5307 12.6 34.6907 12.6 34.904C12.6213 35.1173 12.632 35.3413 12.632 35.576C12.632 35.896 12.6 36.184 12.536 36.44C12.4933 36.7173 12.3653 36.856 12.152 36.856C12.1093 36.856 12.0453 36.8347 11.96 36.792C12.0027 36.3653 12.0133 35.928 11.992 35.48C11.992 35.224 11.992 34.968 11.992 34.712L11.864 36.792L11.576 36.728L11.288 36.792V37.368C11.2027 37.5173 11.0853 37.656 10.936 37.784C10.808 37.9333 10.648 38.008 10.456 38.008C10.0933 38.008 9.83733 37.8373 9.688 37.496C9.56 37.176 9.496 36.888 9.496 36.632C9.496 36.3333 9.496 36.0347 9.496 35.736C9.51733 35.48 9.528 35.224 9.528 34.968C9.464 35.2453 9.41067 35.5333 9.368 35.832C9.304 36.1733 9.25067 36.5253 9.208 36.888C9.10133 36.7173 9.02667 36.504 8.984 36.248C8.94133 36.0133 8.92 35.8 8.92 35.608L9.208 32.088H9.624C9.60267 31.8747 9.58133 31.672 9.56 31.48C9.56 31.2667 9.56 31.0533 9.56 30.84C9.56 29.688 9.64533 28.536 9.816 27.384C9.98667 26.2107 10.072 25.048 10.072 23.896C10.072 23.6613 10.0613 23.4267 10.04 23.192C10.04 22.9573 10.0293 22.7227 10.008 22.488H9.816C9.816 23.896 9.77333 25.2933 9.688 26.68C9.60267 28.0453 9.47467 29.432 9.304 30.84C9.56 27.64 9.688 24.4293 9.688 21.208C9.688 20.5467 9.64533 19.8853 9.56 19.224C9.496 18.5413 9.464 17.8693 9.464 17.208C9.464 16.7173 9.50667 16.248 9.592 15.8C9.69867 15.352 9.752 14.8827 9.752 14.392V14.04C9.752 13.912 9.74133 13.7947 9.72 13.688C9.86933 13.688 9.99733 13.6773 10.104 13.656C10.232 13.6133 10.3387 13.592 10.424 13.592C10.6373 13.592 10.7653 13.7093 10.808 13.944C10.8507 14.1573 10.872 14.3493 10.872 14.52V14.648H11.288C11.3093 14.52 11.3413 14.36 11.384 14.168C11.448 13.9547 11.5227 13.752 11.608 13.56C11.6933 13.3467 11.8 13.176 11.928 13.048C12.0773 12.8987 12.2373 12.824 12.408 12.824C12.6213 12.824 12.8027 13.0267 12.952 13.432C13.1227 13.816 13.2613 14.3173 13.368 14.936C13.4747 15.5333 13.5493 16.2053 13.592 16.952C13.656 17.6773 13.6987 18.3813 13.72 19.064C13.7413 19.7253 13.752 20.3227 13.752 20.856C13.7733 21.3893 13.784 21.7627 13.784 21.976V23.608C14.9147 22.3067 16.1733 21.0053 17.56 19.704C18.9467 18.4027 20.312 17.208 21.656 16.12C22.168 15.7147 22.648 15.3413 23.096 15C23.544 14.6373 23.9813 14.2 24.408 13.688L25.112 14.424C25.0053 14.6587 24.8667 14.8827 24.696 15.096C24.5467 15.288 24.3867 15.4693 24.216 15.64L24.504 15.832C24.632 15.7253 24.792 15.608 24.984 15.48C25.176 15.3307 25.3787 15.192 25.592 15.064C25.8053 14.936 26.0187 14.8293 26.232 14.744C26.4453 14.6373 26.6373 14.584 26.808 14.584C27.064 14.584 27.192 14.712 27.192 14.968C27.192 15.48 27.032 15.96 26.712 16.408C26.392 16.856 25.8587 17.4107 25.112 18.072C24.3653 18.712 23.3733 19.5333 22.136 20.536C20.92 21.5173 19.4053 22.808 17.592 24.408C18.68 24.5787 19.672 24.8773 20.568 25.304C21.4853 25.7307 22.3067 26.264 23.032 26.904C23.7573 27.544 24.3973 28.2693 24.952 29.08C25.5067 29.8693 25.976 30.712 26.36 31.608C26.4453 31.8213 26.584 32.12 26.776 32.504C26.968 32.8667 27.1493 33.2507 27.32 33.656C27.512 34.0613 27.672 34.456 27.8 34.84C27.9493 35.2027 28.024 35.4907 28.024 35.704C28.024 35.8107 27.992 35.928 27.928 36.056C27.864 36.184 27.768 36.2693 27.64 36.312C27.2773 35.2453 26.8933 34.2 26.488 33.176C26.104 32.152 25.6027 31.1707 24.984 30.232C25.56 31.192 26.0293 32.184 26.392 33.208C26.776 34.2107 27.1173 35.2453 27.416 36.312L26.936 36.408C26.9787 36.5147 27.032 36.6747 27.096 36.888C27.1813 37.1227 27.224 37.2827 27.224 37.368C27.224 37.5387 27.192 37.752 27.128 38.008C27.0853 38.2853 26.936 38.424 26.68 38.424C26.4453 38.424 26.2213 38.3387 26.008 38.168C25.7947 37.9973 25.6133 37.8267 25.464 37.656C25.2293 36.4187 24.888 35.224 24.44 34.072C23.992 32.92 23.4053 31.8747 22.68 30.936C23.2773 31.768 23.7573 32.7173 24.12 33.784C24.4827 34.8293 24.8027 35.992 25.08 37.272C24.76 36.8453 24.4827 36.3867 24.248 35.896C24.0347 35.4053 23.8213 34.9147 23.608 34.424C23.416 33.912 23.2133 33.4107 23 32.92C22.7867 32.4293 22.5307 31.96 22.232 31.512L22.52 31.288C21.9227 30.6053 21.3147 30.04 20.696 29.592C20.0773 29.144 19.4267 28.7813 18.744 28.504C18.0613 28.2267 17.336 28.0347 16.568 27.928C15.8 27.8213 14.9787 27.768 14.104 27.768L13.528 25.944L13.496 26.2ZM16.024 21.624L15.928 21.496L13.784 23.736L13.752 24.216L16.024 21.624ZM18.232 25.24C19.64 25.624 20.9093 26.2533 22.04 27.128C23.192 28.0027 24.1733 29.0373 24.984 30.232C24.2587 28.9947 23.2987 27.9387 22.104 27.064C20.9093 26.1893 19.6187 25.5813 18.232 25.24ZM15.96 27.384C17.7093 27.6187 19.128 28.056 20.216 28.696C19.0213 27.8853 17.6027 27.448 15.96 27.384ZM12.472 29.464C12.3867 30.1467 12.3227 30.84 12.28 31.544C12.3867 30.8613 12.472 30.168 12.536 29.464C12.6213 28.7813 12.7173 28.1093 12.824 27.448C12.6747 28.1093 12.5573 28.7813 12.472 29.464ZM10.232 27.896C10.1893 28.4933 10.136 29.112 10.072 29.752C10.1787 29.0693 10.2533 28.4187 10.296 27.8C10.36 27.1387 10.392 26.5307 10.392 25.976C10.328 26.6373 10.2747 27.2773 10.232 27.896ZM21.048 30.2C20.8133 29.9653 20.568 29.7627 20.312 29.592L20.28 29.56C20.5573 29.7307 20.8133 29.944 21.048 30.2ZM19.928 29.336C19.8213 29.272 19.7147 29.208 19.608 29.144C19.7147 29.208 19.8213 29.272 19.928 29.336ZM20.184 29.496L20.28 29.56C20.1733 29.496 20.0773 29.432 19.992 29.368C20.056 29.4107 20.12 29.4533 20.184 29.496ZM21.624 30.808C21.5813 30.744 21.528 30.68 21.464 30.616C21.528 30.68 21.5813 30.744 21.624 30.808ZM21.336 30.488C21.3787 30.5307 21.4213 30.5733 21.464 30.616C21.4213 30.5733 21.3787 30.5307 21.336 30.488ZM9.528 34.968C9.54933 34.9467 9.56 34.9253 9.56 34.904C9.53867 34.9253 9.528 34.9467 9.528 34.968ZM21.72 30.904C21.6773 30.8827 21.6453 30.8507 21.624 30.808C21.6667 30.8293 21.6987 30.8613 21.72 30.904ZM34.5443 35.768C34.5443 35.6613 34.5976 35.3307 34.7043 34.776C34.8109 34.2213 34.9283 33.6027 35.0563 32.92C34.9496 33.3467 34.8323 33.7627 34.7043 34.168C34.5976 34.5733 34.4803 34.9787 34.3523 35.384C34.2029 35.0853 34.1283 34.7547 34.1283 34.392C34.1283 33.7093 34.2136 33.048 34.3843 32.408C34.5763 31.7467 34.7256 31.0747 34.8323 30.392H35.1523C35.1736 29.5813 35.2269 28.7707 35.3123 27.96C35.3976 27.128 35.4403 26.3067 35.4403 25.496C35.4403 24.7067 35.3549 23.9387 35.1843 23.192C35.0136 22.4453 34.7043 21.7413 34.2563 21.08L34.0643 21.176C34.2136 21.432 34.3523 21.752 34.4803 22.136C34.6296 22.4987 34.7576 22.8827 34.8643 23.288C34.9709 23.6933 35.0563 24.0987 35.1203 24.504C35.2056 24.888 35.2483 25.2187 35.2483 25.496C35.2483 26.2853 35.2163 27.0747 35.1523 27.864C35.1096 28.6533 35.0029 29.432 34.8323 30.2C34.8963 29.5813 34.9603 28.9627 35.0243 28.344C35.0883 27.704 35.1203 27.0747 35.1203 26.456C35.1203 25.496 35.0029 24.5893 34.7683 23.736C34.5336 22.8613 34.2243 22.0187 33.8403 21.208C33.4563 20.376 33.0083 19.5867 32.4963 18.84C32.0056 18.072 31.4829 17.3147 30.9283 16.568C30.5229 16.0133 30.1816 15.448 29.9043 14.872C29.6483 14.2747 29.3389 13.6987 28.9763 13.144C29.1469 13.1013 29.2856 13.0267 29.3923 12.92C29.4989 12.792 29.6376 12.7173 29.8083 12.696C29.9789 12.76 30.1283 12.8773 30.2563 13.048C30.4056 13.2187 30.5336 13.3893 30.6403 13.56L30.9283 13.368C30.7576 12.92 30.6723 12.4933 30.6723 12.088C30.6723 11.9173 30.7043 11.7147 30.7682 11.48C30.8536 11.224 31.0136 11.096 31.2483 11.096C31.5043 11.096 31.8349 11.2987 32.2403 11.704C32.6456 12.088 33.0829 12.5893 33.5523 13.208C34.0429 13.8267 34.5336 14.52 35.0243 15.288C35.5149 16.0347 35.9736 16.76 36.4003 17.464C36.8269 18.168 37.1896 18.8187 37.4883 19.416C37.8083 19.992 38.0216 20.408 38.1283 20.664L38.6723 20.312L38.8643 20.504C39.1629 20.056 39.5043 19.6507 39.8883 19.288C40.2723 18.904 40.6563 18.5307 41.0403 18.168C41.4456 17.8053 41.8296 17.4427 42.1923 17.08C42.5763 16.696 42.8963 16.2693 43.1523 15.8L42.9603 15.704C42.3416 16.4933 41.6696 17.24 40.9443 17.944C40.2616 18.584 39.5896 19.2453 38.9283 19.928C39.9523 18.7973 40.9443 17.688 41.9043 16.6C42.9069 15.448 43.9203 14.264 44.9443 13.048L46.2882 11.576C46.3523 11.6187 46.4269 11.6613 46.5123 11.704C46.6189 11.7467 46.7256 11.7893 46.8323 11.832C46.9389 11.8747 47.0243 11.928 47.0883 11.992C47.1736 12.056 47.2163 12.1307 47.2163 12.216C47.2163 12.28 47.1843 12.3653 47.1203 12.472C47.0776 12.5573 47.0349 12.6213 46.9923 12.664L47.2803 12.856C47.6429 12.536 48.0483 12.376 48.4963 12.376C48.7309 12.376 48.9123 12.44 49.0403 12.568C49.1896 12.696 49.2643 12.8773 49.2643 13.112C49.2643 13.6027 49.0936 14.1467 48.7523 14.744C48.4109 15.32 47.9736 15.928 47.4403 16.568C46.9069 17.1867 46.3203 17.816 45.6803 18.456C45.0616 19.0747 44.4536 19.6613 43.8563 20.216C43.2589 20.7707 42.7256 21.2827 42.2563 21.752C41.8083 22.2 41.4883 22.5627 41.2963 22.84C41.2109 22.8613 41.0936 22.936 40.9443 23.064C40.8163 23.192 40.6669 23.3307 40.4963 23.48C40.3469 23.6293 40.1869 23.768 40.0163 23.896C39.8456 24.0027 39.6856 24.056 39.5363 24.056L39.1523 23.928C39.1949 23.8213 39.3443 23.6293 39.6003 23.352C39.8563 23.0747 40.1443 22.7867 40.4643 22.488C40.7843 22.1893 41.0829 21.912 41.3603 21.656C41.6376 21.4 41.8296 21.2293 41.9363 21.144C41.6589 21.2293 41.3603 21.4 41.0403 21.656C40.7416 21.8907 40.4429 22.1573 40.1443 22.456C39.8669 22.7333 39.6109 23.0107 39.3763 23.288C39.1629 23.5653 39.0243 23.7787 38.9603 23.928C38.9603 24.5467 38.9389 25.272 38.8963 26.104C38.8536 26.9147 38.7896 27.7573 38.7043 28.632C38.6403 29.5067 38.5549 30.3707 38.4483 31.224C38.3416 32.0773 38.2243 32.8347 38.0963 33.496C37.9896 34.1573 37.8616 34.6907 37.7123 35.096C37.5843 35.5227 37.4456 35.736 37.2963 35.736C37.2536 35.736 37.1896 35.7147 37.1042 35.672C37.2109 34.904 37.3176 34.136 37.4243 33.368C37.5309 32.664 37.6376 31.96 37.7443 31.256L36.9123 35.672L36.4643 35.544C36.4216 35.7787 36.3256 36.0453 36.1763 36.344C36.0269 36.6427 35.8136 36.792 35.5363 36.792C35.3016 36.792 35.0776 36.6747 34.8643 36.44C34.6509 36.2267 34.5443 36.0027 34.5443 35.768ZM38.4163 21.368C38.6723 21.24 38.9603 21.0267 39.2803 20.728C39.6216 20.4293 39.9629 20.1093 40.3043 19.768C40.6456 19.4053 40.9656 19.0427 41.2643 18.68C41.5843 18.3173 41.8616 18.008 42.0963 17.752C41.4349 18.3067 40.8269 18.9147 40.2723 19.576C39.7176 20.216 39.0776 20.76 38.3523 21.208L38.4163 21.368ZM35.6643 29.336C35.7496 28.9093 35.8243 28.4827 35.8883 28.056C35.9523 27.608 35.9843 27.16 35.9843 26.712C35.9843 25.9013 35.8989 25.0373 35.7283 24.12C35.7923 24.824 35.8243 25.528 35.8243 26.232C35.8243 26.744 35.8029 27.2667 35.7603 27.8C35.7389 28.312 35.7069 28.824 35.6643 29.336ZM37.7763 31.064C37.9256 30.168 38.0536 29.2827 38.1603 28.408C38.2669 27.5547 38.3416 26.6907 38.3843 25.816C38.2989 26.6907 38.2029 27.5547 38.0963 28.408C37.9896 29.2827 37.8829 30.168 37.7763 31.064ZM37.7443 31.16V31.256C37.7443 31.2133 37.7443 31.1813 37.7443 31.16ZM57.3685 36.984C58.3072 37.2827 59.2672 37.432 60.2485 37.432C61.3578 37.432 62.3925 37.2613 63.3525 36.92C64.3125 36.5787 65.1872 36.1093 65.9765 35.512C66.7658 34.9147 67.4592 34.2213 68.0565 33.432C68.4832 32.8773 68.8565 32.28 69.1765 31.64C68.8992 32.2373 68.5792 32.824 68.2165 33.4C67.7045 34.2107 67.0645 34.9253 66.2965 35.544C65.5498 36.1627 64.6858 36.6533 63.7045 37.016C62.7232 37.4 61.6138 37.592 60.3765 37.592H59.9605C58.1898 37.592 56.6538 37.1973 55.3525 36.408C54.0512 35.6187 52.9738 34.616 52.1205 33.4C51.2672 32.1627 50.6272 30.7867 50.2005 29.272C49.7952 27.7573 49.5925 26.264 49.5925 24.792C49.5925 24.1733 49.6245 23.5227 49.6885 22.84C49.7525 22.136 49.8912 21.432 50.1045 20.728C50.3178 20.024 50.6165 19.3413 51.0005 18.68C51.4058 17.9973 51.9498 17.3787 52.6325 16.824C53.1872 16.376 53.7845 16.0027 54.4245 15.704C55.0858 15.384 55.7365 15.2027 56.3765 15.16C56.3125 15.2027 56.2805 15.2453 56.2805 15.288C56.2805 15.3733 56.3232 15.4693 56.4085 15.576C56.5152 15.6613 56.5685 15.7573 56.5685 15.864V15.928C56.5685 16.0133 56.5152 16.0773 56.4085 16.12C56.3232 16.1627 56.1738 16.2267 55.9605 16.312C55.7472 16.376 55.4698 16.4827 55.1285 16.632C54.7872 16.7813 54.3818 17.0053 53.9125 17.304C54.0405 17.432 54.1045 17.528 54.1045 17.592C54.5098 17.3787 54.8832 17.2293 55.2245 17.144C55.5658 17.0587 55.8858 17.016 56.1845 17.016C56.8032 17.016 57.2512 17.1227 57.5285 17.336C57.8058 17.5493 57.9445 17.7093 57.9445 17.816C57.9445 17.9867 57.8058 18.1253 57.5285 18.232C57.2725 18.3387 56.9632 18.4773 56.6005 18.648C56.2592 18.7973 55.8965 19.0107 55.5125 19.288C55.1285 19.544 54.8298 19.928 54.6165 20.44C54.2752 20.952 54.0085 21.592 53.8165 22.36C53.6458 23.128 53.5605 23.9067 53.5605 24.696C53.5605 26.04 53.7205 27.2667 54.0405 28.376C54.3605 29.4853 54.8085 30.4453 55.3845 31.256C55.9818 32.0667 56.6965 32.696 57.5285 33.144C58.3818 33.592 59.3418 33.816 60.4085 33.816C61.4325 33.816 62.3498 33.56 63.1605 33.048C63.9925 32.536 64.6965 31.8427 65.2725 30.968C65.8485 30.072 66.2858 29.048 66.5845 27.896C66.8832 26.7227 67.0325 25.4747 67.0325 24.152C67.0325 23.512 66.9898 22.8827 66.9045 22.264C66.8405 21.624 66.6912 21.016 66.4565 20.44C66.2432 19.864 65.9338 19.32 65.5285 18.808C65.1445 18.296 64.6325 17.8267 63.9925 17.4C63.1818 16.9733 62.5205 16.6747 62.0085 16.504C61.4965 16.312 61.2405 16.1307 61.2405 15.96C61.2405 15.896 61.2832 15.8213 61.3685 15.736C62.4352 15.9707 63.3952 16.3547 64.2485 16.888C65.0378 17.3787 65.6992 18.0187 66.2325 18.808C65.6565 17.9333 65.0058 17.2613 64.2805 16.792C63.4912 16.2587 62.5525 15.8427 61.4645 15.544C61.5712 15.4373 61.6245 15.3413 61.6245 15.256C61.6245 15.1707 61.4645 15.096 61.1445 15.032C60.8458 14.968 60.5152 14.8933 60.1525 14.808C59.7898 14.7227 59.4485 14.616 59.1285 14.488C58.8298 14.36 58.6805 14.2 58.6805 14.008C58.6805 13.7733 58.8725 13.6027 59.2565 13.496C59.6405 13.3893 60.1098 13.2613 60.6645 13.112C60.8138 13.112 60.9525 13.1333 61.0805 13.176C61.2298 13.2187 61.3578 13.2613 61.4645 13.304C62.5098 13.496 63.5018 13.8373 64.4405 14.328C65.4005 14.8187 66.2538 15.448 67.0005 16.216C67.7685 16.984 68.4085 17.9013 68.9205 18.968C69.4325 20.0133 69.7632 21.1973 69.9125 22.52C69.8058 21.2613 69.5178 20.12 69.0485 19.096C68.6005 18.0507 68.0032 17.1227 67.2565 16.312C66.5312 15.5013 65.6778 14.8187 64.6965 14.264C63.7152 13.7093 62.6698 13.2827 61.5605 12.984C62.5418 12.984 63.5125 13.1867 64.4725 13.592C65.4538 13.976 66.3498 14.552 67.1605 15.32C67.9712 16.0667 68.6752 16.9947 69.2725 18.104C69.8698 19.2133 70.2965 20.4827 70.5525 21.912C70.5098 21.912 70.4458 21.9333 70.3605 21.976C70.2752 21.9973 70.2112 22.008 70.1685 22.008C70.3605 23.096 70.4565 24.152 70.4565 25.176C70.4565 26.6693 70.2218 28.1307 69.7525 29.56C69.3045 30.9893 68.6432 32.2693 67.7685 33.4C66.9152 34.5093 65.8592 35.4053 64.6005 36.088C63.3418 36.792 61.9018 37.144 60.2805 37.144C59.3205 37.144 58.3818 37.0053 57.4645 36.728C56.5472 36.4507 55.6938 36.0773 54.9045 35.608C54.9472 35.6507 54.9685 35.6933 54.9685 35.736C54.9685 35.7787 54.9152 35.8 54.8085 35.8C55.5978 36.312 56.4512 36.7067 57.3685 36.984ZM69.9765 25.528C69.8698 26.36 69.7098 27.224 69.4965 28.12C69.3045 28.9947 69.0272 29.8587 68.6645 30.712C68.3232 31.5653 67.8858 32.3653 67.3525 33.112C66.8192 33.8373 66.1898 34.4667 65.4645 35C66.1898 34.488 66.8298 33.88 67.3845 33.176C67.9392 32.4507 68.3978 31.6613 68.7605 30.808C69.1445 29.9547 69.4325 29.0587 69.6245 28.12C69.8378 27.16 69.9658 26.2107 70.0085 25.272C69.9872 25.336 69.9765 25.4213 69.9765 25.528ZM67.4165 27.384C67.2458 28.1947 66.9898 28.984 66.6485 29.752C66.3072 30.4987 65.8698 31.1707 65.3365 31.768C65.8912 31.192 66.3392 30.5307 66.6805 29.784C67.0218 29.0373 67.2672 28.2373 67.4165 27.384ZM70.7125 24.568C70.7125 24.9307 70.6912 25.304 70.6485 25.688C70.6272 26.0507 70.5952 26.424 70.5525 26.808C70.5525 26.4453 70.5738 26.04 70.6165 25.592C70.6592 25.1227 70.6805 24.6107 70.6805 24.056V23.48C70.7018 23.6507 70.7125 23.832 70.7125 24.024V24.568ZM67.4165 27.384C67.5232 26.9147 67.5978 26.4453 67.6405 25.976C67.7045 25.4853 67.7365 24.9947 67.7365 24.504C67.7365 23.9707 67.7045 23.4267 67.6405 22.872C67.6618 23.1067 67.6725 23.3307 67.6725 23.544C67.6938 23.7573 67.7045 23.9813 67.7045 24.216C67.7045 25.304 67.6085 26.36 67.4165 27.384ZM70.5525 27L70.2645 28.568C70.1578 28.952 70.0512 29.336 69.9445 29.72C69.8378 30.0827 69.7098 30.4453 69.5605 30.808C69.7952 30.1467 69.9872 29.4853 70.1365 28.824C70.3072 28.1627 70.4458 27.512 70.5525 26.872V27ZM54.8405 35.864C54.8405 35.8427 54.8298 35.8213 54.8085 35.8C54.8085 35.8213 54.8192 35.8427 54.8405 35.864ZM69.5605 30.808C69.5178 30.8933 69.4858 30.968 69.4645 31.032C69.4858 30.968 69.5178 30.8933 69.5605 30.808ZM69.2085 31.576C69.2512 31.512 69.2832 31.448 69.3045 31.384C69.2832 31.448 69.2512 31.512 69.2085 31.576ZM66.4245 19.064C66.4032 19.0213 66.3712 18.9787 66.3285 18.936C66.3498 18.9787 66.3818 19.0213 66.4245 19.064ZM69.4645 31.032C69.4218 31.1387 69.3792 31.2453 69.3365 31.352C69.3792 31.2453 69.4218 31.1387 69.4645 31.032Z" fill="black"/>
<path d="M38.6913 41.155C36.2273 41.155 33.7793 41.235 31.3473 41.395C28.9153 41.523 26.4833 41.587 24.0513 41.587C24.4673 41.619 24.8673 41.651 25.2513 41.683C25.6673 41.683 26.0993 41.683 26.5473 41.683C28.0193 41.683 29.4753 41.667 30.9153 41.635C32.3873 41.571 33.8593 41.539 35.3313 41.539H36.7713C37.2513 41.539 37.7473 41.555 38.2593 41.587C37.8113 41.875 37.3313 42.083 36.8193 42.211C36.3393 42.339 35.8433 42.435 35.3313 42.499C34.8513 42.531 34.3393 42.547 33.7953 42.547C33.2833 42.547 32.7713 42.563 32.2593 42.595L31.8273 42.019C31.0913 42.147 30.3553 42.227 29.6193 42.259C28.8833 42.291 28.1473 42.307 27.4113 42.307L23.1393 42.259L23.1873 42.691L31.2033 42.643C28.4833 42.803 25.8113 42.899 23.1873 42.931C23.2193 43.347 23.2513 43.763 23.2833 44.179C23.3153 44.563 23.3633 44.963 23.4273 45.379L22.8513 45.523C23.1073 46.611 23.2833 47.811 23.3793 49.123C23.5073 50.403 23.6193 51.715 23.7153 53.059C23.8113 54.403 23.9393 55.731 24.0993 57.043C24.2913 58.323 24.5633 59.491 24.9153 60.547L25.0593 60.403C24.8673 59.315 24.6913 58.147 24.5313 56.899C24.3713 55.619 24.2113 54.323 24.0513 53.011C23.9233 51.667 23.7953 50.355 23.6673 49.075C23.5713 47.859 23.4913 46.723 23.4273 45.667C23.5553 47.363 23.7473 49.139 24.0033 50.995C24.2913 52.883 24.5953 54.803 24.9153 56.755C25.2353 58.675 25.5393 60.579 25.8273 62.467C26.1473 64.355 26.4353 66.163 26.6913 67.891C26.7553 68.435 26.8353 69.027 26.9313 69.667C27.0273 70.275 27.0753 70.899 27.0753 71.539V72.115C27.0753 72.339 27.0433 72.547 26.9793 72.739C26.7553 72.739 26.5313 72.771 26.3073 72.835C26.1153 72.931 25.9073 72.979 25.6833 72.979C25.3313 72.979 25.1073 72.803 25.0113 72.451C24.9473 72.099 24.9153 71.795 24.9153 71.539H24.4833C24.4513 71.731 24.3873 71.971 24.2913 72.259C24.2273 72.579 24.1153 72.883 23.9553 73.171C23.8273 73.459 23.6513 73.699 23.4273 73.891C23.2353 74.083 23.0113 74.179 22.7553 74.179C22.4353 74.179 22.1473 73.955 21.8913 73.507C21.6353 73.059 21.3953 72.483 21.1713 71.779C20.9793 71.075 20.8033 70.307 20.6433 69.475C20.5153 68.611 20.3873 67.795 20.2593 67.027C20.1633 66.227 20.0673 65.507 19.9713 64.867C19.9073 64.227 19.8433 63.763 19.7793 63.475C19.4593 62.131 19.1553 60.659 18.8673 59.059C18.6113 57.459 18.3873 55.843 18.1953 54.211C18.0033 52.579 17.8433 50.963 17.7153 49.363C17.6193 47.731 17.5713 46.211 17.5713 44.803C17.5713 44.579 17.5713 44.371 17.5713 44.179C17.6033 43.955 17.6193 43.731 17.6193 43.507V43.219C17.6193 43.091 17.6033 42.963 17.5713 42.835C15.6833 42.803 13.8913 42.723 12.1953 42.595C10.4993 42.435 8.61131 42.227 6.53131 41.971C6.56331 41.779 6.57931 41.571 6.57931 41.347C6.57931 41.123 6.59531 40.915 6.62731 40.723C6.69131 40.531 6.77131 40.371 6.86731 40.243C6.99531 40.083 7.20331 40.003 7.49131 40.003C7.68331 40.003 7.90731 40.035 8.16331 40.099L8.30731 39.667C7.92331 39.507 7.47531 39.251 6.96331 38.899C6.45131 38.547 6.19531 38.131 6.19531 37.651C6.19531 37.363 6.30731 37.155 6.53131 37.027C6.75531 36.867 7.02731 36.755 7.34731 36.691C7.66731 36.627 7.98731 36.595 8.30731 36.595C8.62731 36.563 8.86731 36.547 9.02731 36.547C10.1793 36.547 11.3153 36.611 12.4353 36.739C13.5873 36.867 14.7393 36.931 15.8913 36.931C18.8033 36.931 21.6993 36.979 24.5793 37.075C27.4593 37.139 30.3553 37.171 33.2673 37.171C33.8433 37.171 34.4033 37.091 34.9473 36.931C35.5233 36.771 36.0993 36.691 36.6753 36.691C36.8993 36.691 37.0913 36.755 37.2513 36.883C37.4433 37.011 37.5393 37.203 37.5393 37.459C36.6753 37.619 35.7953 37.747 34.8993 37.843C34.0993 37.907 33.2833 37.971 32.4513 38.035C33.2833 38.035 34.0993 38.003 34.8993 37.939C35.7633 37.875 36.6433 37.811 37.5393 37.747V38.659L38.4033 38.515C38.6593 38.579 38.8993 38.707 39.1233 38.899C39.3473 39.059 39.4593 39.299 39.4593 39.619C39.4593 39.907 39.3793 40.195 39.2193 40.483C39.0593 40.739 38.8833 40.963 38.6913 41.155ZM21.8433 42.931C21.9073 43.859 21.9873 44.883 22.0833 46.003C22.2113 47.123 22.3393 48.259 22.4673 49.411C22.5953 50.563 22.7233 51.699 22.8513 52.819C23.0113 53.907 23.1553 54.915 23.2833 55.843C23.1873 54.947 23.0753 53.939 22.9473 52.819C22.8513 51.699 22.7553 50.563 22.6593 49.411C22.5633 48.259 22.4673 47.123 22.3713 46.003C22.3073 44.883 22.2753 43.859 22.2753 42.931H21.8433ZM30.5793 38.035H27.9393C27.1393 38.035 26.3393 38.019 25.5393 37.987C25.9233 38.051 26.2913 38.115 26.6433 38.179C27.0913 38.275 27.5873 38.323 28.1313 38.323C28.5153 38.323 28.9153 38.291 29.3313 38.227C29.7793 38.163 30.1953 38.099 30.5793 38.035ZM22.0353 42.691H22.2753V42.259H22.0353V42.691ZM50.8574 74.467C52.2654 74.915 53.7054 75.139 55.1774 75.139C56.8414 75.139 58.3934 74.883 59.8334 74.371C61.2734 73.859 62.5854 73.155 63.7694 72.259C64.9534 71.363 65.9934 70.323 66.8894 69.139C67.5294 68.307 68.0894 67.411 68.5694 66.451C68.1534 67.347 67.6734 68.227 67.1294 69.091C66.3614 70.307 65.4014 71.379 64.2494 72.307C63.1294 73.235 61.8334 73.971 60.3614 74.515C58.8894 75.091 57.2254 75.379 55.3694 75.379H54.7454C52.0894 75.379 49.7854 74.787 47.8334 73.603C45.8814 72.419 44.2654 70.915 42.9854 69.091C41.7054 67.235 40.7454 65.171 40.1054 62.899C39.4974 60.627 39.1934 58.387 39.1934 56.179C39.1934 55.251 39.2414 54.275 39.3374 53.251C39.4334 52.195 39.6414 51.139 39.9614 50.083C40.2814 49.027 40.7294 48.003 41.3054 47.011C41.9134 45.987 42.7294 45.059 43.7534 44.227C44.5854 43.555 45.4814 42.995 46.4414 42.547C47.4334 42.067 48.4094 41.795 49.3694 41.731C49.2734 41.795 49.2254 41.859 49.2254 41.923C49.2254 42.051 49.2894 42.195 49.4174 42.355C49.5774 42.483 49.6574 42.627 49.6574 42.787V42.883C49.6574 43.011 49.5774 43.107 49.4174 43.171C49.2894 43.235 49.0654 43.331 48.7454 43.459C48.4254 43.555 48.0094 43.715 47.4974 43.939C46.9854 44.163 46.3774 44.499 45.6734 44.947C45.8654 45.139 45.9614 45.283 45.9614 45.379C46.5694 45.059 47.1294 44.835 47.6414 44.707C48.1534 44.579 48.6334 44.515 49.0814 44.515C50.0094 44.515 50.6814 44.675 51.0974 44.995C51.5134 45.315 51.7214 45.555 51.7214 45.715C51.7214 45.971 51.5134 46.179 51.0974 46.339C50.7134 46.499 50.2494 46.707 49.7054 46.963C49.1934 47.187 48.6494 47.507 48.0734 47.923C47.4974 48.307 47.0494 48.883 46.7294 49.651C46.2174 50.419 45.8174 51.379 45.5294 52.531C45.2734 53.683 45.1454 54.851 45.1454 56.035C45.1454 58.051 45.3854 59.891 45.8654 61.555C46.3454 63.219 47.0174 64.659 47.8814 65.875C48.7774 67.091 49.8494 68.035 51.0974 68.707C52.3774 69.379 53.8174 69.715 55.4174 69.715C56.9534 69.715 58.3294 69.331 59.5454 68.563C60.7934 67.795 61.8494 66.755 62.7134 65.443C63.5774 64.099 64.2334 62.563 64.6814 60.835C65.1294 59.075 65.3534 57.203 65.3534 55.219C65.3534 54.259 65.2894 53.315 65.1614 52.387C65.0654 51.427 64.8414 50.515 64.4894 49.651C64.1694 48.787 63.7054 47.971 63.0974 47.203C62.5214 46.435 61.7534 45.731 60.7934 45.091C59.5774 44.451 58.5854 44.003 57.8174 43.747C57.0494 43.459 56.6654 43.187 56.6654 42.931C56.6654 42.835 56.7294 42.723 56.8574 42.595C58.4574 42.947 59.8974 43.523 61.1774 44.323C62.3614 45.059 63.3534 46.019 64.1534 47.203C63.2894 45.891 62.3134 44.883 61.2254 44.179C60.0414 43.379 58.6334 42.755 57.0014 42.307C57.1614 42.147 57.2414 42.003 57.2414 41.875C57.2414 41.747 57.0014 41.635 56.5214 41.539C56.0734 41.443 55.5774 41.331 55.0334 41.203C54.4894 41.075 53.9774 40.915 53.4974 40.723C53.0494 40.531 52.8254 40.291 52.8254 40.003C52.8254 39.651 53.1134 39.395 53.6894 39.235C54.2654 39.075 54.9694 38.883 55.8014 38.659C56.0254 38.659 56.2334 38.691 56.4254 38.755C56.6494 38.819 56.8414 38.883 57.0014 38.947C58.5694 39.235 60.0574 39.747 61.4654 40.483C62.9054 41.219 64.1854 42.163 65.3054 43.315C66.4574 44.467 67.4174 45.843 68.1854 47.443C68.9534 49.011 69.4494 50.787 69.6734 52.771C69.5134 50.883 69.0814 49.171 68.3774 47.635C67.7054 46.067 66.8094 44.675 65.6894 43.459C64.6014 42.243 63.3214 41.219 61.8494 40.387C60.3774 39.555 58.8094 38.915 57.1454 38.467C58.6174 38.467 60.0734 38.771 61.5134 39.379C62.9854 39.955 64.3294 40.819 65.5454 41.971C66.7614 43.091 67.8174 44.483 68.7134 46.147C69.6094 47.811 70.2494 49.715 70.6334 51.859C70.5694 51.859 70.4734 51.891 70.3454 51.955C70.2174 51.987 70.1214 52.003 70.0574 52.003C70.3454 53.635 70.4894 55.219 70.4894 56.755C70.4894 58.995 70.1374 61.187 69.4334 63.331C68.7614 65.475 67.7694 67.395 66.4574 69.091C65.1774 70.755 63.5934 72.099 61.7054 73.123C59.8174 74.179 57.6574 74.707 55.2254 74.707C53.7854 74.707 52.3774 74.499 51.0014 74.083C49.6254 73.667 48.3454 73.107 47.1614 72.403C47.2254 72.467 47.2574 72.531 47.2574 72.595C47.2574 72.659 47.1774 72.691 47.0174 72.691C48.2014 73.459 49.4814 74.051 50.8574 74.467ZM69.7694 57.283C69.6094 58.531 69.3694 59.827 69.0494 61.171C68.7614 62.483 68.3454 63.779 67.8014 65.059C67.2894 66.339 66.6334 67.539 65.8334 68.659C65.0334 69.747 64.0894 70.691 63.0014 71.491C64.0894 70.723 65.0494 69.811 65.8814 68.755C66.7134 67.667 67.4014 66.483 67.9454 65.203C68.5214 63.923 68.9534 62.579 69.2414 61.171C69.5614 59.731 69.7534 58.307 69.8174 56.899C69.7854 56.995 69.7694 57.123 69.7694 57.283ZM65.9294 60.067C65.6734 61.283 65.2894 62.467 64.7774 63.619C64.2654 64.739 63.6094 65.747 62.8094 66.643C63.6414 65.779 64.3134 64.787 64.8254 63.667C65.3374 62.547 65.7054 61.347 65.9294 60.067ZM70.8734 55.843C70.8734 56.387 70.8414 56.947 70.7774 57.523C70.7454 58.067 70.6974 58.627 70.6334 59.203C70.6334 58.659 70.6654 58.051 70.7294 57.379C70.7934 56.675 70.8254 55.907 70.8254 55.075V54.211C70.8574 54.467 70.8734 54.739 70.8734 55.027V55.843ZM65.9294 60.067C66.0894 59.363 66.2014 58.659 66.2654 57.955C66.3614 57.219 66.4094 56.483 66.4094 55.747C66.4094 54.947 66.3614 54.131 66.2654 53.299C66.2974 53.651 66.3134 53.987 66.3134 54.307C66.3454 54.627 66.3614 54.963 66.3614 55.315C66.3614 56.947 66.2174 58.531 65.9294 60.067ZM70.6334 59.491L70.2014 61.843C70.0414 62.419 69.8814 62.995 69.7214 63.571C69.5614 64.115 69.3694 64.659 69.1454 65.203C69.4974 64.211 69.7854 63.219 70.0094 62.227C70.2654 61.235 70.4734 60.259 70.6334 59.299V59.491ZM47.0654 72.787C47.0654 72.755 47.0494 72.723 47.0174 72.691C47.0174 72.723 47.0334 72.755 47.0654 72.787ZM69.1454 65.203C69.0814 65.331 69.0334 65.443 69.0014 65.539C69.0334 65.443 69.0814 65.331 69.1454 65.203ZM68.6174 66.355C68.6814 66.259 68.7294 66.163 68.7614 66.067C68.7294 66.163 68.6814 66.259 68.6174 66.355ZM64.4414 47.587C64.4094 47.523 64.3614 47.459 64.2974 47.395C64.3294 47.459 64.3774 47.523 64.4414 47.587ZM69.0014 65.539C68.9374 65.699 68.8734 65.859 68.8094 66.019C68.8734 65.859 68.9374 65.699 69.0014 65.539Z" fill="#BC002D"/>
</svg>
