<svg width="191" height="48" viewBox="0 0 191 48" fill="none" xmlns="http://www.w3.org/2000/svg">
<path d="M19.2514 0.322994C11.5168 1.59119 4.78343 6.75968 1.72964 13.7706C-0.748432 19.4416 -0.548184 26.1894 2.23026 31.7647C3.95741 35.2103 6.71082 38.3449 9.81467 40.4267C11.0162 41.2163 11.0412 41.2163 11.4167 40.7617C11.6169 40.4985 12.0675 39.7567 12.4179 39.0867L13.0687 37.9142L12.2177 37.316C10.6908 36.2392 7.63697 33.1046 6.76089 31.6929C0.453058 21.5234 5.63449 8.45859 17.4491 4.77364C21.329 3.57723 25.5342 3.62509 29.3389 4.89328C32.2425 5.87434 32.0423 5.9222 32.9684 4.27115C33.444 3.45759 33.7444 2.66796 33.6943 2.50046C33.4941 2.0219 29.5391 0.729774 27.0861 0.322994C24.5329 -0.107716 21.8296 -0.107716 19.2514 0.322994Z" fill="white"/>
<path d="M34.6702 4.31898C33.4937 6.2811 33.3686 6.68788 33.8692 6.95109C34.9205 7.50144 36.9981 9.31998 38.0744 10.6121C44.1319 17.7906 43.8316 27.984 37.3235 34.6839C31.9668 40.2352 23.4062 42.1016 16.1222 39.302C15.2211 38.9431 14.4451 38.7038 14.395 38.7517C14.0196 39.2063 9.46391 47.1505 9.539 47.2462C9.6141 47.2941 11.5916 46.6001 13.9695 45.6909C18.2248 44.0398 18.2999 44.0159 19.7016 44.2552C21.8543 44.5902 25.2084 44.5184 27.5363 44.0877C36.3723 42.4845 43.5312 36.0957 45.834 27.7208C46.61 24.8494 46.635 19.8723 45.834 16.8813C44.5324 11.9282 41.4536 7.47751 37.2985 4.53434C36.3473 3.86435 35.5212 3.314 35.4462 3.314C35.346 3.314 35.0206 3.76864 34.6702 4.31898Z" fill="white"/>
<path d="M53.2939 16.7136V28.6777H55.7971H58.3002L58.3502 21.0925L58.4253 13.4833L59.3515 16.7136C59.8771 18.4843 60.7031 21.3318 61.1787 23.0546C61.6794 24.7535 62.23 26.7395 62.4553 27.4095L62.8308 28.6777H65.5091H68.2125L70.3151 21.2121L72.4427 13.7465L72.5178 21.2121L72.5679 28.6777H75.1961H77.8244V16.7136V4.74952H73.8444H69.8895L67.9872 11.7366C66.9359 15.589 65.9847 19.1064 65.9096 19.5372C65.8095 19.9679 65.6593 20.3507 65.5592 20.4225C65.459 20.4704 64.7832 18.3407 64.0823 15.6847C63.3564 13.0287 62.4053 9.51123 61.9547 7.86019L61.1287 4.86916L57.2238 4.79737L53.2939 4.72559V16.7136Z" fill="white"/>
<path d="M97.0976 5.10851C92.3667 6.37671 90.1139 10.1334 90.0889 16.6658C90.0889 22.6958 92.0914 26.4764 96.0713 28.0078C97.2728 28.4625 97.9486 28.5342 100.852 28.5342C103.656 28.5582 104.582 28.4625 106.309 27.9839C107.435 27.6728 108.412 27.3378 108.487 27.2421C108.587 27.0985 107.235 23.4375 106.985 23.2222C106.935 23.1743 106.109 23.294 105.133 23.5093C102.604 24.0597 99.3504 24.0118 98.1238 23.4136C96.1214 22.4565 95.2453 20.4226 95.2453 16.7137C95.2453 12.8852 96.3967 10.4445 98.5494 9.75059C99.7759 9.34381 102.855 9.41559 105.082 9.89416C106.084 10.1334 106.935 10.2531 106.985 10.2052C107.31 9.89416 108.587 6.30492 108.437 6.16135C108.311 6.04171 107.31 5.73065 106.234 5.44351C103.556 4.77352 98.9999 4.60602 97.0976 5.10851Z" fill="white"/>
<path d="M119.876 16.7136V28.6777H122.504H125.132V21.906C125.158 15.9958 125.183 15.2061 125.508 15.6129C125.708 15.8522 127.586 18.8911 129.688 22.3607L133.518 28.6538L135.971 28.6777H138.399V16.7136V4.74951H135.771H133.142L133.092 11.4733L133.017 18.1972L128.912 11.4733L124.782 4.74951H122.329H119.876V16.7136Z" fill="white"/>
<path d="M19.0012 7.04689C16.9486 7.54939 14.2953 8.88937 12.6683 10.2293C10.8911 11.689 10.2153 12.4547 9.11389 14.2254C8.03755 15.9003 7.96246 16.5703 8.88861 15.7328L9.53942 15.1586L10.04 15.8285C10.5156 16.4507 10.6158 16.4746 12.8185 16.4746H15.1213L16.9486 15.0868C18.6758 13.7707 18.7508 13.675 18.7508 12.694V11.689L19.7271 11.8325C20.5781 11.9522 20.7283 11.9043 21.2289 11.2583C21.6294 10.7079 21.7546 10.1815 21.7546 8.98508C21.7546 8.12366 21.8797 7.33403 22.0049 7.26225C22.1551 7.19046 22.2552 7.02296 22.2552 6.87939C22.2552 6.56833 20.6031 6.64011 19.0012 7.04689Z" fill="white"/>
<path d="M22.9056 7.19033C22.6303 7.54925 22.5051 8.2671 22.5051 9.29601C22.5051 10.6838 22.43 10.971 21.7292 11.7606C21.1785 12.4067 20.778 12.646 20.2273 12.646C19.6015 12.646 19.5014 12.7417 19.5014 13.3399C19.5014 13.962 19.176 14.297 17.3988 15.6131L15.2962 17.1923H12.8181C10.6905 17.1923 10.265 17.1205 9.88949 16.7377C9.48899 16.307 9.43893 16.307 8.51278 16.7616C7.63669 17.1684 7.51153 17.3359 7.21116 18.6998C6.73557 20.7098 6.81066 24.1315 7.33632 26.0218C8.6129 30.5203 11.892 34.2292 16.4226 36.2631C17.3988 36.6938 18.2749 37.0527 18.35 37.0527C18.4 37.0527 18.9758 35.5453 19.6266 33.7028C20.2774 31.8603 20.8531 30.3528 20.9032 30.3528C20.9782 30.3528 26.5101 31.8125 27.8117 32.1714C28.1371 32.2671 28.4876 31.9321 29.1634 30.9032C29.664 30.1375 30.1146 29.4675 30.1646 29.4436C30.1897 29.3957 30.8655 29.8025 31.6415 30.3768L33.0682 31.4057L34.9456 30.8075C37.1733 30.1136 37.4987 29.7786 38.4499 27.2422C39.0006 25.8065 39.1508 24.8972 39.2259 22.6719C39.351 19.4176 39.0006 17.7905 37.5738 15.0388C36.2722 12.5024 33.1183 9.48743 30.5151 8.29102C27.0358 6.6639 23.6315 6.18534 22.9056 7.19033Z" fill="white"/>
<path d="M82.0791 26.8831V28.6777H83.8313H85.5834V26.8831V25.0885H83.8313H82.0791V26.8831Z" fill="white"/>
<path d="M111.866 26.8831V28.6777H113.618H115.371V26.8831V25.0885H113.618H111.866V26.8831Z" fill="white"/>
<path d="M142.654 26.8831V28.6777H144.406H146.159V26.8831V25.0885H144.406H142.654V26.8831Z" fill="white"/>
<path d="M29.5644 32.0279C29.1389 32.6979 28.6633 33.2243 28.5381 33.2243C28.413 33.2243 26.7609 32.7936 24.8586 32.2672C22.9562 31.7408 21.3292 31.4058 21.2291 31.5015C20.9537 31.7886 19.2015 37.0768 19.3267 37.2203C19.4018 37.2682 20.2278 37.4357 21.179 37.5553C24.1827 37.9142 27.1865 37.4117 30.2402 36.0478C31.8923 35.3061 32.7684 34.6839 34.3704 33.1765C36.523 31.1426 36.523 31.1186 33.9949 31.7886C32.9186 32.0997 32.8184 32.0758 31.8673 31.4776C31.3416 31.1186 30.7909 30.8315 30.6407 30.8315C30.5156 30.8315 30.015 31.3818 29.5644 32.0279Z" fill="white"/>
<path d="M51.792 37.5311C51.792 41.9818 52.2426 42.4364 52.3427 38.0815L52.4178 35.0187L53.419 36.6937C53.9697 37.6029 54.5454 38.3686 54.6956 38.4165C54.8208 38.4643 55.3965 37.7465 55.9221 36.8372C56.4728 35.904 56.9985 35.234 57.0986 35.3297C57.1987 35.4255 57.3239 36.7894 57.3739 38.3686C57.449 41.2161 57.449 41.2161 57.4991 37.579C57.5241 35.593 57.449 33.9419 57.3489 33.9419C57.2488 33.9419 56.673 34.7555 56.0723 35.7365C55.4966 36.7176 54.9209 37.579 54.7957 37.6508C54.6956 37.7226 54.0698 36.909 53.419 35.8562C52.7682 34.8033 52.1424 33.9419 52.0173 33.9419C51.8921 33.9419 51.792 35.5451 51.792 37.5311Z" fill="white"/>
<path d="M68.0619 34.9948V36.1194L66.8104 35.9519C65.6339 35.8083 65.5338 35.8323 64.6827 36.6458C64.0069 37.2919 63.8066 37.6747 63.8066 38.3447C63.8066 40.2829 64.933 41.2161 67.0356 41.0725L68.3623 40.9768L68.3373 37.5312C68.3122 35.6408 68.2371 34.0376 68.1871 33.9659C68.112 33.918 68.0619 34.3726 68.0619 34.9948ZM67.5863 36.574C67.9868 36.7894 68.0619 37.1005 68.0619 38.4644C68.0619 40.3308 67.8116 40.6897 66.4349 40.6897C65.3836 40.6897 64.8579 40.3308 64.3824 39.254C64.107 38.6079 64.107 38.3686 64.4074 37.6747C64.6076 37.2201 64.9581 36.7415 65.2334 36.598C65.8091 36.2869 66.9606 36.263 67.5863 36.574Z" fill="white"/>
<path d="M76.8727 34.8515C76.8227 35.6651 76.6975 35.9044 76.272 36.0958L75.6963 36.3112L76.272 36.4787C76.7977 36.6222 76.8227 36.7419 76.8227 38.9193C76.8227 40.1636 76.8978 41.1207 76.9729 41.0489C77.073 40.9532 77.1231 39.9243 77.098 38.7279L77.048 36.5744H77.7989C78.7501 36.5744 78.8252 36.1437 77.899 36.0479C77.2732 35.9762 77.1731 35.8565 77.048 34.8994L76.8978 33.8226L76.8727 34.8515Z" fill="white"/>
<path d="M96.1724 34.4207C94.0948 35.6171 93.8945 38.6321 95.7719 40.331C96.4978 41.001 96.8232 41.1206 97.8494 41.1206C98.6755 41.1206 99.2261 40.977 99.6266 40.642C100.077 40.307 100.127 40.1874 99.8269 40.1635C99.6266 40.1635 99.3263 40.2831 99.1761 40.4267C98.7756 40.8095 97.2237 40.7856 96.4978 40.4028C95.7969 40.0438 94.8457 38.4167 94.8457 37.5792C94.8457 36.7178 95.4715 35.4975 96.2224 34.9471C97.0234 34.325 98.5253 34.2532 99.2512 34.7796C99.8019 35.1864 100.102 35.2343 100.102 34.8993C100.102 34.5403 98.7005 33.9421 97.7994 33.9421C97.3488 33.9421 96.6229 34.1575 96.1724 34.4207Z" fill="white"/>
<path d="M106.109 37.5314C106.109 39.7567 106.209 41.1206 106.36 41.1206C106.51 41.1206 106.61 39.7567 106.61 37.5314C106.61 35.306 106.51 33.9421 106.36 33.9421C106.209 33.9421 106.109 35.306 106.109 37.5314Z" fill="white"/>
<path d="M108.612 34.8993C108.612 35.5453 108.487 35.9282 108.237 36C108.037 36.0957 107.861 36.2392 107.861 36.3589C107.861 36.4785 108.037 36.5742 108.237 36.5742C108.537 36.5742 108.612 36.981 108.612 38.8474C108.612 40.2113 108.712 41.1206 108.863 41.1206C109.013 41.1206 109.113 40.2113 109.113 38.8714V36.6221L109.939 36.4307L110.74 36.2392L109.939 36.1675C109.138 36.0718 109.113 36.0239 109.113 34.995C109.113 34.4207 109.013 33.9421 108.863 33.9421C108.737 33.9421 108.612 34.3728 108.612 34.8993Z" fill="white"/>
<path d="M124.632 37.5074C124.632 39.7567 124.732 41.1206 124.882 41.1206C125.032 41.1206 125.132 39.8046 125.132 37.6749C125.132 35.6171 125.032 34.1575 124.882 34.0618C124.732 33.9661 124.632 35.1864 124.632 37.5074Z" fill="white"/>
<path d="M126.385 37.5074C126.385 39.7567 126.485 41.1206 126.635 41.1206C126.785 41.1206 126.885 39.8046 126.885 37.6749C126.885 35.6171 126.785 34.1575 126.635 34.0618C126.485 33.9661 126.385 35.1864 126.385 37.5074Z" fill="white"/>
<path d="M141.603 34.0857C141.478 34.1814 141.403 34.66 141.403 35.1625C141.403 35.8085 141.278 36.0957 140.977 36.1675C140.602 36.2632 140.602 36.311 141.077 36.4546C141.603 36.6221 141.653 36.7896 141.728 38.9431L141.803 41.2402L141.853 38.8953C141.903 36.5982 141.903 36.5742 142.504 36.5742C143.38 36.5742 143.555 36.1435 142.729 36.0478C142.104 35.976 142.003 35.8564 141.903 34.9471C141.828 34.3728 141.703 33.99 141.603 34.0857Z" fill="white"/>
<path d="M147.16 37.5074C147.16 41.982 147.611 42.4367 147.711 38.0817L147.786 35.0189L149.638 38.0817C150.665 39.7567 151.591 41.1206 151.716 41.1206C151.816 41.1206 151.916 39.4935 151.916 37.4835C151.916 33.1286 151.465 32.8414 151.365 37.1246L151.29 39.9481L149.513 37.005C148.537 35.4018 147.611 34.0379 147.435 33.99C147.235 33.9182 147.16 34.9232 147.16 37.5074Z" fill="white"/>
<path d="M69.689 34.4206C69.7891 34.5642 69.9643 34.612 70.0895 34.5403C70.4399 34.3249 70.3648 34.1813 69.9143 34.1813C69.714 34.1813 69.6139 34.301 69.689 34.4206Z" fill="white"/>
<path d="M79.8262 34.4448C79.8262 34.5644 79.9513 34.6123 80.0765 34.5405C80.2267 34.4687 80.3268 34.3491 80.3268 34.2773C80.3268 34.2294 80.2267 34.1816 80.0765 34.1816C79.9513 34.1816 79.8262 34.3012 79.8262 34.4448Z" fill="white"/>
<path d="M174.193 34.4209C174.193 34.5405 174.319 34.6602 174.444 34.6602C174.594 34.6602 174.694 34.5405 174.694 34.4209C174.694 34.2773 174.594 34.1816 174.444 34.1816C174.319 34.1816 174.193 34.2773 174.193 34.4209Z" fill="white"/>
<path d="M60.8533 34.9231C60.5529 35.3777 60.578 35.3777 61.0535 35.1385C61.3289 34.9949 61.5542 34.7795 61.5542 34.6599C61.5542 34.2531 61.1787 34.3967 60.8533 34.9231Z" fill="white"/>
<path d="M168.186 34.7797C167.686 35.354 168.036 35.4497 168.562 34.8994C168.812 34.6362 168.887 34.4208 168.762 34.4208C168.612 34.4208 168.362 34.5883 168.186 34.7797Z" fill="white"/>
<path d="M59.6517 36.215C58.4001 37.0286 58.2249 39.4214 59.3263 40.546C59.8019 41.0485 60.1022 41.1203 61.0284 41.0724C61.6291 41.0246 62.1798 40.881 62.2299 40.7135C62.305 40.4982 62.1298 40.4742 61.554 40.6417C61.1285 40.7614 60.5778 40.7853 60.3526 40.7135C59.7768 40.5221 59.0509 39.6607 59.0509 39.1343C59.0509 38.7753 59.3012 38.7275 60.9533 38.7275H62.8807L62.7305 37.8182C62.4552 36.2389 60.8532 35.4015 59.6517 36.215ZM61.7793 36.9568C62.6804 38.0336 62.4802 38.2489 60.678 38.2489C58.8757 38.2489 58.6755 38.0336 59.5766 36.9568C59.877 36.5979 60.3275 36.3347 60.678 36.3347C61.0284 36.3347 61.479 36.5979 61.7793 36.9568Z" fill="white"/>
<path d="M69.9141 38.4885C69.9141 39.996 69.9389 40.6181 69.9886 39.8524C70.0383 39.1106 70.0383 37.8664 69.9886 37.1006C69.9389 36.3589 69.9141 36.981 69.9141 38.4885Z" fill="white"/>
<path d="M72.1917 36.0958C72.0916 36.2393 72.392 36.335 72.8675 36.335C73.8688 36.335 74.3193 36.694 74.3193 37.4597C74.3193 37.8904 74.1692 38.01 73.7186 38.01C72.1667 38.01 71.1404 38.9432 71.4157 40.0918C71.616 40.8335 72.9176 41.4078 73.7687 41.0968C74.0941 40.9771 74.4695 40.9293 74.5947 41.025C74.7198 41.0968 74.82 40.2593 74.82 39.015C74.82 37.1007 74.7699 36.8375 74.2443 36.3829C73.6435 35.8325 72.467 35.6651 72.1917 36.0958ZM74.3944 39.1346C74.3944 39.4457 74.3694 39.8525 74.3444 40.0439C74.2943 40.666 73.0928 40.9532 72.417 40.5225C71.2405 39.7807 72.0165 38.4168 73.5434 38.5364C74.2943 38.6082 74.4195 38.7039 74.3944 39.1346Z" fill="white"/>
<path d="M79.8262 38.4646C79.8262 40.0678 79.9263 41.1206 80.0765 41.1206C80.2267 41.1206 80.3268 40.1395 80.3268 38.6321C80.3268 37.2203 80.2267 36.0478 80.0765 35.976C79.9263 35.8803 79.8262 36.7657 79.8262 38.4646Z" fill="white"/>
<path d="M82.1792 36.67C81.4533 37.3639 81.3281 37.651 81.3281 38.6081C81.3281 40.1395 82.3043 41.1206 83.8312 41.1206C86.2592 41.1206 87.2355 38.0339 85.3081 36.4785C84.2317 35.5932 83.2305 35.665 82.1792 36.67ZM84.8575 36.646C86.5346 37.8664 85.8337 40.7138 83.8813 40.7138C81.9789 40.7138 81.0528 38.2492 82.4545 36.9332C83.1053 36.2871 84.2067 36.1675 84.8575 36.646Z" fill="white"/>
<path d="M88.1122 36.0718C87.912 36.1914 87.6116 36.2392 87.4113 36.1675C87.161 36.0718 87.0859 36.5503 87.0859 38.5842C87.0859 40.1156 87.1861 41.1206 87.3362 41.1206C87.4864 41.1206 87.5866 40.2831 87.5866 39.1106C87.5866 36.9092 87.8619 36.335 88.9382 36.335C89.9895 36.335 90.34 37.0289 90.34 39.1585C90.34 40.307 90.4401 41.1206 90.5903 41.1206C90.7405 41.1206 90.8406 40.2831 90.8406 39.0867C90.8406 37.2203 90.7905 36.981 90.2148 36.4546C89.589 35.8325 88.738 35.6889 88.1122 36.0718Z" fill="white"/>
<path d="M104.557 35.9997C104.432 36.0954 104.357 36.9808 104.357 37.9379C104.357 40.1632 104.106 40.6418 102.98 40.6418C101.853 40.6418 101.603 40.1632 101.603 37.914C101.603 36.8611 101.503 36.0954 101.353 36.0954C101.203 36.0954 101.103 36.8851 101.103 37.9858C101.103 40.2829 101.603 41.1204 102.98 41.1204C103.455 41.1204 103.906 41.0007 104.006 40.8572C104.106 40.6657 104.231 40.6897 104.382 40.905C104.782 41.5271 104.882 40.9289 104.807 38.3686C104.757 36.9569 104.657 35.904 104.557 35.9997Z" fill="white"/>
<path d="M114.87 37.6989C114.87 39.7328 114.544 40.4745 113.593 40.7138C113.243 40.8095 112.867 40.666 112.467 40.2831C111.941 39.7806 111.866 39.4935 111.866 37.8903C111.866 36.8614 111.766 36.0957 111.616 36.0957C111.465 36.0957 111.365 36.7896 111.365 37.6989C111.365 39.8524 111.916 40.977 113.042 41.0727C113.493 41.1206 114.069 41.0249 114.369 40.8813C114.694 40.7138 114.87 40.7138 114.87 40.8813C114.87 41.001 114.995 41.1206 115.12 41.1206C115.27 41.1206 115.37 40.1395 115.37 38.6321C115.37 37.2203 115.27 36.0478 115.12 35.976C114.97 35.8803 114.87 36.5025 114.87 37.6989Z" fill="white"/>
<path d="M116.372 38.4646C116.372 40.0678 116.472 41.1206 116.622 41.1206C116.773 41.1206 116.873 40.307 116.873 39.1346C116.873 37.4835 116.948 37.0528 117.323 36.7417C117.574 36.5025 117.924 36.335 118.074 36.335C118.249 36.335 118.375 36.2153 118.375 36.0957C118.375 35.7607 117.799 35.7846 117.423 36.1435C117.223 36.335 117.048 36.335 116.748 36.0957C116.422 35.8325 116.372 36.0957 116.372 38.4646Z" fill="white"/>
<path d="M120.302 36.335C118.374 37.7946 119.2 41.1206 121.478 41.1206C122.504 41.1206 123.18 40.9053 123.005 40.6181C122.93 40.5224 122.579 40.5224 122.204 40.666C121.153 41.0488 120.151 40.4745 119.776 39.2542C119.601 38.7278 119.626 38.7278 121.628 38.7278C123.631 38.7278 123.681 38.7039 123.531 38.1774C123.456 37.8903 123.38 37.5314 123.38 37.3878C123.38 36.9092 122.079 35.8564 121.503 35.8564C121.203 35.8564 120.652 36.0718 120.302 36.335ZM122.004 36.4785C122.354 36.6221 123.13 37.7467 123.13 38.1296C123.13 38.2014 122.354 38.2492 121.378 38.2492H119.626L119.901 37.5792C120.302 36.5264 121.053 36.1435 122.004 36.4785Z" fill="white"/>
<path d="M128.813 36.3349C127.436 37.3638 127.386 39.8762 128.713 40.7616C129.514 41.288 131.866 41.1923 131.516 40.618C131.441 40.5223 131.09 40.5223 130.715 40.6659C129.664 41.0487 128.662 40.4745 128.287 39.2541C128.112 38.7516 128.162 38.7277 129.989 38.7277C131.015 38.7277 131.917 38.632 131.992 38.5123C132.217 38.2013 131.691 37.0288 131.09 36.3827C130.415 35.7367 129.664 35.7127 128.813 36.3349ZM130.515 36.4784C130.865 36.622 131.641 37.7466 131.641 38.1295C131.641 38.2013 130.865 38.2491 129.889 38.2491C128.938 38.2491 128.137 38.2013 128.137 38.1295C128.137 38.0338 128.312 37.6749 128.512 37.292C128.988 36.4067 129.614 36.1674 130.515 36.4784Z" fill="white"/>
<path d="M136.572 36.335C134.695 37.7467 135.546 41.1206 137.748 41.1206C138.775 41.1206 139.45 40.9053 139.275 40.6181C139.2 40.5224 138.85 40.5224 138.499 40.642C138.049 40.8095 137.648 40.7856 137.198 40.5942C136.522 40.2831 135.821 39.2781 136.046 38.9192C136.121 38.8235 137.022 38.7278 138.049 38.7278C139.15 38.7278 139.901 38.6321 139.901 38.4885C139.901 38.3449 139.726 37.8424 139.526 37.3639C138.85 35.8325 137.748 35.4496 136.572 36.335ZM138.274 36.4785C138.624 36.6221 139.4 37.7467 139.4 38.1296C139.4 38.2014 138.624 38.2492 137.648 38.2492H135.896L136.171 37.5792C136.572 36.5264 137.323 36.1435 138.274 36.4785Z" fill="white"/>
<path d="M156.421 37.8664C156.421 39.7567 156.371 39.9242 155.77 40.3788C155.32 40.7138 154.994 40.8095 154.594 40.666C153.768 40.3788 153.417 39.4935 153.417 37.6989C153.417 36.5503 153.342 36.1196 153.142 36.2393C152.716 36.4785 153.042 39.8046 153.543 40.5463C153.968 41.1685 155.069 41.312 155.945 40.8813C156.271 40.7138 156.421 40.7138 156.421 40.8813C156.421 41.001 156.546 41.1206 156.671 41.1206C156.822 41.1206 156.922 40.1396 156.922 38.6321C156.922 37.2203 156.822 36.0478 156.671 35.976C156.521 35.8803 156.421 36.5743 156.421 37.8664Z" fill="white"/>
<path d="M157.924 38.4646C157.924 40.0678 158.024 41.1206 158.174 41.1206C158.324 41.1206 158.424 40.307 158.424 39.1346C158.424 37.4835 158.5 37.0528 158.875 36.7417C159.926 35.8325 161.178 36.5742 161.178 38.0817C161.178 38.5603 161.303 38.9671 161.428 38.9671C161.578 38.9671 161.678 38.5842 161.678 38.1296C161.678 36.6939 162.955 35.9043 164.081 36.67C164.482 36.9571 164.582 37.3639 164.657 39.0628C164.707 40.2353 164.832 41.0488 164.958 40.977C165.083 40.9053 165.133 39.996 165.033 38.8953C164.907 37.4117 164.757 36.8135 164.357 36.3828C163.731 35.7368 162.955 35.7128 162.154 36.311C161.553 36.7657 161.528 36.7657 160.953 36.311C160.302 35.8085 159.426 35.7128 158.975 36.1435C158.775 36.335 158.6 36.335 158.299 36.0957C157.974 35.8325 157.924 36.0957 157.924 38.4646Z" fill="white"/>
<path d="M166.81 36.3828C165.583 37.4117 165.608 39.8763 166.86 40.7616C167.561 41.288 169.914 41.1684 169.563 40.6181C169.488 40.5223 169.138 40.5223 168.812 40.642C167.961 40.953 167.035 40.5702 166.584 39.7327C166.384 39.3499 166.284 38.967 166.359 38.8713C166.459 38.7995 167.36 38.7277 168.387 38.7277C170.189 38.7277 170.239 38.7038 170.089 38.1774C170.014 37.8902 169.939 37.5313 169.939 37.3877C169.939 36.8613 168.712 35.8563 168.086 35.8563C167.736 35.8563 167.16 36.0956 166.81 36.3828ZM168.887 36.7417C169.163 36.981 169.463 37.4117 169.563 37.6988C169.713 38.2252 169.663 38.2492 167.961 38.2492H166.184L166.459 37.5792C166.935 36.3588 167.961 35.9999 168.887 36.7417Z" fill="white"/>
<path d="M170.939 38.4646C170.939 40.0678 171.04 41.1206 171.19 41.1206C171.34 41.1206 171.44 40.3549 171.44 39.3021C171.44 37.2682 171.69 36.67 172.642 36.2871C173.192 36.0718 173.242 36 172.867 35.9282C172.617 35.8564 172.266 35.9521 172.066 36.0957C171.765 36.335 171.615 36.335 171.315 36.0957C170.99 35.8325 170.939 36.1196 170.939 38.4646Z" fill="white"/>
<path d="M177.322 36.1433C176.421 36.598 175.945 37.3876 175.945 38.4165C175.945 40.2111 177.672 41.4793 179.274 40.9051L179.95 40.6418V41.8383C179.95 42.5082 180.075 43.0347 180.201 43.0347C180.351 43.0347 180.451 41.7186 180.451 39.589V36.1673L179.525 35.9998C178.248 35.8083 177.898 35.8323 177.322 36.1433ZM179.65 36.5501C179.875 36.6698 179.95 37.244 179.9 38.5122C179.825 40.1633 179.775 40.2829 179.174 40.4983C177.647 41.0008 176.02 39.6608 176.321 38.1294C176.571 36.7655 178.498 35.8562 179.65 36.5501Z" fill="white"/>
<path d="M181.653 36C181.528 36.0957 181.453 36.8853 181.453 37.7467C181.453 39.8524 182.029 40.977 183.13 41.0727C183.581 41.1206 184.156 41.0249 184.457 40.8813C184.782 40.7138 184.957 40.7138 184.957 40.8813C184.957 41.001 185.083 41.1206 185.208 41.1206C185.358 41.1206 185.458 40.1395 185.458 38.6321C185.458 37.2203 185.358 36.0478 185.208 35.976C185.058 35.8803 184.957 36.5264 184.957 37.7707C184.957 39.4935 184.882 39.7806 184.357 40.2831C183.706 40.9053 182.98 40.8813 182.404 40.2113C182.229 40.0199 182.029 38.9431 181.954 37.8424C181.879 36.7178 181.753 35.9043 181.653 36Z" fill="white"/>
<path d="M187.11 36.5741C186.76 36.9809 186.409 37.6509 186.334 38.1055C186.134 39.0626 186.71 40.4983 187.46 40.8812C188.111 41.2162 189.763 41.0965 189.914 40.6898C189.989 40.4744 189.838 40.4505 189.338 40.6419C188.462 40.953 187.861 40.7855 187.21 39.9958C186.309 38.8951 186.509 38.7276 188.587 38.7276H190.464V37.9859C190.464 37.0766 189.263 35.8563 188.387 35.8563C187.986 35.8563 187.511 36.1434 187.11 36.5741ZM189.213 36.5741C189.463 36.6937 189.788 37.1245 189.914 37.5312L190.189 38.2491H188.437C187.486 38.2491 186.71 38.2012 186.71 38.1294C186.71 38.0337 186.885 37.6748 187.085 37.292C187.586 36.3588 188.312 36.1195 189.213 36.5741Z" fill="white"/>
<path d="M174.193 38.6081C174.193 40.1156 174.293 41.1206 174.444 41.1206C174.594 41.1206 174.694 40.1156 174.694 38.6081C174.694 37.1007 174.594 36.0957 174.444 36.0957C174.293 36.0957 174.193 37.1007 174.193 38.6081Z" fill="white"/>
</svg>
