<svg width="132" height="2248" viewBox="0 0 132 2248" fill="none" xmlns="http://www.w3.org/2000/svg">
<path d="M0.310516 2032.7C0.47081 2037.32 0.951706 2056.66 1.43262 2075.79C1.91351 2094.92 2.87532 2124.14 3.51653 2140.75C4.79893 2173.75 5.44013 2178.17 10.4896 2187.21C12.0125 2189.94 14.0162 2195.4 15.0582 2199.61C19.3062 2216.43 24.5159 2226.31 26.4395 2221.26C27.0006 2219.79 28.5234 2220.63 31.3287 2223.78C36.0576 2229.25 41.9086 2229.46 51.5266 2225.04L57.057 2222.31L59.3012 2229.46C61.4652 2236.19 61.6255 2236.4 64.1904 2233.87C67.9574 2230.3 72.4458 2230.72 74.9305 2234.92C76.8541 2238.29 77.0144 2238.29 78.0564 2234.5C78.6976 2232.4 79.1785 2229.25 79.1785 2227.99C79.1785 2225.89 80.3006 2225.68 83.3463 2226.52C87.1134 2227.78 87.5943 2227.36 89.1973 2222.1C90.2392 2218.53 92.0025 2216.01 93.846 2215.16C96.6513 2214.11 96.8917 2214.32 98.0138 2221.47C98.655 2225.68 99.5367 2229.46 99.8573 2230.09C100.258 2230.72 102.262 2228.41 104.346 2225.04C107.872 2219.16 108.193 2218.95 110.838 2221.68C112.281 2223.36 114.845 2228.62 116.448 2233.24C118.132 2238.08 119.975 2241.86 120.536 2241.86C121.177 2241.86 121.899 2243.33 122.139 2245.02C122.86 2249.64 124.624 2248.8 126.147 2243.12C126.868 2239.97 127.83 2238.5 128.551 2239.13C130.074 2240.6 130.074 2220.63 128.471 2201.92C127.028 2185.31 126.066 2122.25 127.108 2118.25C127.75 2115.73 128.15 2115.73 129.513 2118.04C132.078 2122.25 132.398 2119.31 130.395 2109C127.429 2093.87 127.269 2087.56 128.471 2033.75C130.314 1951.13 130.715 1851.07 129.673 1763.62C129.192 1719.68 128.471 1627.39 128.07 1558.65C127.669 1489.91 126.948 1365.88 126.467 1283.27C125.185 1061.07 125.105 711.474 126.227 628.438C126.788 590.179 127.429 537.834 127.669 511.767C127.91 485.7 128.471 449.332 128.952 431.043C130.154 378.068 132.078 281.999 131.998 276.323L131.917 271.068L131.276 276.323C130.635 281.158 127.269 367.558 126.147 409.811C125.826 419.061 124.864 435.038 123.902 445.338L122.139 464.048L123.902 467.201C125.265 469.513 125.505 470.985 124.784 474.138C124.383 476.451 124.063 479.814 124.223 481.916C124.303 483.808 124.143 486.751 123.742 488.223C123.341 490.115 123.662 493.899 124.544 498.313C125.826 504.41 125.906 506.302 125.024 512.608C124.463 516.602 123.822 522.068 123.582 524.801C122.86 532.789 121.738 617.087 121.658 661.022C121.658 684.146 120.937 723.247 119.975 751.416C119.093 778.534 118.452 804.391 118.612 808.595C118.853 814.481 118.612 816.583 117.731 816.583C116.769 816.583 116.689 810.697 117.09 778.114C117.41 757.092 117.891 697.6 118.132 645.886C118.693 559.487 118.612 551.709 117.41 550.447C116.448 549.606 116.048 546.663 116.048 540.988C116.048 536.573 115.727 532.789 115.246 532.789C114.364 532.789 113.964 537.414 113.323 553.18C113.082 559.276 112.2 566.844 111.319 569.998C110.036 574.833 109.716 580.719 109.315 605.314C109.075 621.501 108.514 650.721 108.033 670.482C107.632 690.032 106.991 721.985 106.75 741.325C106.269 772.227 105.628 784 104.586 780.846C104.346 780.005 104.827 700.964 105.869 583.452C105.949 569.577 105.708 563.481 105.067 562.85C103.785 561.589 103.384 569.787 102.823 608.468C102.582 626.336 102.021 665.437 101.621 695.288C101.22 725.139 100.659 750.365 100.418 751.206C99.6168 754.99 98.3344 807.334 97.6932 863.883C97.052 920.221 96.1704 940.612 94.3269 940.612C93.6857 940.612 93.6055 924.636 93.846 889.529C95.6895 660.391 96.7314 557.385 97.6131 530.687C98.8153 494.319 100.098 358.939 99.2962 353.683L98.5749 348.848L98.1741 354.104C97.9337 357.047 97.5329 367.768 97.2123 378.279C96.9719 388.579 96.3307 398.88 95.6895 401.403C94.0063 408.13 91.201 514.921 89.598 632.643C89.037 668.38 88.3958 705.378 87.995 714.628C87.5141 726.61 87.3538 717.991 87.6744 685.197C88.2355 618.979 89.4377 526.062 90.0789 506.932C90.5598 492.848 90.4797 490.745 89.4377 491.797C88.6362 492.637 87.995 496.842 87.7546 502.518C87.434 511.347 86.7126 515.761 86.1516 513.659C85.9913 513.239 86.1516 501.467 86.5523 487.592C86.8729 473.718 86.9531 459.002 86.7126 455.008C86.1516 448.071 86.1516 447.861 85.5905 452.906C85.1898 456.27 84.9493 451.435 84.8692 439.662C84.789 421.163 83.8272 416.959 82.8654 430.623C81.7433 445.969 80.7815 483.808 81.2624 493.268C81.7433 503.148 83.186 507.353 83.186 498.944C83.186 496.631 83.5066 495.16 83.9073 496.001C85.0295 497.683 83.9875 565.793 82.7051 575.884C81.6631 583.662 81.6631 581.98 81.9837 557.385C82.3043 530.056 81.4227 522.909 80.4609 544.771C80.1403 551.498 79.7395 572.941 79.4991 592.701C79.3388 612.251 78.6174 653.454 77.9762 684.146C77.335 714.838 76.2931 775.381 75.5717 818.686C74.129 911.392 73.7283 925.056 72.6061 922.113C72.0451 920.641 72.0451 876.706 72.3657 791.147C72.7664 720.093 72.9268 638.949 72.8466 610.57C72.7664 582.19 73.087 545.823 73.568 529.636C73.9687 513.449 74.9305 465.099 75.5717 422.425C78.4571 232.598 80.2204 160.913 82.8654 116.557C84.4684 90.28 85.2699 33.521 84.1478 31.6292C83.6669 30.9985 83.1058 32.6802 82.8654 36.0437C81.2624 56.2246 77.6556 167.64 73.1672 330.98C72.0451 371.972 69.881 446.81 68.278 497.052C66.7552 547.294 65.1522 614.143 64.7514 645.466C64.3507 676.578 63.469 711.264 62.7477 722.196C62.1064 733.127 61.5454 742.797 61.5454 744.058C61.5454 745.109 61.0645 744.689 60.5034 742.587C58.8203 737.121 55.2135 740.064 53.6907 748.473C53.0495 752.467 52.1678 755.62 51.8472 755.62C51.0457 755.62 50.6449 746.16 51.0457 735.019C51.2861 727.451 51.5266 726.19 52.7289 727.241C53.5304 727.871 54.412 727.661 54.6525 726.61C54.8929 725.559 55.2937 708.111 55.454 687.72C55.6143 667.539 56.0952 649.04 56.5761 646.938C57.6982 641.051 57.7783 506.091 56.6562 504.199C56.1753 503.569 55.454 504.199 54.9731 505.671C54.1716 508.824 54.7326 452.696 55.9349 409.811C57.2173 364.615 57.6982 319.207 57.057 309.748L56.4158 300.498L55.8547 308.907C55.5341 313.532 54.7326 336.656 54.0113 360.41C52.4884 407.919 51.9274 417.589 50.6449 418.641C50.0037 419.271 49.8434 416.538 50.0037 410.442C50.2442 405.397 51.6068 352.212 53.2098 292.3C55.454 204.218 55.8547 181.935 55.0532 177.1C54.5723 173.737 53.851 171.844 53.4502 172.686C53.1296 173.526 52.248 195.599 51.5266 221.666C50.8854 247.733 49.7633 287.464 49.1221 309.958C45.1146 454.378 44.4734 486.541 45.5153 498.734C46.397 509.034 46.6374 509.875 47.1183 505.461C47.4389 502.518 47.9198 492.848 48.2404 483.808C48.561 474.769 49.1221 465.519 49.4427 462.997C50.3243 456.48 49.6831 550.447 48.6412 576.304C48.1603 588.076 48 600.269 48.2404 603.633C48.4809 606.996 48.1603 611.621 47.5191 614.774C46.6374 618.768 46.397 619.189 46.3168 616.246C46.3168 614.143 45.6756 612.672 44.794 612.672C43.9123 612.672 43.0307 614.354 42.7902 616.246C42.149 622.552 41.5078 666.067 40.7063 771.387C40.2254 826.884 39.7445 881.331 39.504 892.262C39.1834 908.659 38.3018 1066.11 38.2216 1128.76C38.1415 1144.94 38.1415 1145.36 37.0995 1138.22C36.298 1132.33 36.1377 1104.79 36.3782 1006.83C36.6988 870.609 37.34 753.728 37.901 751.416C38.0613 750.785 38.3018 725.139 38.3819 694.447C38.5422 663.965 38.8628 625.705 39.1834 609.519C39.504 593.332 39.8246 556.123 39.9048 526.903C39.9849 483.598 39.7445 473.087 38.7827 469.513C37.7407 465.519 37.5804 466.36 37.0995 481.706C36.7789 490.745 36.298 502.728 35.8973 508.614C35.3362 518.704 35.2561 518.915 35.1759 510.926C35.0958 502.728 36.7789 437.771 38.3018 387.949C39.3437 355.575 40.0651 288.516 39.2636 301.97C38.0613 321.099 37.4201 315.003 37.6606 288.516C37.901 273.8 38.2216 260.977 38.5422 260.346C38.8628 259.505 39.1033 252.148 39.1033 244.16C39.1033 210.945 37.0995 241.847 35.0958 304.702C34.6149 320.889 33.6531 343.172 32.9317 354.104C32.2905 365.035 31.5692 385.847 31.3287 400.352C31.1684 414.857 30.5272 432.305 29.886 439.242C29.3249 446.179 28.3631 468.252 27.8021 488.013C27.241 507.983 26.5998 524.38 26.2792 524.38C25.9586 524.38 25.4777 501.467 25.2373 473.297C24.9167 436.089 25.077 414.857 25.8785 394.045C27.241 361.461 27.4815 275.482 26.2792 280.527C25.8785 282.209 25.4777 288.936 25.4777 295.243C25.4777 303.021 24.9167 309.117 23.8747 313.532C22.1114 321.099 21.2298 340.65 19.8672 399.301C19.3863 420.112 18.3443 453.327 17.4627 473.297C16.581 493.058 15.5391 532.369 15.0582 560.538C14.5773 588.707 13.8559 614.143 13.5353 617.087C13.2147 620.03 13.1346 624.234 13.4552 626.546C14.0162 631.171 13.2949 703.486 11.9323 775.591C11.4514 802.078 10.6499 875.865 10.169 939.561C9.6881 1003.05 9.12705 1057.91 8.96675 1061.49C8.00494 1079.36 7.20345 1105.42 7.12329 1119.72C7.04314 1128.55 6.64239 1138.43 6.24164 1141.58C5.60043 1145.57 5.68059 1147.89 6.32178 1149.99C7.04314 1152.3 6.96299 1153.77 5.92104 1156.72C4.47833 1160.92 4.15773 1169.75 5.44013 1169.75C5.84089 1169.75 6.24164 1168.7 6.24164 1167.65C6.24164 1166.39 6.56224 1165.55 7.04314 1165.55C7.52404 1165.55 7.84464 1171.22 7.84464 1178.16C7.84464 1188.46 7.52404 1191.19 6.24164 1193.29C4.31803 1196.45 4.07758 1203.38 5.92104 1203.38C7.12329 1203.38 7.20345 1205.91 6.80269 1226.93C6.56224 1239.96 5.76073 1255.31 5.11953 1261.19C3.91728 1271.29 3.91728 1271.92 5.52029 1275.49C6.80269 1278.22 7.12329 1280.32 6.72254 1284.95C5.35999 1299.03 4.95923 1315.85 5.19968 1344.23C5.35999 1361.05 5.60043 1380.81 5.68059 1388.38C5.92104 1416.34 4.47833 1620.46 3.67682 1669.02C3.19592 1696.77 2.71503 1761.51 2.63487 1813.02C2.47456 1872.51 1.91351 1923.8 1.11201 1953.65C-0.0902405 1998.01 -0.250549 2012.72 0.310516 2032.7ZM21.871 728.502C23.9549 723.247 24.1152 747.842 22.5122 803.34C22.2717 814.271 21.7908 820.157 21.2298 819.316C20.3481 818.055 20.9893 730.814 21.871 728.502ZM43.9123 930.101C44.3131 926.738 44.5535 932.203 44.6337 946.288C44.7138 958.481 44.3932 968.151 43.9123 968.992C42.9505 970.463 42.9505 938.09 43.9123 930.101ZM43.9123 848.957C43.9123 846.224 44.1528 843.912 44.5535 843.912C44.8741 843.912 45.0344 847.696 44.8741 852.321C44.7138 856.945 44.1528 860.729 43.752 860.729C43.2711 860.729 43.191 859.258 43.4314 857.366C43.6719 855.474 43.9123 851.69 43.9123 848.957ZM44.7138 751.416C45.1947 749.314 45.7558 749.104 46.2367 750.365C47.2786 753.098 46.0764 786.522 44.794 789.886C43.6719 792.829 43.5917 756.041 44.7138 751.416ZM50.3243 444.497C50.7251 444.497 51.1258 445.969 51.1258 447.651C51.1258 449.332 50.7251 450.804 50.3243 450.804C49.8434 450.804 49.5228 449.332 49.5228 447.651C49.5228 445.969 49.8434 444.497 50.3243 444.497ZM56.7364 851.48C57.9386 848.326 58.5798 860.729 57.5379 866.615C56.5761 872.081 56.4959 872.081 55.8547 868.087C55.1334 863.462 55.6143 854.423 56.7364 851.48ZM57.5379 838.656C57.9386 838.026 58.3394 838.446 58.3394 839.497C58.3394 840.759 57.9386 841.81 57.5379 841.81C57.057 841.81 56.7364 841.389 56.7364 840.969C56.7364 840.338 57.057 839.287 57.5379 838.656ZM72.8466 946.078C73.2473 946.708 73.568 953.015 73.568 960.162C73.568 972.145 72.526 975.088 71.8046 964.787C71.4039 958.06 72.0451 944.817 72.8466 946.078ZM72.7664 979.503C73.1672 978.872 73.568 980.133 73.568 982.656C73.568 985.178 73.1672 986.44 72.7664 985.809C72.2855 985.178 71.9649 983.707 71.9649 982.656C71.9649 981.605 72.2855 980.133 72.7664 979.503ZM79.8998 751.836C81.2624 746.16 81.6631 756.041 81.1021 780.636C80.3006 816.373 79.2586 818.265 79.2586 784C79.2586 767.813 79.4991 753.308 79.8998 751.836ZM80.3006 730.394C81.1822 730.394 81.5028 734.388 80.7815 735.65C80.3807 736.28 79.98 735.439 79.98 733.758C79.98 731.866 80.1403 730.394 80.3006 730.394ZM81.3425 656.187C81.5028 658.92 81.5028 663.545 81.3425 666.698C81.1822 670.061 81.0219 667.749 81.0219 662.073C81.0219 656.187 81.1822 653.664 81.3425 656.187ZM81.583 609.519C81.9837 610.149 82.3845 611.831 82.3845 612.882C82.3845 614.143 81.9837 614.354 81.583 613.723C81.1021 613.092 80.7815 611.411 80.7815 610.359C80.7815 609.098 81.1021 608.888 81.583 609.519ZM86.4722 779.795C86.8729 778.744 87.1935 784.841 87.1935 794.09C87.1935 802.919 86.8729 810.277 86.4722 810.277C84.8692 810.277 84.8692 784.42 86.4722 779.795ZM94.1666 958.901C94.3269 960.373 94.3269 962.895 94.1666 964.157C93.9261 965.628 93.7658 964.577 93.7658 961.634C93.7658 958.691 93.9261 957.64 94.1666 958.901ZM118.132 829.197C119.334 829.197 119.414 831.719 118.933 852.741C118.132 886.796 116.929 888.688 116.849 855.894C116.849 832.56 117.009 829.197 118.132 829.197Z" fill="#FFE1E8"/>
<path d="M63.6303 474.349C64.6723 477.292 65.5539 473.718 65.5539 466.36C65.5539 462.366 66.2753 451.855 67.0768 442.816C68.1989 431.254 69.2408 403.926 70.7637 347.797C73.0079 259.926 73.0881 257.404 72.0461 257.404C71.0042 257.404 69.5614 274.642 69.5614 287.675C69.5614 293.982 69.2408 299.658 68.8401 300.288C68.5195 300.919 68.5195 306.174 69.0004 312.06C69.6416 320.89 69.5614 323.412 68.279 328.247C66.7562 334.343 66.115 359.78 67.3974 361.041C67.7981 361.251 67.4775 369.66 66.7562 379.33C66.115 389.21 65.1532 409.391 64.7524 424.527C64.2715 439.453 63.7105 456.48 63.47 462.366C63.2296 468.042 63.3097 473.508 63.6303 474.349Z" fill="#FFE1E8"/>
<path d="M70.3609 234.28C70.7617 235.961 71.1624 239.955 71.1624 243.109C71.1624 246.262 71.483 249.205 71.8838 249.836C72.6051 251.097 72.525 254.881 76.7729 121.813C78.5362 66.3153 80.1393 16.4936 80.4599 11.2382C81.0209 -1.58513 79.498 -4.31796 78.3759 7.66446C77.9752 12.7097 77.1737 20.0673 76.7729 24.2717C76.292 28.476 75.9714 38.3563 75.9714 46.3446C75.9714 54.3329 75.5707 66.9459 75.0898 74.5138C74.6089 82.0816 74.128 98.4787 73.8875 111.302C73.7272 123.915 73.086 140.102 72.4448 147.039C70.4411 168.902 70.1205 184.878 71.5632 188.032C73.086 191.395 73.086 197.281 71.5632 200.645C70.922 202.116 70.5212 204.008 70.7617 204.849C71.0021 205.9 70.7617 209.053 70.2808 211.996C69.5594 216.201 69.5594 218.093 70.3609 220.615C71.1624 223.138 71.1624 224.61 70.5212 226.291C69.3991 229.234 69.319 230.285 70.3609 234.28Z" fill="#FFE1E8"/>
<path d="M90.3195 446.6C90.8805 451.435 90.9607 451.225 91.4416 443.446C91.7622 438.822 92.3232 420.743 92.8041 403.505C93.2049 386.057 94.0865 352.632 94.7277 328.878C96.9719 248.154 97.0521 242.688 96.0903 242.688C94.8079 242.688 94.7277 245.211 92.4034 341.491C91.2011 390.682 90.1592 433.146 89.9989 436.089C89.8386 439.032 89.9989 443.657 90.3195 446.6Z" fill="#FFE1E8"/>
<path d="M96.8123 196.44C97.8542 192.236 97.8542 181.094 96.8123 182.776C96.3314 183.406 96.0108 187.611 96.0108 191.815C96.0108 197.701 96.2512 198.752 96.8123 196.44Z" fill="#FFE1E8"/>
<path d="M99.2165 346.746C99.7775 347.587 99.8577 345.064 99.5371 338.968C98.8157 326.986 98.415 326.145 98.415 336.866C98.415 341.491 98.8157 346.116 99.2165 346.746Z" fill="#FFE1E8"/>
<path d="M100.098 302.601C100.498 294.402 100.979 276.534 101.22 262.659C101.54 239.535 101.54 238.064 100.418 243.74C99.5367 248.575 99.2962 258.245 99.3764 283.681C99.4565 312.481 99.5367 315.214 100.098 302.601Z" fill="#FFE1E8"/>
<path d="M101.299 192.866C102.742 196.65 103.223 193.497 103.223 180.043C103.223 171.004 102.902 167.009 102.501 169.112C101.459 173.736 100.578 190.974 101.299 192.866Z" fill="#FFE1E8"/>
<path d="M111.96 503.359C113.804 503.359 118.773 479.394 120.136 464.048C120.937 455.219 122.54 390.051 121.979 387.949C121.819 387.739 120.456 389.841 118.853 393.204C117.09 396.778 116.128 400.142 116.449 402.034C117.01 406.238 115.327 431.884 113.964 438.611C111.88 448.702 110.277 503.359 111.96 503.359ZM119.254 397.198C119.655 397.829 120.055 399.511 120.055 400.562C120.055 401.823 119.655 402.034 119.254 401.403C118.773 400.772 118.452 399.09 118.452 398.039C118.452 396.778 118.773 396.568 119.254 397.198Z" fill="#FFE1E8"/>
</svg>
