<svg width="549" height="20" viewBox="0 0 549 20" fill="none" xmlns="http://www.w3.org/2000/svg">
<path d="M55.2628 0.0470467C54.0758 0.0713348 49.1117 0.144199 44.2016 0.217064C39.2915 0.289927 31.7914 0.435656 27.5288 0.532808C19.0575 0.727112 17.9244 0.824263 15.6043 1.58933C14.9028 1.82007 13.5 2.12367 12.4208 2.28154C8.10424 2.92517 5.56825 3.71453 6.86322 4.00599C7.24092 4.091 7.02509 4.32173 6.21573 4.74677C4.81285 5.46327 4.75889 6.34978 5.89199 7.80706L6.59343 8.645L4.75889 8.98503C3.03226 9.31292 2.9783 9.3372 3.62579 9.72581C4.54306 10.2966 4.43515 10.9766 3.356 11.3531C2.49269 11.6446 2.49269 11.6689 3.46392 11.8267C4.00349 11.9239 4.81285 11.9967 5.13659 11.9967C5.67616 11.9967 5.73012 12.1668 5.51429 12.6282C5.19055 13.199 5.29846 13.2719 6.64739 13.5147C7.56466 13.6726 8.21215 13.9398 8.42798 14.2191C8.69777 14.6441 8.64381 14.6806 6.80926 14.8506C5.73012 14.9477 4.75889 15.0813 4.59702 15.1299C4.43515 15.1906 5.02867 15.4942 5.89199 15.81C7.40279 16.3443 7.45675 16.3929 6.75531 16.7936C6.32365 17.0122 4.97472 17.4008 3.78766 17.6437C2.54664 17.8987 1.57541 18.178 1.57541 18.263C1.57541 18.3602 1.19771 18.4695 0.766056 18.5059C-0.421003 18.6152 -0.205174 18.8824 1.25167 19.1131C2.06103 19.2224 2.43873 19.3681 2.27686 19.4774C1.89916 19.7082 7.02509 19.7082 11.8273 19.4653C16.0899 19.2467 32.2771 19.101 33.3022 19.2588C33.9497 19.356 33.9497 19.4167 33.3562 19.6232C32.2771 20.0118 33.0325 20.0604 35.6764 19.7568C39.5613 19.3074 41.18 19.2831 54.993 19.4653C76.1982 19.7446 101.882 19.8053 124.328 19.6475C135.605 19.5746 159.292 19.4653 176.936 19.4046C194.58 19.3439 226.415 19.2346 247.62 19.1617C304.653 18.9674 394.384 18.9552 415.697 19.1253C425.517 19.2103 438.952 19.3074 445.643 19.3439C452.334 19.3803 461.668 19.4653 466.363 19.5382C479.96 19.7203 504.618 20.0118 506.075 19.9996L507.424 19.9875L506.075 19.8903C504.834 19.7932 482.658 19.2831 471.812 19.1131C469.438 19.0645 465.338 18.9188 462.694 18.7731L457.891 18.5059L457.082 18.7731C456.489 18.9795 456.111 19.016 455.302 18.9067C454.708 18.846 453.845 18.7974 453.305 18.8217C452.819 18.8338 452.064 18.8095 451.686 18.7488C451.201 18.6881 450.23 18.7367 449.096 18.8702C447.532 19.0645 447.046 19.0767 445.427 18.9431C444.402 18.8581 442.999 18.7609 442.298 18.7245C440.247 18.6152 418.611 18.4452 407.334 18.4331C401.398 18.4331 391.362 18.3238 384.132 18.178C377.171 18.0444 370.535 17.9473 369.456 17.9716C367.945 18.008 367.405 17.9716 367.405 17.838C367.405 17.6923 368.916 17.6801 377.279 17.7408C382.675 17.7894 397.945 17.8623 411.218 17.8987C433.395 17.9837 435.391 17.9716 435.715 17.7894C435.931 17.6437 436.686 17.583 438.143 17.583C439.276 17.583 440.247 17.5344 440.247 17.4615C440.247 17.328 439.06 17.2672 435.014 17.1701C433.449 17.1336 431.506 17.0001 430.697 16.8665C429.456 16.6722 427.945 16.6236 421.632 16.5629C417.478 16.5264 409.977 16.4414 404.905 16.3686C399.887 16.3079 391.686 16.2107 386.722 16.1743C378.79 16.1014 375.769 16.0043 376.578 15.8464C376.794 15.81 397.082 15.8828 427.244 16.0407C430.805 16.0528 432.37 16.0164 432.532 15.9193C432.855 15.7249 430.751 15.6642 420.823 15.5792C416.237 15.5428 406.2 15.4578 398.539 15.3971C390.877 15.3363 384.402 15.2513 384.186 15.2149C383.215 15.0935 369.779 14.8992 355.265 14.802C340.804 14.7049 335.57 14.5713 335.57 14.292C335.57 14.1948 339.671 14.1827 348.682 14.2191C407.495 14.4984 433.934 14.6563 440.787 14.7899C450.122 14.972 484.87 15.1663 486.219 15.0449L487.46 14.9356L486.111 14.8749C485.356 14.8384 482.604 14.7777 479.906 14.7291C477.262 14.6927 474.618 14.5956 473.971 14.4984C472.244 14.2434 444.834 13.8183 414.618 13.5755C405.445 13.4905 395.949 13.3933 393.574 13.3326C390.499 13.2597 392.711 13.2354 401.128 13.284C418.125 13.369 441.974 13.5512 446.884 13.6483C450.499 13.7212 451.039 13.709 450.769 13.5512C450.553 13.4297 449.474 13.3326 448.017 13.2961C445.751 13.2476 444.618 13.1383 445.158 13.0533C445.265 13.029 448.287 13.0533 451.848 13.114C455.409 13.1626 459.186 13.1747 460.212 13.1383C461.992 13.0533 462.046 13.0533 460.751 12.9683C459.888 12.9075 461.129 12.8711 464.15 12.859C468.899 12.8468 469.978 12.7011 466.471 12.5554C462.532 12.3853 452.819 12.2396 450.391 12.3125C447.855 12.3853 446.776 12.6039 448.935 12.6039C449.528 12.6039 449.906 12.6525 449.69 12.7132C449.258 12.8833 431.776 12.7254 429.186 12.5311C427.19 12.3732 427.621 12.3732 433.934 12.4218C440.949 12.4704 442.783 12.3368 437.172 12.191C435.445 12.1425 429.942 12.0817 424.87 12.0453C419.852 12.021 409.276 11.9117 401.398 11.8146C393.521 11.7174 377.981 11.5596 366.866 11.4503C343.071 11.2317 339.563 11.1709 340.319 11.0009C340.696 10.9159 351.973 10.9159 373.934 10.9645C392.172 11.0252 412.999 11.0495 420.283 11.0374C427.568 11.0252 436.902 11.0738 441.057 11.1467C445.212 11.2074 457.622 11.3531 468.575 11.4503C517.298 11.8874 535.698 12.1546 547.083 12.5554C553.827 12.7982 568.396 12.9197 568.881 12.7497C569.043 12.6768 568.612 12.5918 567.748 12.5554C562.568 12.3125 533.971 11.766 492.046 11.0859C481.525 10.9159 462.316 10.588 449.42 10.3452C436.524 10.1144 419.366 9.87154 411.326 9.81082C403.341 9.7501 394.438 9.61652 391.632 9.50722C388.826 9.41007 386.344 9.32506 386.02 9.32506C385.751 9.32506 385.859 9.2522 386.398 9.16719C387.801 8.91216 387.046 8.36568 384.887 8.13495C383.862 8.0378 383.053 7.90421 383.053 7.85564C383.053 7.7342 385.481 7.67348 388.341 7.7342C390.283 7.77063 390.607 7.80706 390.337 7.98922C390.175 8.11066 390.229 8.24424 390.499 8.28068C390.769 8.31711 395.247 8.37783 400.481 8.40212C405.661 8.4264 410.409 8.49927 410.949 8.57213C412.46 8.74215 447.1 8.75429 447.586 8.58428C447.747 8.51141 447.586 8.40212 447.208 8.32925C446.399 8.20781 460.805 8.29282 471.812 8.47498C483.413 8.66928 495.068 8.74215 497.496 8.645L499.87 8.54784L497.712 8.46284C496.525 8.41426 490.59 8.29282 484.492 8.18353C472.298 7.95279 469.816 7.86778 469.546 7.67348C469.384 7.57632 470.086 7.55204 471.651 7.57632C472.946 7.61276 486.597 7.8192 501.974 8.06208C524.583 8.40212 530.302 8.46284 531.543 8.3414C532.406 8.26853 532.892 8.15924 532.676 8.09852C532.46 8.04994 526.795 7.91636 520.104 7.80706C513.413 7.70991 503.216 7.53989 497.442 7.44274C460.373 6.83554 452.118 6.73839 448.989 6.89626C446.345 7.02985 446.129 7.06628 447.262 7.13914C448.017 7.18772 450.499 7.26058 452.819 7.30916C455.14 7.35773 457.514 7.44274 458.161 7.49132C459.834 7.6249 435.715 7.52775 429.078 7.36988C426.057 7.29701 422.927 7.27273 422.064 7.30916C421.201 7.34559 420.013 7.29701 419.204 7.19986C418.179 7.06628 418.071 7.02985 418.826 7.0177C419.366 7.0177 419.744 6.92055 419.744 6.78697C419.744 6.65338 419.312 6.5198 418.826 6.48337C417.208 6.38621 406.039 6.28906 379.006 6.16762C364.761 6.09476 350.786 6.02189 347.981 5.98546C343.772 5.93689 303.358 5.8033 287.279 5.79116C283.124 5.77901 283.016 5.77901 284.851 5.62114C286.362 5.4997 293.43 5.47541 318.574 5.51185C353.538 5.56042 383.538 5.65757 384.132 5.74258C384.294 5.76687 390.877 5.8033 398.754 5.81545C406.578 5.83973 416.398 5.88831 420.553 5.93689C424.708 5.98546 434.258 6.03404 441.758 6.04618C452.873 6.05833 455.571 6.02189 456.489 5.87617C457.514 5.71829 457.298 5.69401 453.359 5.62114C451.039 5.57257 447.963 5.4997 446.453 5.43898C443.863 5.35397 443.809 5.34183 445.859 5.32969C447.963 5.31754 464.636 5.57257 477.424 5.8033C485.733 5.96117 502.946 6.07047 499.492 5.94903C494.582 5.76687 496.147 5.66972 502.946 5.70615C506.723 5.74258 510.014 5.79116 510.176 5.83973C510.392 5.88831 512.28 5.92474 514.331 5.92474C522.856 5.92474 514.924 5.62114 498.791 5.31754C494.636 5.24468 488.917 5.09895 486.111 4.98965C483.305 4.8925 477.964 4.78321 474.24 4.74677C470.517 4.72249 466.039 4.62533 464.258 4.52818C462.478 4.44317 456.812 4.29745 451.74 4.21244C446.614 4.12743 442.406 4.03028 442.406 3.9817C442.406 3.93313 448.287 3.86026 455.517 3.82383C465.068 3.77525 470.517 3.79954 475.859 3.92098C484.223 4.12743 506.291 4.16386 504.996 3.9817C504.564 3.92098 502.838 3.86026 501.219 3.86026C499.223 3.86026 497.658 3.77525 496.525 3.61738C494.582 3.35021 489.564 3.21663 474.51 3.01018C469.169 2.93732 460.643 2.77945 455.517 2.64586C450.445 2.51228 440.355 2.35441 433.125 2.28154C425.895 2.20868 419.366 2.09938 418.611 2.05081C417.855 2.00223 416.776 1.99009 416.183 2.03866C414.995 2.12367 396.434 2.01438 377.927 1.80793C371.128 1.73506 352.189 1.61362 335.84 1.54076C319.545 1.4679 305.462 1.38289 304.545 1.3586C299.959 1.21287 293.268 1.09143 289.599 1.07929C287.333 1.06714 284.797 1.00642 283.987 0.945704C282.962 0.848551 282.369 0.860695 281.829 0.957848C281.236 1.06714 280.858 1.055 280.102 0.897127C279.023 0.678535 276.757 0.629959 276.757 0.824263C276.757 0.884983 277.027 0.945704 277.297 0.945704C277.62 0.945704 277.836 0.99428 277.836 1.06714C277.836 1.14001 276.379 1.18858 274.599 1.18858C271.955 1.18858 271.254 1.14001 270.714 0.945704C269.905 0.654247 268.124 0.617815 268.124 0.897127C268.124 1.07929 267.477 1.09143 262.081 1.03071C258.735 0.99428 254.797 0.872839 253.286 0.775688C250.696 0.593527 250.534 0.593527 249.617 0.836407C248.915 1.03071 248.376 1.07929 247.189 1.01857C243.573 0.812119 239.257 0.7514 231.973 0.78783C227.656 0.812119 222.584 0.848551 220.642 0.860695C213.465 0.897127 161.073 0.678535 148.609 0.557095C141.486 0.484232 124.868 0.411367 111.648 0.399223C96.3782 0.374935 83.2127 0.289927 75.5507 0.168488C64.1658 -0.0136719 60.3888 -0.0379601 55.2628 0.0470467ZM390.013 3.31378C391.362 3.62953 385.049 3.65381 370.805 3.41093C367.999 3.3745 366.488 3.30164 366.704 3.21663C367.028 3.08305 389.42 3.1802 390.013 3.31378ZM338.268 6.65338C339.132 6.7141 337.729 6.75053 334.114 6.76268C330.984 6.77482 328.502 6.72624 328.286 6.65338C327.909 6.50765 336.218 6.50765 338.268 6.65338ZM359.096 6.65338C359.797 6.65338 360.391 6.68981 360.391 6.75053C360.391 6.79911 359.42 6.8234 358.233 6.79911C357.045 6.77482 356.074 6.68981 356.074 6.62909C356.074 6.55623 356.452 6.54409 356.938 6.58052C357.423 6.61695 358.394 6.65338 359.096 6.65338ZM384.132 6.77482C384.672 6.84768 384.725 6.93269 384.402 7.00556C383.7 7.16343 375.121 6.98127 374.258 6.78697C373.502 6.61695 382.945 6.6048 384.132 6.77482ZM462.909 7.6249C462.909 7.68562 462.532 7.74634 462.1 7.74634C461.668 7.74634 461.291 7.68562 461.291 7.6249C461.291 7.55204 461.668 7.50346 462.1 7.50346C462.532 7.50346 462.909 7.55204 462.909 7.6249ZM358.448 8.59642C359.258 8.77858 356.074 8.87573 354.563 8.71786C353.161 8.57213 353.161 8.55999 354.186 8.46284C355.373 8.35354 357.693 8.4264 358.448 8.59642ZM361.74 8.71786C361.902 8.77858 361.794 8.8393 361.524 8.8393C361.2 8.8393 360.93 8.77858 360.93 8.71786C360.93 8.645 361.038 8.59642 361.146 8.59642C361.308 8.59642 361.578 8.645 361.74 8.71786ZM334.168 11.0374C334.006 11.0981 332.387 11.1467 330.552 11.1467C327.477 11.1467 326.721 10.9888 329.365 10.8795C331.092 10.8188 334.491 10.9159 334.168 11.0374ZM325.588 11.0252C325.75 11.0859 325.427 11.1467 324.779 11.1467C324.132 11.1467 323.808 11.0859 323.97 11.0252C324.132 10.9524 324.509 10.9038 324.779 10.9038C325.049 10.9038 325.427 10.9524 325.588 11.0252ZM384.024 12.106C385.481 12.3125 382.945 12.3732 376.632 12.2882C367.459 12.1668 366.974 12.0089 375.769 12.0089C379.923 12.0089 383.646 12.0453 384.024 12.106ZM389.528 12.1668C389.528 12.3003 388.503 12.3489 388.179 12.2396C388.017 12.1789 388.233 12.1182 388.664 12.1182C389.15 12.1182 389.528 12.1425 389.528 12.1668ZM408.575 12.3246C407.873 12.3489 406.686 12.3489 405.877 12.3246C405.013 12.3003 405.607 12.2761 407.064 12.2761C408.575 12.2761 409.222 12.3003 408.575 12.3246ZM420.553 12.3611C420.391 12.4218 419.96 12.4825 419.69 12.4825C419.366 12.4825 419.312 12.4218 419.474 12.3611C419.636 12.2882 420.067 12.2396 420.337 12.2396C420.661 12.2396 420.715 12.2882 420.553 12.3611ZM376.848 13.1018C377.118 13.1626 375.553 13.2111 373.179 13.2111C370.912 13.2111 369.024 13.1626 369.024 13.1018C369.024 12.859 375.661 12.859 376.848 13.1018ZM330.876 14.2677C330.499 14.292 329.851 14.292 329.527 14.2677C329.15 14.2312 329.419 14.2069 330.175 14.2069C330.93 14.2069 331.2 14.2312 330.876 14.2677ZM364.168 17.8987C364.168 18.0809 363.52 18.093 358.125 18.0202C349.384 17.8987 348.898 17.7166 357.315 17.7044C363.304 17.7044 364.168 17.7287 364.168 17.8987Z" fill="black"/>
<path d="M455.247 9.64078C454.492 9.79865 455.409 9.93224 457.298 9.93224C458.323 9.93224 461.021 10.0415 463.341 10.163C466.309 10.333 473.323 10.4909 487.73 10.7216C510.284 11.0616 510.931 11.0738 510.931 10.9159C510.931 10.758 506.507 10.5394 503.161 10.5394C501.543 10.5394 500.086 10.4909 499.924 10.4301C499.762 10.3816 498.413 10.3816 496.902 10.4544C494.636 10.5516 493.989 10.5394 492.748 10.3451C491.183 10.1144 484.654 10.0172 484.33 10.2115C484.276 10.2723 482.118 10.2237 479.636 10.1144C477.1 10.0172 471.92 9.87152 468.035 9.8108C464.204 9.73793 459.834 9.65292 458.323 9.61649C456.866 9.58006 455.463 9.5922 455.247 9.64078Z" fill="black"/>
<path d="M516.867 10.6606C516.435 10.7213 515.41 10.7821 514.601 10.7821C513.791 10.7821 513.036 10.8306 512.874 10.8914C512.55 11.0007 511.579 10.9885 545.734 11.6321C559.979 11.8993 572.766 12.1422 574.115 12.1908C577.407 12.2758 578.108 12.045 575.033 11.875C573.738 11.8143 571.849 11.6929 570.77 11.6321C569.691 11.5593 567.155 11.5107 565.105 11.5107C563.054 11.5107 559.817 11.45 557.874 11.3771C555.932 11.3043 551.723 11.2314 548.432 11.195C545.194 11.1707 541.04 11.0735 539.259 10.9764C533.648 10.6728 529.547 10.6242 528.737 10.8428C527.874 11.0735 526.363 11.0735 525.5 10.8428C525.122 10.7456 524.637 10.6849 524.421 10.7213C524.151 10.7578 523.342 10.7213 522.586 10.6485C521.507 10.5392 521.022 10.5392 520.374 10.6606C519.727 10.7821 519.349 10.7821 518.917 10.6849C518.162 10.5149 517.892 10.5028 516.867 10.6606Z" fill="black"/>
<path d="M462.37 13.6847C461.129 13.7697 461.183 13.7818 463.179 13.8547C464.366 13.9033 469.006 13.9883 473.431 14.0611C477.909 14.1219 486.489 14.2554 492.586 14.3526C513.305 14.6926 514.708 14.7048 514.708 14.559C514.708 14.3647 514.061 14.3526 489.348 14.0004C476.722 13.8183 465.823 13.6604 465.068 13.6361C464.312 13.6118 463.125 13.6361 462.37 13.6847Z" fill="black"/>
<path d="M526.579 14.6682C527.658 14.8261 530.518 14.8261 530.086 14.6682C529.924 14.5954 528.845 14.5468 527.766 14.5468C526.255 14.5468 525.985 14.5832 526.579 14.6682Z" fill="black"/>
<path d="M487.999 15.0329C487.784 15.1179 488.431 15.13 489.996 15.0815C493.071 14.9722 493.287 14.9114 490.535 14.9114C489.348 14.9114 488.161 14.9722 487.999 15.0329Z" fill="black"/>
<path d="M499.331 15.1663C501.435 15.227 506.021 15.2999 509.582 15.3363C515.518 15.3849 515.895 15.3849 514.439 15.2149C513.198 15.0813 510.716 15.0449 504.187 15.057C496.795 15.0691 496.093 15.0813 499.331 15.1663Z" fill="black"/>
<path d="M527.496 15.3487C526.525 15.5673 527.334 15.6401 530.787 15.6401C533.108 15.6401 534.133 15.5916 533.593 15.5308C532.406 15.373 527.982 15.2394 527.496 15.3487Z" fill="black"/>
<path d="M447.801 16.9634C447.801 17.2427 453.952 17.9956 457.891 18.202C460.157 18.3235 476.884 18.5664 477.424 18.4814C477.478 18.4571 476.938 18.2506 476.075 18.0077C475.158 17.7406 474.294 17.5948 473.809 17.6434C472.729 17.7284 466.147 17.4734 464.42 17.267C461.83 16.9512 447.801 16.7083 447.801 16.9634ZM475.05 18.0685C474.888 18.1292 474.456 18.1899 474.186 18.1899C473.863 18.1899 473.809 18.1292 473.971 18.0685C474.132 17.9956 474.564 17.947 474.834 17.947C475.158 17.947 475.212 17.9956 475.05 18.0685Z" fill="black"/>
</svg>
