<svg width="548" height="20" viewBox="0 0 548 20" fill="none" xmlns="http://www.w3.org/2000/svg">
<path d="M492.737 19.953C493.924 19.9287 498.888 19.8558 503.798 19.7829C508.709 19.7101 516.209 19.5643 520.471 19.4672C528.942 19.2729 530.076 19.1757 532.396 18.4107C533.097 18.1799 534.5 17.8763 535.579 17.7185C539.896 17.0748 542.432 16.2855 541.137 15.994C540.759 15.909 540.975 15.6783 541.784 15.2532C543.187 14.5367 543.241 13.6502 542.108 12.1929L541.407 11.355L543.241 11.015C544.968 10.6871 545.022 10.6628 544.374 10.2742C543.457 9.70342 543.565 9.02336 544.644 8.64689C545.507 8.35544 545.507 8.33115 544.536 8.17328C543.997 8.07613 543.187 8.00326 542.863 8.00326C542.324 8.00326 542.27 7.83324 542.486 7.37177C542.809 6.80101 542.702 6.72814 541.353 6.48526C540.435 6.32739 539.788 6.06022 539.572 5.78091C539.302 5.35587 539.356 5.31944 541.191 5.14942C542.27 5.05227 543.241 4.91869 543.403 4.87011C543.565 4.80939 542.971 4.50579 542.108 4.19005C540.597 3.65571 540.543 3.60713 541.245 3.20638C541.676 2.98779 543.025 2.59918 544.212 2.3563C545.453 2.10128 546.425 1.82197 546.425 1.73696C546.425 1.63981 546.802 1.53051 547.234 1.49408C548.421 1.38478 548.205 1.11762 546.748 0.886879C545.939 0.777583 545.561 0.631855 545.723 0.52256C546.101 0.291824 540.975 0.291824 536.173 0.534703C531.91 0.753295 515.723 0.899023 514.698 0.741151C514.05 0.643999 514.05 0.583279 514.644 0.376832C515.723 -0.0117763 514.968 -0.0603523 512.324 0.243248C508.439 0.692575 506.82 0.716863 493.007 0.534703C471.802 0.255392 446.118 0.194672 423.672 0.352544C412.395 0.425408 388.708 0.534703 371.064 0.595423C353.42 0.656143 321.585 0.765439 300.38 0.838303C243.347 1.03261 153.616 1.04475 132.303 0.874735C122.483 0.789727 109.048 0.692575 102.357 0.656143C95.6661 0.619711 86.3315 0.534703 81.6373 0.46184C68.04 0.27968 43.3816 -0.0117763 41.9248 0.000367692L40.5758 0.0125117L41.9248 0.109664C43.1658 0.206816 65.3422 0.716863 76.1876 0.886879C78.5617 0.935455 82.6624 1.08118 85.3064 1.22691L90.1086 1.49408L90.9179 1.22691C91.5114 1.02046 91.8891 0.984031 92.6985 1.09333C93.292 1.15405 94.1553 1.20262 94.6949 1.17834C95.1805 1.16619 95.9359 1.19048 96.3136 1.2512C96.7992 1.31192 97.7705 1.26334 98.9036 1.12976C100.468 0.935455 100.954 0.923311 102.573 1.0569C103.598 1.1419 105.001 1.23906 105.702 1.27549C107.753 1.38478 129.389 1.5548 140.666 1.56694C146.602 1.56694 156.638 1.67624 163.868 1.82197C170.829 1.95555 177.465 2.0527 178.544 2.02841C180.055 1.99198 180.595 2.02841 180.595 2.162C180.595 2.30773 179.084 2.31987 170.721 2.25915C165.325 2.21057 150.055 2.13771 136.782 2.10128C114.605 2.01627 112.609 2.02841 112.285 2.21057C112.069 2.3563 111.314 2.41702 109.857 2.41702C108.724 2.41702 107.753 2.4656 107.753 2.53846C107.753 2.67205 108.94 2.73277 112.986 2.82992C114.551 2.86635 116.494 2.99993 117.303 3.13352C118.544 3.32782 120.055 3.3764 126.368 3.43712C130.522 3.47355 138.023 3.55856 143.095 3.63142C148.113 3.69214 156.314 3.78929 161.278 3.82573C169.21 3.89859 172.231 3.99574 171.422 4.15361C171.206 4.19005 150.918 4.11718 120.756 3.95931C117.195 3.94717 115.63 3.9836 115.468 4.08075C115.145 4.27505 117.249 4.33577 127.177 4.42078C131.763 4.45721 141.8 4.54222 149.461 4.60294C157.123 4.66366 163.598 4.74867 163.814 4.7851C164.785 4.90654 178.221 5.10085 192.735 5.198C207.196 5.29515 212.43 5.42873 212.43 5.70805C212.43 5.8052 208.329 5.81734 199.318 5.78091C140.505 5.5016 114.066 5.34373 107.213 5.21014C97.8784 5.02798 63.1299 4.83368 61.781 4.95512L60.54 5.06441L61.8889 5.12513C62.6443 5.16157 65.3961 5.22229 68.094 5.27086C70.7379 5.30729 73.3818 5.40445 74.0293 5.5016C75.7559 5.75662 103.166 6.18166 133.382 6.42454C142.555 6.50955 152.051 6.6067 154.426 6.66742C157.501 6.74029 155.289 6.76457 146.872 6.716C129.875 6.63099 106.026 6.44883 101.116 6.35168C97.5007 6.27881 96.9611 6.29096 97.2309 6.44883C97.4467 6.57027 98.5259 6.66742 99.9827 6.70385C102.249 6.75243 103.382 6.86173 102.842 6.94673C102.735 6.97102 99.7129 6.94673 96.1518 6.88601C92.5906 6.83744 88.8136 6.82529 87.7884 6.86173C86.0078 6.94673 85.9538 6.94673 87.2488 7.03174C88.1121 7.09246 86.8711 7.12889 83.8495 7.14104C79.1013 7.15318 78.0221 7.29891 81.5294 7.44464C85.4682 7.61465 95.1805 7.76038 97.6086 7.68752C100.145 7.61465 101.224 7.39606 99.0654 7.39606C98.4719 7.39606 98.0942 7.34749 98.31 7.28677C98.7417 7.11675 116.224 7.27462 118.814 7.46892C120.81 7.6268 120.379 7.6268 114.066 7.57822C107.051 7.52964 105.217 7.66323 110.828 7.80896C112.555 7.85753 118.058 7.91825 123.13 7.95468C128.148 7.97897 138.724 8.08827 146.602 8.18542C154.479 8.28257 170.019 8.44044 181.134 8.54974C204.929 8.76833 208.437 8.82905 207.681 8.99907C207.304 9.08408 196.027 9.08408 174.066 9.0355C155.828 8.97478 135.001 8.95049 127.717 8.96264C120.432 8.97478 111.098 8.9262 106.943 8.85334C102.788 8.79262 90.3783 8.64689 79.425 8.54974C30.7017 8.11256 12.3022 7.84539 0.917297 7.44464C-5.82733 7.20176 -20.3958 7.08032 -20.8814 7.25033C-21.0433 7.3232 -20.6116 7.40821 -19.7483 7.44464C-14.5684 7.68752 14.0289 8.234 55.9536 8.91406C66.4753 9.08408 85.6841 9.41196 98.5798 9.65484C111.476 9.88558 128.634 10.1285 136.674 10.1892C144.659 10.2499 153.562 10.3835 156.368 10.4928C159.174 10.5899 161.656 10.6749 161.98 10.6749C162.249 10.6749 162.141 10.7478 161.602 10.8328C160.199 11.0878 160.954 11.6343 163.113 11.8651C164.138 11.9622 164.947 12.0958 164.947 12.1444C164.947 12.2658 162.519 12.3265 159.659 12.2658C157.717 12.2294 157.393 12.1929 157.663 12.0108C157.825 11.8893 157.771 11.7558 157.501 11.7193C157.231 11.6829 152.753 11.6222 147.519 11.5979C142.339 11.5736 137.591 11.5007 137.051 11.4279C135.54 11.2579 100.9 11.2457 100.414 11.4157C100.253 11.4886 100.414 11.5979 100.792 11.6707C101.601 11.7922 87.1949 11.7072 76.1876 11.525C64.5868 11.3307 52.932 11.2579 50.504 11.355L48.1299 11.4522L50.2881 11.5372C51.4752 11.5857 57.4105 11.7072 63.5076 11.8165C75.702 12.0472 78.184 12.1322 78.4538 12.3265C78.6157 12.4237 77.9142 12.448 76.3495 12.4237C75.0545 12.3872 61.4033 12.1808 46.0255 11.9379C23.4174 11.5979 17.698 11.5372 16.457 11.6586C15.5936 11.7315 15.108 11.8408 15.3239 11.9015C15.5397 11.9501 21.2052 12.0836 27.8959 12.1929C34.5866 12.2901 44.7845 12.4601 50.5579 12.5573C87.6265 13.1645 95.882 13.2616 99.0115 13.1037C101.655 12.9702 101.871 12.9337 100.738 12.8609C99.9827 12.8123 97.5007 12.7394 95.1805 12.6908C92.8604 12.6423 90.4862 12.5573 89.8387 12.5087C88.1661 12.3751 112.285 12.4723 118.922 12.6301C121.943 12.703 125.073 12.7273 125.936 12.6908C126.799 12.6544 127.987 12.703 128.796 12.8001C129.821 12.9337 129.929 12.9702 129.174 12.9823C128.634 12.9823 128.256 13.0795 128.256 13.213C128.256 13.3466 128.688 13.4802 129.174 13.5166C130.792 13.6138 141.961 13.7109 168.994 13.8324C183.239 13.9052 197.214 13.9781 200.019 14.0145C204.228 14.0631 244.642 14.1967 260.721 14.2088C264.876 14.221 264.984 14.221 263.149 14.3789C261.638 14.5003 254.57 14.5246 229.426 14.4882C194.462 14.4396 164.462 14.3424 163.868 14.2574C163.706 14.2331 157.123 14.1967 149.246 14.1846C141.422 14.1603 131.602 14.1117 127.447 14.0631C123.292 14.0145 113.742 13.966 106.242 13.9538C95.1266 13.9417 92.4287 13.9781 91.5114 14.1238C90.4862 14.2817 90.7021 14.306 94.641 14.3789C96.9611 14.4274 100.037 14.5003 101.547 14.561C104.137 14.646 104.191 14.6582 102.141 14.6703C100.037 14.6825 83.3639 14.4274 70.576 14.1967C62.2666 14.0388 45.0543 13.9295 48.5075 14.051C53.4176 14.2331 51.8529 14.3303 45.0543 14.2939C41.2773 14.2574 37.9859 14.2088 37.824 14.1603C37.6082 14.1117 35.7197 14.0753 33.6693 14.0753C25.144 14.0753 33.0758 14.3789 49.209 14.6825C53.3637 14.7553 59.0832 14.9011 61.8889 15.0103C64.6947 15.1075 70.0365 15.2168 73.7595 15.2532C77.4825 15.2775 81.961 15.3747 83.7416 15.4718C85.5222 15.5568 91.1877 15.7026 96.2597 15.7876C101.386 15.8726 105.594 15.9697 105.594 16.0183C105.594 16.0669 99.7129 16.1397 92.4827 16.1762C82.9323 16.2247 77.4825 16.2005 72.1408 16.079C63.7774 15.8726 41.7089 15.8361 43.0039 16.0183C43.4356 16.079 45.1622 16.1397 46.7809 16.1397C48.7773 16.1397 50.3421 16.2247 51.4752 16.3826C53.4176 16.6498 58.4357 16.7834 73.4897 16.9898C78.8315 17.0627 87.3567 17.2206 92.4827 17.3541C97.5546 17.4877 107.645 17.6456 114.875 17.7185C122.105 17.7913 128.634 17.9006 129.389 17.9492C130.145 17.9978 131.224 18.0099 131.817 17.9613C133.005 17.8763 151.566 17.9856 170.073 18.1921C176.872 18.2649 195.811 18.3864 212.16 18.4592C228.455 18.5321 242.538 18.6171 243.455 18.6414C248.041 18.7871 254.732 18.9086 258.401 18.9207C260.667 18.9329 263.203 18.9936 264.013 19.0543C265.038 19.1514 265.631 19.1393 266.171 19.0422C266.764 18.9329 267.142 18.945 267.898 19.1029C268.977 19.3215 271.243 19.37 271.243 19.1757C271.243 19.115 270.973 19.0543 270.703 19.0543C270.38 19.0543 270.164 19.0057 270.164 18.9329C270.164 18.86 271.621 18.8114 273.401 18.8114C276.045 18.8114 276.746 18.86 277.286 19.0543C278.095 19.3458 279.876 19.3822 279.876 19.1029C279.876 18.9207 280.523 18.9086 285.919 18.9693C289.265 19.0057 293.203 19.1272 294.714 19.2243C297.304 19.4065 297.466 19.4065 298.383 19.1636C299.085 18.9693 299.624 18.9207 300.811 18.9814C304.427 19.1879 308.743 19.2486 316.027 19.2122C320.344 19.1879 325.416 19.1514 327.358 19.1393C334.535 19.1029 386.927 19.3215 399.391 19.4429C406.514 19.5158 423.132 19.5886 436.352 19.6008C451.622 19.6251 464.787 19.7101 472.449 19.8315C483.834 20.0137 487.611 20.038 492.737 19.953ZM157.987 16.6862C156.638 16.3705 162.951 16.3462 177.195 16.5891C180.001 16.6255 181.512 16.6984 181.296 16.7834C180.972 16.917 158.58 16.8198 157.987 16.6862ZM209.732 13.3466C208.868 13.2859 210.271 13.2495 213.886 13.2373C217.016 13.2252 219.498 13.2738 219.714 13.3466C220.091 13.4923 211.782 13.4923 209.732 13.3466ZM188.904 13.3466C188.203 13.3466 187.609 13.3102 187.609 13.2495C187.609 13.2009 188.58 13.1766 189.767 13.2009C190.955 13.2252 191.926 13.3102 191.926 13.3709C191.926 13.4438 191.548 13.4559 191.062 13.4195C190.577 13.3831 189.606 13.3466 188.904 13.3466ZM163.868 13.2252C163.328 13.1523 163.275 13.0673 163.598 12.9944C164.3 12.8366 172.879 13.0187 173.742 13.213C174.498 13.3831 165.055 13.3952 163.868 13.2252ZM85.0905 12.3751C85.0905 12.3144 85.4682 12.2537 85.8999 12.2537C86.3315 12.2537 86.7092 12.3144 86.7092 12.3751C86.7092 12.448 86.3315 12.4965 85.8999 12.4965C85.4682 12.4965 85.0905 12.448 85.0905 12.3751ZM189.552 11.4036C188.742 11.2214 191.926 11.1243 193.437 11.2821C194.839 11.4279 194.839 11.44 193.814 11.5372C192.627 11.6465 190.307 11.5736 189.552 11.4036ZM186.26 11.2821C186.098 11.2214 186.206 11.1607 186.476 11.1607C186.8 11.1607 187.07 11.2214 187.07 11.2821C187.07 11.355 186.962 11.4036 186.854 11.4036C186.692 11.4036 186.422 11.355 186.26 11.2821ZM213.832 8.96264C213.994 8.90192 215.613 8.85334 217.448 8.85334C220.523 8.85334 221.279 9.01121 218.635 9.12051C216.908 9.18123 213.509 9.08408 213.832 8.96264ZM222.412 8.97478C222.25 8.91406 222.573 8.85334 223.221 8.85334C223.868 8.85334 224.192 8.91406 224.03 8.97478C223.868 9.04764 223.491 9.09622 223.221 9.09622C222.951 9.09622 222.573 9.04764 222.412 8.97478ZM163.976 7.89396C162.519 7.68752 165.055 7.6268 171.368 7.7118C180.541 7.83324 181.026 7.99112 172.231 7.99112C168.077 7.99112 164.354 7.95468 163.976 7.89396ZM158.472 7.83324C158.472 7.69966 159.497 7.65108 159.821 7.76038C159.983 7.8211 159.767 7.88182 159.336 7.88182C158.85 7.88182 158.472 7.85753 158.472 7.83324ZM139.425 7.67537C140.127 7.65108 141.314 7.65108 142.123 7.67537C142.987 7.69966 142.393 7.72395 140.936 7.72395C139.425 7.72395 138.778 7.69966 139.425 7.67537ZM127.447 7.63894C127.609 7.57822 128.04 7.5175 128.31 7.5175C128.634 7.5175 128.688 7.57822 128.526 7.63894C128.364 7.7118 127.933 7.76038 127.663 7.76038C127.339 7.76038 127.285 7.7118 127.447 7.63894ZM171.152 6.89816C170.882 6.83744 172.447 6.78886 174.821 6.78886C177.088 6.78886 178.976 6.83744 178.976 6.89816C178.976 7.14104 172.339 7.14104 171.152 6.89816ZM217.124 5.73233C217.501 5.70805 218.149 5.70805 218.473 5.73233C218.85 5.76877 218.581 5.79305 217.825 5.79305C217.07 5.79305 216.8 5.76877 217.124 5.73233ZM183.832 2.10128C183.832 1.91912 184.48 1.90697 189.875 1.97984C198.616 2.10128 199.102 2.28344 190.685 2.29558C184.696 2.29558 183.832 2.27129 183.832 2.10128Z" fill="black"/>
<path d="M92.7525 10.3592C93.5079 10.2013 92.5906 10.0678 90.7021 10.0678C89.677 10.0678 86.9791 9.95847 84.6589 9.83703C81.6913 9.66701 74.6769 9.50914 60.2703 9.2784C37.7162 8.93837 37.0687 8.92623 37.0687 9.0841C37.0687 9.24197 41.4932 9.46056 44.8385 9.46056C46.4572 9.46056 47.9141 9.50914 48.076 9.56986C48.2378 9.61844 49.5868 9.61844 51.0976 9.54557C53.3638 9.44842 54.0112 9.46056 55.2523 9.65487C56.817 9.8856 63.3458 9.98276 63.6696 9.78845C63.7235 9.72773 65.8818 9.77631 68.3639 9.8856C70.8998 9.98276 76.0797 10.1285 79.9647 10.1892C83.7956 10.2621 88.1662 10.3471 89.677 10.3835C91.1338 10.4199 92.5367 10.4078 92.7525 10.3592Z" fill="black"/>
<path d="M31.1332 9.33937C31.5648 9.27865 32.59 9.21793 33.3994 9.21793C34.2087 9.21793 34.9641 9.16936 35.126 9.10864C35.4498 8.99934 36.421 9.01149 2.26608 8.36786C-11.9786 8.10069 -24.7665 7.85781 -26.1154 7.80923C-29.4068 7.72422 -30.1082 7.95496 -27.0327 8.12498C-25.7377 8.1857 -23.8492 8.30714 -22.7701 8.36786C-21.6909 8.44072 -19.1549 8.4893 -17.1046 8.4893C-15.0542 8.4893 -11.8167 8.55002 -9.87429 8.62288C-7.93183 8.69574 -3.72317 8.76861 -0.431782 8.80504C2.80565 8.82933 6.96036 8.92648 8.74094 9.02363C14.3525 9.32723 18.4532 9.37581 19.2626 9.15721C20.1259 8.92648 21.6367 8.92648 22.5 9.15721C22.8777 9.25437 23.3633 9.31509 23.5792 9.27865C23.849 9.24222 24.6583 9.27865 25.4137 9.35152C26.4929 9.46081 26.9785 9.46081 27.626 9.33937C28.2734 9.21793 28.6511 9.21793 29.0828 9.31509C29.8382 9.4851 30.108 9.49725 31.1332 9.33937Z" fill="black"/>
<path d="M85.6303 6.31532C86.8713 6.23031 86.8173 6.21817 84.8209 6.14531C83.6339 6.09673 78.9936 6.01172 74.5691 5.93886C70.0906 5.87814 61.5114 5.74455 55.4143 5.6474C34.6947 5.30737 33.2918 5.29523 33.2918 5.44095C33.2918 5.63526 33.9393 5.6474 58.6517 5.99958C71.2777 6.18174 82.177 6.33961 82.9324 6.3639C83.6878 6.38819 84.8749 6.3639 85.6303 6.31532Z" fill="black"/>
<path d="M21.4212 5.33178C20.342 5.17391 17.4823 5.17391 17.914 5.33178C18.0758 5.40465 19.155 5.45322 20.2341 5.45322C21.7449 5.45322 22.0147 5.41679 21.4212 5.33178Z" fill="black"/>
<path d="M60.0007 4.96712C60.2165 4.88212 59.569 4.86997 58.0042 4.91855C54.9287 5.02784 54.7128 5.08856 57.4647 5.08856C58.6517 5.08856 59.8388 5.02784 60.0007 4.96712Z" fill="black"/>
<path d="M48.6694 4.83371C46.5651 4.77299 41.9787 4.70012 38.4176 4.66369C32.4823 4.61511 32.1046 4.61511 33.5614 4.78513C34.8024 4.91871 37.2845 4.95515 43.8133 4.943C51.2054 4.93086 51.9069 4.91871 48.6694 4.83371Z" fill="black"/>
<path d="M20.5039 4.65132C21.4751 4.43273 20.6658 4.35986 17.2125 4.35986C14.8924 4.35986 13.8672 4.40844 14.4067 4.46916C15.5938 4.62703 20.0183 4.76062 20.5039 4.65132Z" fill="black"/>
<path d="M100.199 3.03664C100.199 2.75733 94.0476 2.0044 90.1087 1.79796C87.8425 1.67652 71.1158 1.43364 70.5762 1.51864C70.5223 1.54293 71.0618 1.74938 71.9252 1.99226C72.8424 2.25943 73.7057 2.40516 74.1914 2.35658C75.2705 2.27157 81.8533 2.5266 83.5799 2.73304C86.1699 3.04879 100.199 3.29167 100.199 3.03664ZM72.9503 1.93154C73.1122 1.87082 73.5439 1.8101 73.8137 1.8101C74.1374 1.8101 74.1914 1.87082 74.0295 1.93154C73.8676 2.0044 73.436 2.05298 73.1662 2.05298C72.8424 2.05298 72.7885 2.0044 72.9503 1.93154Z" fill="black"/>
</svg>
