<svg width="251" height="42" viewBox="0 0 251 42" fill="none" xmlns="http://www.w3.org/2000/svg">
<path d="M0.0252495 10.1264C-0.277449 8.91213 2.27027 8.78895 3.50629 8.60417C7.45398 8.00581 12.3224 8.03218 16.4214 7.47783L5.08285 6.59789L13.8989 5.71795L11.3891 3.9757C27.1168 3.43894 42.9202 0.957531 58.6226 0.411971C98.1374 -0.978327 137.942 1.5383 177.179 2.24225C190.385 2.47983 235.625 0.517538 244.164 3.02535C244.984 3.27174 249.007 5.22519 248.49 5.71795C244.643 7.14345 238.072 5.41878 235.878 8.35776L251 7.49544L234.604 10.1264C234.68 11.6135 233.759 12.0007 236.193 11.6928C241.541 11.0064 247.279 9.88004 250.987 13.6286C245.413 15.3268 237.202 13.2414 233.343 17.1483L249.739 18.0371C250.458 20.5009 248.44 19.7529 245.942 19.7969L247.216 21.5304L239.661 24.179L245.968 25.0765L243.445 27.6988L249.739 28.5787L244.706 30.3386L251 31.6672C249.827 32.7408 249.348 33.7615 247.683 34.6327C224.766 46.6702 153.582 40.4402 124.296 39.9915C88.6781 39.4459 53.1614 40.7218 17.67 41.7777L23.9636 38.2756C17.67 38.4868 12.6124 39.7979 6.31884 38.258L15.9548 36.6389L20.1799 34.7558L1.27387 32.9784C0.81982 29.3267 9.44678 30.7609 12.9152 30.1098C15.1728 29.6874 21.3276 27.5403 22.7024 25.9477L18.9061 25.4989L22.097 24.1878C25.187 21.7064 6.84855 22.4456 5.04497 22.4104L7.8071 20.4305L20.1673 17.1483L1.26124 18.4595C4.25039 16.11 9.0684 17.5795 12.9909 16.9636C16.598 16.3916 19.7385 13.1358 25.2123 14.4909L17.6574 13.611L25.2249 10.1001H0L0.0252495 10.1264Z" fill="#C20000"/>
</svg>
