<svg width="570" height="115" viewBox="0 0 570 115" fill="none" xmlns="http://www.w3.org/2000/svg">
<path d="M204.462 104.9C202.765 102.336 207.232 103.247 207.348 102.306C207.479 101.204 205.535 99.5922 207.363 97.8998C202.2 99.2918 198.342 97.9199 193.643 97.8498C178.85 97.6094 162.752 98.1201 149.293 98.4105C139.663 98.6208 129.99 99.2717 120.331 98.8912L121.796 96.9084L91.3253 97.9098L92.8916 100.854L108.714 99.9126L102.928 102.897C107.801 103.458 116.038 101.244 118.866 104.9C110.643 105.881 101.869 105.32 93.6748 106.041C81.5649 107.103 35.0542 115.965 28.5135 114.914C27.4692 114.743 27.6288 113.221 26.4105 112.991C23.4375 112.43 7.93391 111.339 7.19426 110.908C6.23707 107.493 10.2544 109.997 13.7641 109.025C15.5334 108.535 17.6653 108.044 17.3608 106.412C10.9795 107.363 11.5741 100.664 9.74676 99.1315C8.83308 98.3605 5.83099 98.4105 4.29369 97.3691C3.3365 96.7182 3.03194 95.2662 2.19078 94.2548C1.82821 93.8242 0.0733593 93.8642 0.102365 93.4236C0.276399 91.6511 2.8144 89.0175 2.8289 86.3638C2.8434 82.969 -0.0281604 78.4027 1.3206 74.5173L9.9643 70.2213L7.16525 61.8397L3.55404 63.8224C-4.49504 58.7053 7.58584 49.5826 5.03334 45.8374C4.01814 44.3553 0.160377 43.6944 0.000845528 41.3511C-0.0571659 40.5901 2.88691 34.061 3.59755 32.8193C12.7198 16.807 54.3865 7.0334 77.5476 5.77164C142.187 2.26676 205.941 0.684567 270.566 6.65287L313.19 4.7502L308.128 6.74296C305.764 8.09484 309.869 7.83447 311.058 7.79441C315.148 7.64421 318.759 6.81308 322.559 6.70293C351.477 5.8918 380.643 5.2309 409.605 3.7188C428.865 2.7174 460.205 -2.7903 478.856 1.8061C479.842 2.04643 479.886 3.50847 481.017 3.68873C485.629 4.41974 492.75 3.91908 497.768 4.97054C500.219 5.48125 502.162 8.33518 506.078 7.74436C506.426 9.48678 502.786 8.68566 501.031 8.73573C497.405 8.83587 493.75 8.65563 490.139 8.74575L503.192 14.7341L460.423 14.7541L439.394 18.7397C445.688 17.0774 497.449 14.9344 497.376 19.2504L481.452 23.7467C499.392 21.7439 517.303 22.9956 535.098 24.768C535.374 26.4804 530.109 25.8596 528.514 25.8095C522.002 25.5992 515.664 24.1071 509.007 24.768C508.674 26.5505 511.893 25.5291 513.779 25.9497C523.438 28.1528 499.943 29.8151 498.522 30.0554C497.101 30.2958 494.156 30.3358 494.49 31.7578C498.565 31.6877 502.713 31.9281 506.803 31.7578C520.291 31.197 536.983 28.5633 550.384 28.7135C552.646 28.7436 554.909 29.0641 555.402 30.7564L542.364 32.7592L556.852 33.7606L520.61 37.7962C520.262 39.5386 523.902 38.7375 525.657 38.7876C529.761 38.8977 533.909 38.7075 537.999 38.7976L523.51 43.2938L533.648 45.7773C519.754 44.3954 511.893 42.5127 498.855 47.8001C500.654 51.7856 514.214 48.7314 516.244 49.7929L511.908 53.7885C527.673 54.5595 542.886 51.295 558.303 49.8029L536.548 54.7998H566.279C566.787 54.7998 568.426 56.1117 569.905 55.8112C570.441 56.3019 568.585 57.3534 567.41 57.5737C555.576 59.8369 540.203 57.9743 527.861 60.8182L547.556 63.7323L568.469 63.8224C566.729 66.9167 562.595 67.107 558.317 66.8266L564.104 69.8107C555.721 69.8107 550.558 67.157 541.755 67.9081C539.565 68.0883 533.082 69.1298 532.212 70.8121C535.707 71.6533 547.585 68.7793 546.7 72.8249L513.344 74.8377C513.01 76.5902 516.636 75.7791 518.391 75.8291C528.035 76.1295 537.215 74.6975 546.686 75.8391L535.736 79.8247C534.547 80.8962 540.377 82.7688 536.577 84.371C534.953 85.062 513.431 85.4725 511.429 84.6814C509.181 83.7802 509.849 82.0377 506.861 81.7574C499.334 81.0664 497.623 82.8689 492.184 83.7601C486.746 84.6514 480.176 82.7487 479.973 88.8372C484.062 88.9273 488.21 88.7271 492.3 88.8372C494.534 88.8973 498.043 87.8959 497.347 90.3193L471.256 94.8456L474.157 97.8297C464.498 97.9099 454.027 98.1001 444.455 98.8511C402.005 102.186 362.282 100.894 319.774 100.804C300.181 100.764 280.559 100.914 260.98 100.854C259.964 105.05 273.51 101.254 275.468 104.849H204.404L204.462 104.9ZM239.254 21.7939L176.907 19.7912L189.234 21.7739L226.941 23.8668L239.254 21.7839V21.7939ZM310.318 93.8842C287.331 93.4236 264.417 93.0531 241.386 92.9229C236.02 92.8928 230.466 90.9502 224.752 93.3735C224.752 94.8556 264.185 94.7554 267.52 94.8956C273.525 95.146 279.891 96.6481 286.331 96.9285C291.813 97.1688 309.84 98.5207 310.318 93.8842ZM340.789 91.9015L344.429 90.9001L342.979 88.9173L263.924 88.8973C263.619 90.3193 267.912 90.4595 269.391 90.6097C289.826 92.7627 313.843 90.9401 332.74 92.9429C335.887 93.2734 339.194 96.0372 343.689 94.8856C344.415 93.4136 338.019 94.1346 340.803 91.9115L340.789 91.9015ZM420.54 11.76L367.59 15.5853C349.404 12.9316 325.474 14.1233 306.722 15.7856C302.008 16.2062 294.902 16.4264 292.929 19.7711C302.791 19.5608 312.784 20.0915 322.646 19.7711C346.401 18.99 397.654 17.2076 418.843 13.0918C426.834 11.5397 430.997 6.48261 442.309 8.75577C436.74 4.05924 426.008 7.8946 419.09 8.77582L420.554 11.76H420.54Z" fill="#C20000"/>
</svg>
