<svg width="69" height="8" viewBox="0 0 69 8" fill="none" xmlns="http://www.w3.org/2000/svg">
<path d="M69 5.54135C68.8802 5.66598 66.3864 2.91814 66.3234 5.23739C65.4627 2.52906 62.2532 4.03065 60.0211 4.04585C58.5835 4.05801 57.2184 3.52911 55.7618 3.72061C55.6767 4.13704 55.8722 4.45013 56.2883 4.57779C57.0607 4.81488 58.4763 4.25255 58.9114 4.93039L48.0219 4.61427C36.7069 5.33466 25.086 4.67506 13.6764 5.5444C13.2004 5.58087 12.5509 5.72374 12.0748 5.83924C11.5452 5.96691 11.1543 5.53527 11.3119 6.45325L22.1698 6.13409L25.1775 6.45021L6.72471 7.35602C3.42699 9.05823 1.38088 6.15841 0 3.6203C0.201773 1.29497 6.15722 0.504661 7.9984 0.376996C22.5607 -0.620008 38.403 0.756956 53.0915 0.0578366C58.4542 0.981889 66.708 -0.650408 68.9968 5.54135H69Z" fill="#C20000"/>
<path d="M41.2612 6.45319H30.542V6.75715H41.2612V6.45319Z" fill="#C20000"/>
</svg>
