<svg width="367" height="8" viewBox="0 0 367 8" fill="none" xmlns="http://www.w3.org/2000/svg">
<path d="M367 5.63607C366.363 5.76282 353.099 2.96801 352.763 5.32691C348.186 2.57229 331.115 4.09955 319.243 4.115C311.596 4.12737 304.335 3.58943 296.588 3.7842C296.135 4.20775 297.175 4.52619 299.389 4.65603C303.497 4.89718 311.026 4.32523 313.34 5.01466L255.421 4.69313C195.238 5.42584 133.429 4.75496 72.7427 5.63916C70.2106 5.67626 66.7562 5.82157 64.2242 5.93905C61.407 6.06889 59.3277 5.62988 60.1661 6.56355L117.918 6.23893L133.915 6.56046L35.7677 7.48175C18.2276 9.21305 7.3447 6.26367 0 3.68218C1.0732 1.31711 32.7493 0.513287 42.5422 0.383439C119.997 -0.630606 204.26 0.769893 282.385 0.0588251C310.909 0.998672 354.809 -0.661525 366.983 5.63607H367Z" fill="#C20000"/>
<path d="M219.461 6.56353H162.447V6.87269H219.461V6.56353Z" fill="#C20000"/>
</svg>
